<?xml version="1.0" encoding="utf-8"?>
<!-- Generator: Adobe Illustrator 18.0.0, SVG Export Plug-In . SVG Version: 6.00 Build 0)  -->
<!DOCTYPE svg PUBLIC "-//W3C//DTD SVG 1.1//EN" "http://www.w3.org/Graphics/SVG/1.1/DTD/svg11.dtd">
<svg version="1.1" id="Layer_1" xmlns="http://www.w3.org/2000/svg" xmlns:xlink="http://www.w3.org/1999/xlink" x="0px" y="0px"
	 viewBox="-79.9 71.5 153.9 37.4" enable-background="new -79.9 71.5 153.9 37.4" xml:space="preserve">
<rect x="-57.8" y="73.1" fill="none" stroke="#000000" stroke-width="0.5" stroke-miterlimit="10" width="26.6" height="13.8"/>
<rect x="-18.2" y="83.6" fill="none" stroke="#000000" stroke-width="0.5" stroke-miterlimit="10" width="26.6" height="13.4"/>
<rect x="22.7" y="94" fill="none" stroke="#000000" stroke-width="0.5" stroke-miterlimit="10" width="25.5" height="14.3"/>
<g>
	<g>
		<line fill="none" stroke="#000000" stroke-width="0.51" stroke-miterlimit="10" x1="-31.2" y1="84.6" x2="-18.8" y2="84.6"/>
		<g>
			<polygon points="-20,85.7 -18.9,84.6 -20,83.7 -19.1,83.7 -18.2,84.6 -19.1,85.7 			"/>
		</g>
	</g>
</g>
<g>
	<g>
		<line fill="none" stroke="#000000" stroke-width="0.51" stroke-miterlimit="10" x1="8.4" y1="95.5" x2="22" y2="95.5"/>
		<g>
			<polygon points="20.9,96.6 21.8,95.5 20.9,94.4 21.6,94.4 22.7,95.5 21.6,96.6 			"/>
		</g>
	</g>
</g>
<g>
	<g>
		<line fill="none" stroke="#000000" stroke-width="0.51" stroke-miterlimit="10" x1="48.2" y1="95.5" x2="66.5" y2="95.5"/>
		<g>
			<polygon points="65.2,96.6 66.3,95.5 65.2,94.4 66.1,94.4 67.2,95.5 66.1,96.6 			"/>
		</g>
	</g>
</g>
<g>
	<g>
		<line fill="none" stroke="#000000" stroke-width="0.51" stroke-miterlimit="10" x1="-72.1" y1="74.7" x2="-58.6" y2="74.7"/>
		<g>
			<polygon points="-59.8,75.8 -58.7,74.7 -59.8,73.6 -58.9,73.6 -57.8,74.7 -58.9,75.8 			"/>
		</g>
	</g>
</g>
<g>
	<g>
		<line fill="none" stroke="#000000" stroke-width="0.51" stroke-miterlimit="10" x1="-72.1" y1="84.6" x2="-58.6" y2="84.6"/>
		<g>
			<polygon points="-59.8,85.7 -58.7,84.6 -59.8,83.7 -58.9,83.7 -57.8,84.6 -58.9,85.7 			"/>
		</g>
	</g>
</g>
<g>
	<g>
		<line fill="none" stroke="#000000" stroke-width="0.51" stroke-miterlimit="10" x1="-72.1" y1="95.5" x2="-18.9" y2="95.5"/>
		<g>
			<polygon points="-20.2,96.6 -18.9,95.5 -20.2,94.4 -19.1,94.4 -18.2,95.5 -19.1,96.6 			"/>
		</g>
	</g>
</g>
<g>
	<g>
		<line fill="none" stroke="#000000" stroke-width="0.51" stroke-miterlimit="10" x1="-72.1" y1="106.4" x2="22" y2="106.4"/>
		<g>
			<polygon points="20.9,107.5 21.8,106.4 20.9,105.4 21.6,105.4 22.7,106.4 21.6,107.5 			"/>
		</g>
	</g>
</g>
<g>
	<g>
		<g>
			<g>
				<g>
					<defs>
						<rect id="SVGID_1_" x="-79.9" y="71.6" width="7.2" height="37.3"/>
					</defs>
					<clipPath id="SVGID_2_">
						<use xlink:href="#SVGID_1_"  overflow="visible"/>
					</clipPath>
					<path clip-path="url(#SVGID_2_)" d="M-77.7,74.5c0.4-0.5,0.7-0.7,0.9-0.9c0,0,0.5-0.4,0.7-0.7c0.7-0.7,0.9-1.1,0.9-1.1
						c0-0.2-0.2-0.2-0.2-0.2c-0.2,0-0.2,0-0.2,0.2c-0.2,0.4-0.4,0.5-0.5,0.5c-0.2,0-0.4-0.2-0.4-0.4c0-0.2-0.4-0.4-0.5-0.4
						c-0.5,0-0.9,0.7-0.9,0.9c0,0,0,0.2,0.2,0.2c0.2,0,0.2,0,0.2-0.2C-77.3,72-77,72-76.8,72c0.2,0,0.4,0.2,0.5,0.2
						c0.4,0.2,0.4,0.2,0.5,0.2c-0.4,0.4-0.9,0.9-1.1,0.9l-0.7,0.7c-0.5,0.5-0.7,0.9-0.7,0.9c0,0.2,0.2,0.2,0.2,0.2
						c0.2,0,0.2,0,0.2-0.2c0.2-0.4,0.4-0.5,0.7-0.5c0.2,0,0.4,0.2,0.5,0.4c0.1,0.2,0.4,0.4,0.5,0.4c0.7,0,1.1-0.9,1.1-1.1
						c0,0,0-0.2-0.2-0.2c-0.2,0-0.2,0-0.2,0.2c-0.2,0.5-0.7,0.7-0.9,0.7c-0.2,0-0.4,0-0.5-0.2c-0.4-0.2-0.4-0.2-0.5-0.2
						C-77.6,74.3-77.7,74.3-77.7,74.5"/>
				</g>
			</g>
		</g>
	</g>
	<g>
		<g>
			<g>
				<g>
					<defs>
						<rect id="SVGID_3_" x="-79.9" y="71.6" width="7.2" height="37.3"/>
					</defs>
					<clipPath id="SVGID_4_">
						<use xlink:href="#SVGID_3_"  overflow="visible"/>
					</clipPath>
					<path clip-path="url(#SVGID_4_)" d="M-74.1,76.1c-0.4,0-0.5-0.2-0.7-0.5c-0.2-0.4-0.2-0.7-0.2-1.1s0-0.7,0.2-1.1
						c0.2-0.4,0.5-0.5,0.7-0.5c0.4,0,0.5,0.2,0.7,0.5c0.2,0.4,0.2,0.7,0.2,1.1s0,0.7-0.2,1.1S-73.8,76.1-74.1,76.1 M-72.9,74.5
						c0-0.5-0.2-0.9-0.4-1.3c-0.2-0.4-0.5-0.5-0.9-0.5c-1.3,0-1.3,1.4-1.3,1.8s0,1.8,1.3,1.8C-72.9,76.3-72.9,74.9-72.9,74.5z"/>
				</g>
			</g>
		</g>
	</g>
	<g>
		<g>
			<g>
				<g>
					<defs>
						<rect id="SVGID_5_" x="-79.9" y="71.6" width="7.2" height="37.3"/>
					</defs>
					<clipPath id="SVGID_6_">
						<use xlink:href="#SVGID_5_"  overflow="visible"/>
					</clipPath>
					<path clip-path="url(#SVGID_6_)" d="M-77.2,83.6c0-0.2,0.2-0.9,0.7-0.9c0,0,0.2,0,0.4,0.2c-0.2,0-0.4,0.2-0.4,0.4
						c0,0.2,0.2,0.4,0.4,0.4s0.4-0.2,0.4-0.5c0-0.4-0.5-0.5-0.7-0.5c-0.5,0-0.7,0.4-0.7,0.5c-0.2-0.5-0.5-0.5-0.7-0.5
						c-0.7,0-1.3,0.9-1.3,1.1c0,0.2,0.2,0.2,0.2,0.2c0.2,0,0.2,0,0.2-0.2c0.4-0.7,0.7-0.9,1.1-0.9c0.2,0,0.4,0.2,0.4,0.5
						c0,0.2-0.2,0.7-0.4,1.8c-0.2,0.5-0.4,0.7-0.7,0.7c0,0-0.2,0-0.4-0.2c0.2,0,0.4-0.2,0.4-0.4c0-0.2-0.2-0.4-0.4-0.4
						c-0.2,0-0.4,0.2-0.4,0.5c0,0.4,0.4,0.5,0.7,0.5c0.5,0,0.7-0.5,0.7-0.5c0.2,0.4,0.4,0.5,0.7,0.5c0.7,0,1.3-0.9,1.3-1.1
						c0-0.2-0.2-0.2-0.2-0.2c-0.2,0-0.2,0-0.2,0.2c-0.4,0.7-0.7,0.9-0.9,0.9c-0.4,0-0.4-0.4-0.4-0.5c0-0.2,0-0.4,0.2-0.7L-77.2,83.6
						"/>
				</g>
			</g>
		</g>
	</g>
	<g>
		<g>
			<g>
				<g>
					<defs>
						<rect id="SVGID_7_" x="-79.9" y="71.6" width="7.2" height="37.3"/>
					</defs>
					<clipPath id="SVGID_8_">
						<use xlink:href="#SVGID_7_"  overflow="visible"/>
					</clipPath>
					<path clip-path="url(#SVGID_8_)" d="M-73.8,83.7c0-0.2,0-0.2-0.2-0.2c-0.4,0.4-0.9,0.4-1.1,0.4v0.2c0.2,0,0.5,0,0.7-0.2v2.5
						c0,0.2,0,0.4-0.5,0.4H-75V87c0.2,0,0.7,0,0.9,0c0.2,0,0.9,0,0.9,0v-0.2h-0.2c-0.5,0-0.5-0.2-0.5-0.4L-73.8,83.7"/>
				</g>
			</g>
		</g>
	</g>
	<g>
		<g>
			<g>
				<g>
					<defs>
						<rect id="SVGID_9_" x="-79.9" y="71.6" width="7.2" height="37.3"/>
					</defs>
					<clipPath id="SVGID_10_">
						<use xlink:href="#SVGID_9_"  overflow="visible"/>
					</clipPath>
					<path clip-path="url(#SVGID_10_)" d="M-77.2,94.4c0-0.2,0.2-0.9,0.7-0.9c0,0,0.2,0,0.4,0.2c-0.2,0-0.4,0.2-0.4,0.4
						c0,0.2,0.2,0.4,0.4,0.4s0.4-0.2,0.4-0.5c0-0.4-0.5-0.5-0.7-0.5c-0.5,0-0.7,0.4-0.7,0.5c-0.2-0.5-0.5-0.5-0.7-0.5
						c-0.7,0-1.3,0.9-1.3,1.1s0.2,0.2,0.2,0.2c0.2,0,0.2,0,0.2-0.2c0.4-0.7,0.7-0.9,1.1-0.9c0.2,0,0.4,0.2,0.4,0.5
						c0,0.2-0.2,0.7-0.4,1.8c-0.2,0.5-0.4,0.7-0.7,0.7c0,0-0.2,0-0.4-0.2c0.2,0,0.4-0.2,0.4-0.4s-0.2-0.4-0.4-0.4
						c-0.2,0-0.4,0.2-0.4,0.5c0,0.4,0.4,0.5,0.7,0.5c0.5,0,0.7-0.5,0.7-0.5c0.2,0.4,0.4,0.5,0.7,0.5c0.7,0,1.3-0.9,1.3-1.1
						c0-0.2-0.2-0.2-0.2-0.2c-0.2,0-0.2,0-0.2,0.2c-0.4,0.7-0.7,0.9-0.9,0.9c-0.4,0-0.4-0.4-0.4-0.5c0-0.1,0-0.4,0.2-0.7L-77.2,94.4
						"/>
				</g>
			</g>
		</g>
	</g>
	<g>
		<g>
			<g>
				<g>
					<defs>
						<rect id="SVGID_11_" x="-79.9" y="71.6" width="7.2" height="37.3"/>
					</defs>
					<clipPath id="SVGID_12_">
						<use xlink:href="#SVGID_11_"  overflow="visible"/>
					</clipPath>
					<path clip-path="url(#SVGID_12_)" d="M-72.9,96.8H-73c0,0.2-0.2,0.4-0.2,0.5h-0.5h-0.9c0.5-0.5,0.7-0.7,1.1-0.9
						c0.4-0.4,0.7-0.7,0.7-1.1c0-0.7-0.5-1.1-1.3-1.1c-0.8,0-1.1,0.5-1.1,0.9s0.2,0.4,0.4,0.4c0.2,0,0.4-0.2,0.4-0.4
						c0-0.2,0-0.4-0.4-0.4c0.2-0.4,0.5-0.5,0.7-0.5c0.5,0,0.7,0.4,0.7,0.9s-0.4,0.9-0.5,1.1l-1.3,1.3c-0.2,0-0.2,0.2-0.2,0.2h2.2
						v-0.9"/>
				</g>
			</g>
		</g>
	</g>
	<g>
		<g>
			<g>
				<g>
					<defs>
						<rect id="SVGID_13_" x="-79.9" y="71.6" width="7.2" height="37.3"/>
					</defs>
					<clipPath id="SVGID_14_">
						<use xlink:href="#SVGID_13_"  overflow="visible"/>
					</clipPath>
					<path clip-path="url(#SVGID_14_)" d="M-77.2,105.1c0-0.2,0.2-0.9,0.7-0.9c0,0,0.2,0,0.4,0.2c-0.2,0-0.4,0.2-0.4,0.4
						s0.2,0.4,0.4,0.4s0.4-0.2,0.4-0.5c0-0.4-0.5-0.5-0.7-0.5c-0.5,0-0.7,0.4-0.7,0.5c-0.2-0.5-0.5-0.5-0.7-0.5
						c-0.7,0-1.3,0.9-1.3,1.1s0.2,0.2,0.2,0.2c0.2,0,0.2,0,0.2-0.2c0.4-0.7,0.7-0.9,1.1-0.9c0.2,0,0.4,0.2,0.4,0.5
						c0,0.2-0.2,0.7-0.4,1.8c-0.2,0.5-0.4,0.7-0.7,0.7c0,0-0.2,0-0.4-0.2c0.2,0,0.4-0.2,0.4-0.4s-0.2-0.4-0.4-0.4
						c-0.2,0-0.4,0.2-0.4,0.5c0,0.4,0.4,0.5,0.7,0.5c0.5,0,0.7-0.5,0.7-0.5c0.2,0.4,0.4,0.5,0.7,0.5c0.7,0,1.3-0.9,1.3-1.1
						c0-0.2-0.2-0.2-0.2-0.2c-0.2,0-0.2,0-0.2,0.2c-0.4,0.7-0.7,0.9-0.9,0.9c-0.4,0-0.4-0.4-0.4-0.5c0-0.1,0-0.4,0.2-0.7
						L-77.2,105.1"/>
				</g>
			</g>
		</g>
	</g>
	<g>
		<g>
			<g>
				<g>
					<defs>
						<rect id="SVGID_15_" x="-79.9" y="71.6" width="7.2" height="37.3"/>
					</defs>
					<clipPath id="SVGID_16_">
						<use xlink:href="#SVGID_15_"  overflow="visible"/>
					</clipPath>
					<path clip-path="url(#SVGID_16_)" d="M-74.1,106.8c0.4,0,0.7,0.4,0.7,0.9c0,0.7-0.4,0.9-0.7,0.9c-0.2,0-0.7-0.2-0.9-0.4
						c0.4,0,0.4-0.2,0.4-0.4c0-0.2-0.2-0.4-0.4-0.4c-0.2,0-0.4,0.2-0.4,0.4c0,0.5,0.5,0.9,1.1,0.9c0.7,0,1.3-0.5,1.3-1.1
						c0-0.4-0.4-0.9-0.9-0.9c0.5-0.2,0.7-0.5,0.7-0.9c0-0.4-0.5-0.7-1.1-0.7c-0.5,0-1.1,0.4-1.1,0.7c0,0.2,0.2,0.4,0.4,0.4
						c0.2,0,0.4-0.2,0.4-0.4s-0.2-0.4-0.4-0.4c0.2-0.2,0.5-0.4,0.7-0.4c0.2,0,0.5,0.2,0.5,0.5c0,0.2-0.2,0.5-0.2,0.7
						c-0.2,0.2-0.4,0.2-0.5,0.2s-0.2,0-0.2,0s-0.2,0-0.2,0.2s0.2,0.2,0.2,0.2L-74.1,106.8"/>
				</g>
			</g>
		</g>
	</g>
</g>
<g>
	<g>
		<g>
			<g>
				<defs>
					<rect id="SVGID_17_" x="67.4" y="72.5" width="6.5" height="26.8"/>
				</defs>
				<clipPath id="SVGID_18_">
					<use xlink:href="#SVGID_17_"  overflow="visible"/>
				</clipPath>
				<path clip-path="url(#SVGID_18_)" d="M70.8,94.8c0-0.2,0-0.2,0-0.2l-0.2-0.2c-0.2,0-0.2,0-0.4,0.2L70.1,95
					c-0.2,0.2-0.2,0.4-0.2,0.5l-0.4,1.3c0,0.2-0.4,0.7-0.9,0.7c-0.4,0-0.5-0.4-0.5-0.5c0-0.4,0.2-0.7,0.4-1.4
					c0.2-0.4,0.2-0.4,0.2-0.5c0-0.4-0.4-0.5-0.5-0.5c-0.7,0-0.9,1.1-0.9,1.1l0.2,0.2c0.2,0,0.2,0,0.2-0.2c0.2-0.7,0.5-0.9,0.7-0.9
					c0.2,0,0.2,0,0.2,0.4c0,0.2-0.2,0.4-0.2,0.5c-0.4,0.7-0.5,1.3-0.5,1.4c0,0.7,0.5,0.9,0.9,0.9s0.5-0.2,0.7-0.4
					c-0.2,0.4-0.2,0.7-0.5,1.1c-0.2,0.4-0.5,0.5-0.9,0.5c-0.2,0-0.5,0-0.5-0.4c0.2,0,0.2,0,0.4-0.2c0.2-0.2,0.2-0.2,0.2-0.4
					c0-0.2-0.2-0.4-0.4-0.4c-0.2,0-0.4,0.2-0.4,0.5c0,0.4,0.4,0.7,0.7,0.7c0.7,0,1.4-0.7,1.6-1.4L70.8,94.8"/>
			</g>
		</g>
	</g>
</g>
<g>
	<g>
		<g>
			<g>
				<defs>
					<rect id="SVGID_19_" x="67.4" y="72.5" width="6.5" height="26.8"/>
				</defs>
				<clipPath id="SVGID_20_">
					<use xlink:href="#SVGID_19_"  overflow="visible"/>
				</clipPath>
				<path clip-path="url(#SVGID_20_)" d="M72.1,96.9c0.4,0,0.7,0.4,0.7,0.9c0,0.7-0.4,0.9-0.7,0.9c-0.2,0-0.7-0.2-0.9-0.4
					c0.4,0,0.4-0.2,0.4-0.4s-0.2-0.4-0.4-0.4s-0.4,0.2-0.4,0.4c0,0.5,0.5,0.9,1.1,0.9c0.7,0,1.3-0.5,1.3-1.1c0-0.4-0.4-0.9-0.9-0.9
					c0.5-0.2,0.7-0.5,0.7-0.9c0-0.4-0.5-0.7-1.1-0.7s-1.1,0.4-1.1,0.7c0,0.2,0.2,0.4,0.4,0.4s0.4-0.2,0.4-0.4c0-0.2-0.2-0.4-0.4-0.4
					c0.2-0.2,0.5-0.4,0.7-0.4s0.5,0.2,0.5,0.5c0,0.2-0.2,0.5-0.2,0.7c0,0,0,0-0.4,0c-0.2,0-0.2,0-0.2,0s-0.2,0-0.2,0.2
					c0,0.2,0.2,0.2,0.2,0.2h0.5"/>
			</g>
		</g>
	</g>
</g>
<text transform="matrix(1 0 0 1 -51.3398 82.415)" font-family="'ArialMT'" font-size="7.2171">RNN</text>
<text transform="matrix(1 0 0 1 -12.5483 92.9423)" font-family="'ArialMT'" font-size="7.2171">RNN</text>
<text transform="matrix(1 0 0 1 29.3994 103.6171)" font-family="'ArialMT'" font-size="7.2171">RNN</text>
</svg>
