<svg id="Layer_1" data-name="Layer 1" xmlns="http://www.w3.org/2000/svg" xmlns:xlink="http://www.w3.org/1999/xlink" viewBox="0 0 338.37 262.5"><defs><style>.cls-1,.cls-2{fill:none;}.cls-2{stroke:#ec2327;}.cls-2,.cls-3{stroke-miterlimit:10;}.cls-3{fill:#fff;stroke:#231f20;}.cls-4{clip-path:url(#clip-path);}</style><clipPath id="clip-path"><rect class="cls-1" x="132.55" y="98.6" width="27.74" height="14"/></clipPath></defs><title>cavity_network</title><line class="cls-2" x1="214.81" y1="120.52" x2="392.15" y2="147.53"/><line class="cls-2" x1="215.03" y1="122.38" x2="392.15" y2="83.52"/><line class="cls-2" x1="29.57" y1="30.06" x2="73.83" y2="86.64"/><line class="cls-2" x1="147.75" y1="107.38" x2="72.54" y2="85.46"/><line class="cls-2" x1="215.03" y1="122.38" x2="147.75" y2="107.38"/><line class="cls-2" x1="213.53" y1="122.38" x2="222.1" y2="235.01"/><line class="cls-2" x1="221.64" y1="233.31" x2="146.43" y2="211.39"/><line class="cls-2" x1="215.03" y1="122.38" x2="310.39" y2="172.68"/><line class="cls-2" x1="310.39" y1="172.68" x2="306.87" y2="236.98"/><line class="cls-2" x1="213.53" y1="122.38" x2="224.65" y2="46.09"/><line class="cls-2" x1="224.65" y1="46.09" x2="301.11" y2="52.27"/><line class="cls-2" x1="72.54" y1="85.46" x2="30.83" y2="158.54"/><line class="cls-2" x1="214.81" y1="120.52" x2="387.41" y2="116.64"/><circle class="cls-3" cx="73.09" cy="83.51" r="22.09"/><path d="M68.21,78.05c.14-.58.17-.73,1.33-.73.42,0,.54,0,.54-.32s-.17-.18-.22-.18c-.44,0-1.59.05-2,.05s-1.59-.05-2-.05c-.13,0-.3,0-.3.32s.14.18.44.18c0,0,.33,0,.6,0s.43.05.43.25a1.18,1.18,0,0,1-.06.3l-1,3.88H61.09L62,78.05c.14-.58.19-.73,1.33-.73.41,0,.54,0,.54-.32s-.17-.18-.22-.18c-.45,0-1.59.05-2,.05s-1.59-.05-2-.05c-.12,0-.3,0-.3.32s.14.18.45.18c0,0,.33,0,.6,0s.43.05.43.25a1.11,1.11,0,0,1-.06.3l-2.13,8.54c-.16.62-.19.75-1.45.75-.29,0-.43,0-.43.31s.19.18.22.18c.45,0,1.58-.05,2-.05l1,0c.35,0,.7,0,1,0,.13,0,.32,0,.32-.32,0-.17-.14-.17-.44-.17-.59,0-1,0-1-.29a1.41,1.41,0,0,1,.05-.27L61,82.27h4.85c-.67,2.64-1,4.15-1.1,4.39-.16.51-.46.53-1.44.53-.24,0-.39,0-.39.31s.2.18.23.18c.44,0,1.57-.05,2-.05l1,0c.35,0,.7,0,1,0,.12,0,.31,0,.31-.32,0-.17-.14-.17-.44-.17-.59,0-1,0-1-.29,0-.09,0-.17,0-.27l2.15-8.58"/><path d="M73.62,85.63a.51.51,0,0,0-.31.49.5.5,0,0,0,.52.52.51.51,0,0,0,.54-.54c0-1-1.55-1-1.86-1a2.62,2.62,0,0,0-2.72,2.57,2.59,2.59,0,0,0,2.66,2.52,2,2,0,0,0,2-1.45c0-.13-.14-.13-.19-.13s-.15,0-.21.19a1.53,1.53,0,0,1-1.52,1c-.77,0-1.77-.57-1.77-2.17,0-1.42.69-2.2,1.73-2.2a3,3,0,0,1,1.08.17"/><path d="M79.08,88.51a1.37,1.37,0,0,1-1.44,1.37A1,1,0,0,1,76.53,89c0-.61.54-1.47,2.55-1.55v1.11M80,87.09a1.51,1.51,0,0,0-.52-1.43,2.45,2.45,0,0,0-1.65-.56c-1.06,0-1.8.41-1.8,1.08a.53.53,0,1,0,1.06,0,.52.52,0,0,0-.39-.52,2.18,2.18,0,0,1,1.11-.28,1.27,1.27,0,0,1,1.31,1.35v.35a6.62,6.62,0,0,0-2.17.36c-1,.37-1.31,1-1.31,1.48,0,1,1.16,1.24,2,1.24a1.81,1.81,0,0,0,1.65-.94.88.88,0,0,0,.86.88,1.06,1.06,0,0,0,1.1-1.06v-.61h-.38v.6c0,.12,0,.65-.41.65S80,89.19,80,89Z"/><path d="M86.27,86.36a1.08,1.08,0,0,1,1-.69v-.4c-.28,0-.57,0-.85,0s-.71,0-1,0v.4a.42.42,0,0,1,.46.43.73.73,0,0,1-.09.32l-1.26,2.76-1.38-3a.71.71,0,0,1-.07-.21c0-.26.38-.26.57-.26v-.4s-.81,0-1.27,0-.77,0-1.09,0v.4c.61,0,.75,0,.91.4L84,90a.3.3,0,0,0,.31.23c.21,0,.25-.1.31-.22l1.64-3.61"/><circle class="cls-3" cx="29.37" cy="154.42" r="22.09"/><path d="M22,148.09c.15-.58.18-.74,1.34-.74.41,0,.54,0,.54-.31s-.17-.18-.22-.18c-.45,0-1.59,0-2,0s-1.59,0-2,0c-.12,0-.3,0-.3.32,0,.17.14.17.45.17a4.58,4.58,0,0,1,.6,0c.29,0,.43,0,.43.25a2.32,2.32,0,0,1-.06.3l-1,3.88H14.84l.94-3.73c.15-.58.19-.74,1.34-.74.41,0,.54,0,.54-.31s-.18-.18-.22-.18c-.45,0-1.59,0-2,0s-1.59,0-2.05,0c-.13,0-.3,0-.3.32,0,.17.14.17.44.17a4.61,4.61,0,0,1,.61,0c.28,0,.43,0,.43.25a1.47,1.47,0,0,1-.07.3l-2.13,8.54c-.16.62-.19.75-1.44.75-.29,0-.43,0-.43.31s.19.18.22.18c.45,0,1.57-.05,2-.05l1,0c.35,0,.7,0,1,0,.13,0,.32,0,.32-.32s-.15-.17-.45-.17c-.59,0-1,0-1-.29a1.17,1.17,0,0,1,.05-.27l1.08-4.36h4.84c-.66,2.64-1,4.15-1.09,4.39-.16.51-.46.53-1.45.53-.24,0-.38,0-.38.31s.19.18.22.18c.45,0,1.58-.05,2-.05l1,0c.35,0,.7,0,1,0,.13,0,.32,0,.32-.32s-.14-.17-.44-.17c-.59,0-1,0-1-.29a1.17,1.17,0,0,1,.05-.27L22,148.09"/><path d="M25.44,152.38l-1.68.12v.4c.75,0,.84.08.84.62v5.72c0,.48-.11.48-.84.48v.4s.81-.05,1.25-.05.84,0,1.26.05v-.4c-.72,0-.83,0-.83-.48v-6.86"/><path d="M30.83,158.54a1.37,1.37,0,0,1-1.44,1.38,1,1,0,0,1-1.1-.93c0-.61.53-1.47,2.54-1.55v1.1m.88-1.41a1.52,1.52,0,0,0-.51-1.43,2.46,2.46,0,0,0-1.65-.56c-1.06,0-1.81.4-1.81,1.08a.52.52,0,0,0,.54.55.5.5,0,0,0,.52-.52.52.52,0,0,0-.39-.52,2.21,2.21,0,0,1,1.12-.28,1.27,1.27,0,0,1,1.3,1.35v.35a6.32,6.32,0,0,0-2.16.36c-1,.37-1.32,1-1.32,1.48,0,1,1.16,1.24,1.95,1.24a1.82,1.82,0,0,0,1.66-.94.88.88,0,0,0,.85.88,1.06,1.06,0,0,0,1.11-1.06v-.61h-.38v.6c0,.11,0,.65-.41.65s-.42-.52-.42-.67Z"/><path d="M37.27,155.43c0-.19,0-.29-.16-.29s-.08,0-.22.14a1.72,1.72,0,0,0-.2.16,2.08,2.08,0,0,0-1.18-.3c-1.59,0-2,.84-2,1.4a1.14,1.14,0,0,0,.42.87,2.73,2.73,0,0,0,1.54.55c.56.1,1.46.26,1.46,1,0,.43-.3.95-1.37.95a1.64,1.64,0,0,1-1.66-1.47c0-.14,0-.18-.2-.18s-.19.07-.19.3v1.37c0,.19,0,.29.16.29s.31-.24.53-.48a1.94,1.94,0,0,0,1.36.48c1.45,0,2-.78,2-1.57a1.36,1.36,0,0,0-.48-1,2.47,2.47,0,0,0-1.33-.55c-.89-.15-1.62-.29-1.62-.88,0-.36.31-.79,1.36-.79,1.3,0,1.35.9,1.38,1.23,0,.12.14.12.19.12s.19-.08.19-.29v-1"/><path d="M39.6,157.28c.12-1.57,1.13-1.83,1.55-1.83,1.37,0,1.42,1.55,1.43,1.83h-3m3.45.29c.23,0,.31,0,.31-.24a2.06,2.06,0,0,0-2.21-2.19,2.55,2.55,0,0,0-2.58,2.53,2.66,2.66,0,0,0,2.73,2.56,2,2,0,0,0,2.06-1.45c0-.05,0-.16-.19-.16s-.17.07-.2.18a1.69,1.69,0,0,1-1.6,1.07,1.72,1.72,0,0,1-1.36-.66,2.59,2.59,0,0,1-.42-1.64Z"/><path d="M46,157.57c0-.93.43-2.06,1.49-2.06a.51.51,0,0,0-.19.4.51.51,0,1,0,1,0,.8.8,0,0,0-.88-.71,1.66,1.66,0,0,0-1.51,1.19h0V155.2l-1.59.12v.4c.74,0,.83.08.83.63v2.89c0,.48-.11.48-.83.48v.4c.05,0,.81-.05,1.27-.05s1,0,1.45.05v-.4h-.23c-.82,0-.82-.13-.82-.51v-1.64"/><circle class="cls-3" cx="224.65" cy="46.09" r="22.09"/><path d="M223.4,41.34c.15-.58.18-.74,1.34-.74.41,0,.54,0,.54-.31s-.18-.18-.22-.18c-.45,0-1.59,0-2,0s-1.59,0-2.05,0c-.12,0-.3,0-.3.32s.14.17.45.17a4.58,4.58,0,0,1,.6,0c.28,0,.43,0,.43.25a1.64,1.64,0,0,1-.07.3l-1,3.88h-4.85l.94-3.73c.14-.58.19-.74,1.34-.74.41,0,.54,0,.54-.31s-.18-.18-.23-.18c-.44,0-1.59,0-2,0s-1.59,0-2.05,0c-.13,0-.3,0-.3.32s.14.17.44.17a4.7,4.7,0,0,1,.61,0c.28,0,.43,0,.43.25a1.47,1.47,0,0,1-.07.3l-2.13,8.54c-.16.62-.19.75-1.45.75-.28,0-.42,0-.42.31s.19.18.22.18c.44,0,1.57,0,2,0l1,0c.35,0,.7,0,1,0,.13,0,.32,0,.32-.32s-.15-.17-.45-.17c-.59,0-1,0-1-.29a2.19,2.19,0,0,1,0-.27l1.09-4.36H221c-.66,2.64-1,4.15-1.09,4.39-.16.51-.46.53-1.45.53-.24,0-.38,0-.38.31s.19.18.22.18c.45,0,1.57,0,2,0l1,0c.35,0,.7,0,1,0,.13,0,.32,0,.32-.32s-.14-.17-.45-.17c-.59,0-1,0-1-.29a1.17,1.17,0,0,1,0-.27l2.14-8.58"/><path d="M230.9,46.85a2.2,2.2,0,0,1-1,1.85,3,3,0,0,0-1-.14c-.39,0-1,0-1,.42s.35.33.92.33a3.73,3.73,0,0,0,1.06-.16,1.43,1.43,0,0,1,.51,1.18A2.62,2.62,0,0,1,228,53.15a1.36,1.36,0,0,1-1.48-1.4,1.12,1.12,0,0,1,0-.32l.73-3c.27-1.06,1.25-2.65,2.55-2.65a1,1,0,0,1,1.11,1m-1.47,2.08a2.21,2.21,0,0,1-.57.07,1.78,1.78,0,0,1-.52,0,1.38,1.38,0,0,1,.52-.08A2.17,2.17,0,0,1,229.43,48.93Zm2.21-1.88a1.65,1.65,0,0,0-1.83-1.55c-1.53,0-2.66,1.74-2.94,2.87l-1.75,7c0,.08.09.13.16.13s.19,0,.21-.08l.75-3a1.74,1.74,0,0,0,1.67,1c1.56,0,3.33-1.13,3.33-2.84a2,2,0,0,0-.87-1.69A2.41,2.41,0,0,0,231.64,47.05Z"/><path d="M234.94,49.91c0-.23,0-.23-.29-.23a2.54,2.54,0,0,1-1.6.5h-.14v.35h.14a3.12,3.12,0,0,0,1.16-.22v4c0,.25,0,.34-.84.34H233V55c.44,0,1.14,0,1.6,0s1.17,0,1.61,0v-.35h-.4c-.84,0-.84-.09-.84-.34V49.91"/><circle class="cls-3" cx="310.39" cy="172.68" r="22.09"/><path d="M307.55,168.06c.14-.58.17-.74,1.33-.74.41,0,.54,0,.54-.31s-.17-.18-.22-.18c-.45,0-1.59,0-2,0s-1.59,0-2.05,0c-.12,0-.3,0-.3.32,0,.17.14.17.45.17a4.58,4.58,0,0,1,.6,0c.29,0,.43,0,.43.25a2.32,2.32,0,0,1-.06.3l-1,3.88h-4.85l.94-3.73c.15-.58.19-.74,1.34-.74.41,0,.54,0,.54-.31s-.18-.18-.22-.18c-.45,0-1.59,0-2,0s-1.59,0-2.05,0c-.13,0-.3,0-.3.32,0,.17.14.17.44.17a4.61,4.61,0,0,1,.61,0c.28,0,.43,0,.43.25a1.47,1.47,0,0,1-.07.3l-2.13,8.54c-.16.62-.19.75-1.44.75-.29,0-.43,0-.43.31s.19.18.22.18c.45,0,1.57-.05,2-.05l1,0c.35,0,.7,0,1,0,.13,0,.32,0,.32-.32s-.15-.17-.45-.17c-.59,0-1,0-1-.29a1.17,1.17,0,0,1,.05-.27l1.08-4.36h4.85c-.67,2.64-1,4.15-1.1,4.39-.16.51-.46.53-1.45.53-.24,0-.38,0-.38.31s.19.18.22.18c.45,0,1.58-.05,2-.05l1,0c.35,0,.7,0,1,0,.13,0,.32,0,.32-.32s-.14-.17-.44-.17c-.59,0-1,0-1-.29a1.17,1.17,0,0,1,0-.27l2.15-8.58"/><path d="M315,173.57a2.2,2.2,0,0,1-1,1.85,3,3,0,0,0-1.05-.14c-.39,0-.94,0-.94.42s.34.33.91.33a3.73,3.73,0,0,0,1.06-.16,1.43,1.43,0,0,1,.51,1.18,2.62,2.62,0,0,1-2.46,2.82,1.35,1.35,0,0,1-1.47-1.4,1.66,1.66,0,0,1,0-.32l.73-3c.27-1.06,1.25-2.65,2.55-2.65a1,1,0,0,1,1.11,1m-1.47,2.08a2.15,2.15,0,0,1-.57.07,1.82,1.82,0,0,1-.52-.05,1.38,1.38,0,0,1,.52-.08A2.12,2.12,0,0,1,313.57,175.65Zm2.21-1.88a1.65,1.65,0,0,0-1.83-1.55c-1.53,0-2.65,1.74-2.93,2.87l-1.75,7c0,.08.08.13.15.13s.19,0,.21-.08l.75-3a1.75,1.75,0,0,0,1.67,1c1.57,0,3.33-1.13,3.33-2.84a2,2,0,0,0-.87-1.69A2.39,2.39,0,0,0,315.78,173.77Z"/><path d="M320.6,180.15h-.33c0,.15-.11.65-.23.73a5.84,5.84,0,0,1-.86,0h-1.55c.52-.38,1.11-.83,1.59-1.15.71-.49,1.38-1,1.38-1.79,0-1-1-1.58-2.1-1.58s-1.86.61-1.86,1.39a.46.46,0,0,0,.46.49.47.47,0,0,0,0-.94,1.4,1.4,0,0,1,1.21-.6,1.28,1.28,0,0,1,1.42,1.24,2.36,2.36,0,0,1-1.07,1.7l-1.94,1.64c-.08.07-.09.07-.1.13v.24h3.7l.26-1.54"/><circle class="cls-3" cx="220.58" cy="234.43" r="22.09"/><path d="M218.63,228c.14-.57.17-.73,1.33-.73.42,0,.54,0,.54-.32,0-.17-.17-.17-.22-.17-.44,0-1.59.05-2,.05s-1.59-.05-2.05-.05c-.13,0-.31,0-.31.32s.15.17.45.17c0,0,.33,0,.6,0s.43,0,.43.26a1.36,1.36,0,0,1-.06.3l-.95,3.88h-4.85l.93-3.74c.15-.57.2-.73,1.34-.73.41,0,.54,0,.54-.32,0-.17-.17-.17-.22-.17-.45,0-1.59.05-2,.05s-1.59-.05-2.05-.05c-.12,0-.3,0-.3.32s.14.17.45.17c0,0,.33,0,.6,0s.43,0,.43.26a2,2,0,0,1-.06.3L209,236.37c-.16.62-.19.74-1.45.74-.29,0-.43,0-.43.32s.19.18.22.18c.45,0,1.58-.05,2-.05h1c.35,0,.7,0,1,0,.13,0,.32,0,.32-.32s-.14-.18-.44-.18c-.59,0-1,0-1-.28a1.17,1.17,0,0,1,.05-.27l1.08-4.36h4.85c-.67,2.64-1,4.15-1.1,4.39-.16.51-.46.52-1.44.52-.24,0-.39,0-.39.32s.19.18.23.18c.44,0,1.57-.05,2-.05h1c.35,0,.7,0,1,0,.13,0,.32,0,.32-.32s-.14-.18-.44-.18c-.59,0-1,0-1-.28a2.19,2.19,0,0,1,0-.27l2.15-8.59"/><path d="M226.13,233.49a2.19,2.19,0,0,1-1,1.85,3,3,0,0,0-1-.14c-.39,0-.95,0-.95.42s.34.32.91.32a3.67,3.67,0,0,0,1.06-.15,1.41,1.41,0,0,1,.52,1.18,2.63,2.63,0,0,1-2.47,2.82,1.35,1.35,0,0,1-1.47-1.4,1.76,1.76,0,0,1,0-.33l.74-3c.27-1.06,1.25-2.65,2.54-2.65a1,1,0,0,1,1.12,1m-1.48,2.07a1.66,1.66,0,0,1-.56.08,1.89,1.89,0,0,1-.53,0,1.43,1.43,0,0,1,.53-.08A2.59,2.59,0,0,1,224.65,235.56Zm2.21-1.87a1.65,1.65,0,0,0-1.83-1.55c-1.53,0-2.65,1.74-2.93,2.87l-1.75,7c0,.07.09.13.15.13s.19,0,.21-.08l.75-3a1.74,1.74,0,0,0,1.68,1c1.56,0,3.32-1.13,3.32-2.84a2,2,0,0,0-.87-1.69A2.4,2.4,0,0,0,226.86,233.69Z"/><path d="M229.62,239a1.24,1.24,0,0,1,0,2.47,2.39,2.39,0,0,1-1.44-.41.46.46,0,0,0,.42-.48.49.49,0,1,0-1,0c0,.83.93,1.21,2,1.21,1.3,0,2.11-.79,2.11-1.56s-.58-1.21-1.49-1.41c1-.31,1.21-.92,1.21-1.36,0-.65-.81-1.14-1.81-1.14s-1.77.42-1.77,1.13a.45.45,0,0,0,.46.47.44.44,0,0,0,.45-.45.44.44,0,0,0-.38-.46,1.89,1.89,0,0,1,1.22-.39c.58,0,1,.3,1,.84a1.2,1.2,0,0,1-1.14,1.23l-.46,0c-.09,0-.17,0-.17.13s.08.14.22.14h.52"/><circle class="cls-3" cx="146.43" cy="105.6" r="22.09"/><g class="cls-4"><path d="M144.38,100.27c.15-.58.18-.74,1.34-.74.41,0,.54,0,.54-.31S146.08,99,146,99c-.44,0-1.58,0-2,0s-1.59,0-2.05,0c-.13,0-.3,0-.3.32s.14.17.44.17a4.61,4.61,0,0,1,.61,0c.28,0,.43,0,.43.25a1.64,1.64,0,0,1-.07.3l-.95,3.88h-4.85l.94-3.73c.14-.58.19-.74,1.33-.74.42,0,.55,0,.55-.31s-.18-.18-.23-.18c-.44,0-1.59,0-2,0s-1.59,0-2,0c-.13,0-.3,0-.3.32s.14.17.44.17a4.58,4.58,0,0,1,.6,0c.29,0,.43,0,.43.25a1.18,1.18,0,0,1-.06.3l-2.13,8.54c-.16.62-.19.75-1.45.75-.28,0-.42,0-.42.31s.19.18.22.18c.44,0,1.57-.05,2-.05l1,0c.35,0,.7,0,1,0,.12,0,.31,0,.31-.32,0-.17-.14-.17-.44-.17-.59,0-1,0-1-.29a2.19,2.19,0,0,1,0-.27l1.08-4.36H142c-.67,2.64-1,4.15-1.1,4.39-.15.51-.46.53-1.44.53-.24,0-.38,0-.38.31s.19.18.22.18c.45,0,1.57-.05,2-.05l1,0c.35,0,.7,0,1,0,.13,0,.32,0,.32-.32,0-.17-.15-.17-.45-.17-.59,0-1,0-1-.29a1.17,1.17,0,0,1,.05-.27l2.14-8.58"/><path d="M146.11,107.5v.4c.71,0,.81.07.81.62v2.9c0,.48-.12.48-.84.48v.4s.8,0,1.25,0a11.64,11.64,0,0,1,1.18,0v-.4c-.65,0-.76,0-.76-.47v-4.05l-1.64.12m1.7-2.09a.64.64,0,0,0-.65-.63.64.64,0,0,0,0,1.28A.64.64,0,0,0,147.81,105.41Z"/><path d="M154.8,108.92c0-1-.48-1.54-1.67-1.54a2,2,0,0,0-1.82,1.08h0v-1.08l-1.64.12v.4c.74,0,.83.08.83.63v2.89c0,.48-.11.48-.83.48v.4s.8,0,1.27,0,1.18,0,1.28,0v-.4c-.72,0-.83,0-.83-.48v-2a1.66,1.66,0,0,1,1.66-1.72c.78,0,.88.61.88,1.18v2.55c0,.48-.11.48-.84.48v.4s.81,0,1.27,0,1.19,0,1.29,0v-.4c-.73,0-.84,0-.84-.48v-2.5"/><path d="M158,107.89h1.74v-.4H158v-2h-.38c0,1-.47,2.1-1.54,2.14v.31h1v3a1.41,1.41,0,0,0,1.56,1.51,1.35,1.35,0,0,0,1.26-1.52v-.61h-.38v.6c0,.76-.36,1.17-.79,1.17-.77,0-.77-.94-.77-1.14v-3"/></g><circle class="cls-3" cx="30.8" cy="28.16" r="22.09"/><path d="M22.65,24.93c1.61-.35,3.5-1.46,3.5-3.06,0-1.37-1.43-2.39-3.52-2.39H18.1c-.31,0-.46,0-.46.32,0,.17.15.17.45.17a4.58,4.58,0,0,1,.6,0c.29,0,.43,0,.43.25a1.18,1.18,0,0,1-.06.3L16.93,29.1c-.16.62-.19.75-1.45.75-.28,0-.43,0-.43.31s.19.18.23.18c.44,0,1.55-.05,2-.05s1.57.05,2,.05c.12,0,.31,0,.31-.32,0-.17-.14-.17-.44-.17-.59,0-1,0-1-.29a2.19,2.19,0,0,1,0-.27l1.05-4.21h1.9c1.44,0,1.73.89,1.73,1.44a5.86,5.86,0,0,1-.23,1.1A7.25,7.25,0,0,0,22.38,29c0,1.72,1.91,1.72,2.11,1.72,1.36,0,1.91-1.61,1.91-1.83a.18.18,0,0,0-.19-.19c-.14,0-.17.11-.21.22-.39,1.18-1.08,1.45-1.44,1.45-.53,0-.64-.35-.64-1s.1-1.31.16-1.81a6.54,6.54,0,0,0,.07-.75,2.07,2.07,0,0,0-1.5-1.88m-2.29-4.35c.1-.38.14-.54.45-.59.14,0,.65,0,1,0,1.12,0,2.89,0,2.89,1.58a3.64,3.64,0,0,1-.87,2.25,3.69,3.69,0,0,1-2.69.93H19.33Z"/><path d="M30.84,28.29a.53.53,0,0,0,.21,1,.51.51,0,0,0,.54-.55c0-1-1.55-1-1.86-1A2.62,2.62,0,0,0,27,30.33a2.59,2.59,0,0,0,2.66,2.52,2,2,0,0,0,2-1.45c0-.13-.14-.13-.19-.13s-.15,0-.21.18a1.52,1.52,0,0,1-1.52,1c-.77,0-1.77-.57-1.77-2.17,0-1.42.69-2.2,1.73-2.2a3,3,0,0,1,1.08.17"/><path d="M36.3,31.16a1.37,1.37,0,0,1-1.44,1.38,1,1,0,0,1-1.11-.93c0-.61.54-1.47,2.55-1.55v1.1m.88-1.41a1.51,1.51,0,0,0-.52-1.43A2.45,2.45,0,0,0,35,27.76c-1.06,0-1.8.4-1.8,1.08a.53.53,0,1,0,1.06,0,.52.52,0,0,0-.39-.52A2.18,2.18,0,0,1,35,28.07a1.27,1.27,0,0,1,1.31,1.35v.35a6.37,6.37,0,0,0-2.17.36c-1,.37-1.31,1-1.31,1.48,0,1,1.16,1.24,2,1.24a1.81,1.81,0,0,0,1.65-.94.88.88,0,0,0,.86.88,1.06,1.06,0,0,0,1.1-1.06v-.61H38v.6c0,.11,0,.65-.41.65s-.41-.52-.41-.67Z"/><path d="M43.49,29a1.08,1.08,0,0,1,1-.69v-.4c-.28,0-.57,0-.85,0s-.71,0-1,0v.4a.42.42,0,0,1,.46.42.73.73,0,0,1-.09.33l-1.26,2.75-1.38-3a.71.71,0,0,1-.07-.21c0-.26.38-.26.57-.26v-.4s-.81,0-1.27,0-.77,0-1.09,0v.4c.61,0,.75,0,.91.4l1.77,3.88a.3.3,0,0,0,.31.24c.21,0,.25-.1.31-.22L43.49,29"/><circle class="cls-3" cx="301.11" cy="52.27" r="22.09"/><path d="M294.94,51.55c1.6-.35,3.49-1.47,3.49-3.07,0-1.37-1.43-2.39-3.51-2.39h-4.53c-.32,0-.46,0-.46.32s.14.18.45.18c0,0,.33,0,.6,0s.43.05.43.25a1.5,1.5,0,0,1-.07.31l-2.13,8.53c-.15.62-.19.75-1.44.75-.29,0-.43,0-.43.32s.19.17.22.17c.45,0,1.56-.05,2-.05s1.58.05,2,.05c.13,0,.32,0,.32-.32s-.14-.17-.44-.17c-.59,0-1,0-1-.29a1.41,1.41,0,0,1,.05-.27l1-4.21h1.89c1.45,0,1.73.89,1.73,1.45a5.66,5.66,0,0,1-.22,1.09,7.56,7.56,0,0,0-.25,1.35c0,1.72,1.9,1.72,2.11,1.72,1.35,0,1.91-1.61,1.91-1.83a.18.18,0,0,0-.19-.19c-.15,0-.18.11-.21.22-.4,1.18-1.08,1.45-1.45,1.45s-.63-.35-.63-1a16.2,16.2,0,0,1,.16-1.81,6.32,6.32,0,0,0,.06-.75,2.05,2.05,0,0,0-1.49-1.87m-2.29-4.36c.09-.38.14-.54.44-.59h1c1.13,0,2.89,0,2.89,1.57a3.63,3.63,0,0,1-.87,2.26,3.69,3.69,0,0,1-2.68.92h-1.79Z"/><path d="M305.11,52.73a2.21,2.21,0,0,1-1,1.86,2.7,2.7,0,0,0-1.05-.15c-.39,0-.95,0-.95.43s.35.32.92.32a3.73,3.73,0,0,0,1.06-.16,1.46,1.46,0,0,1,.51,1.19A2.62,2.62,0,0,1,302.16,59a1.36,1.36,0,0,1-1.48-1.41,1.65,1.65,0,0,1,0-.32l.73-3c.27-1.06,1.25-2.64,2.55-2.64a1,1,0,0,1,1.11,1m-1.47,2.08a2.05,2.05,0,0,1-.57.08,1.48,1.48,0,0,1-.52-.06,1.59,1.59,0,0,1,.52-.07A2.69,2.69,0,0,1,303.64,54.81Zm2.21-1.87A1.65,1.65,0,0,0,304,51.38c-1.53,0-2.66,1.75-2.93,2.87l-1.76,7c0,.08.09.13.16.13s.19,0,.21-.07l.75-3a1.74,1.74,0,0,0,1.67,1c1.56,0,3.33-1.13,3.33-2.83a2,2,0,0,0-.87-1.7A2.37,2.37,0,0,0,305.85,52.94Z"/><path d="M309.15,55.8c0-.24,0-.24-.29-.24a2.51,2.51,0,0,1-1.6.51h-.14v.35h.14a3.19,3.19,0,0,0,1.16-.23v4c0,.24,0,.33-.84.33h-.4v.35c.44,0,1.14,0,1.6,0s1.17,0,1.61,0V60.5H310c-.84,0-.84-.09-.84-.33V55.8"/><circle class="cls-3" cx="305.11" cy="237.62" r="22.09"/><path d="M300.72,234.17c1.6-.34,3.49-1.46,3.49-3.06,0-1.37-1.43-2.39-3.51-2.39h-4.53c-.32,0-.46,0-.46.32s.14.18.45.18c0,0,.33,0,.6,0s.43.05.43.25a1.34,1.34,0,0,1-.07.3L295,238.34c-.16.62-.2.75-1.45.75-.29,0-.43,0-.43.31s.19.18.22.18c.45,0,1.56-.05,2-.05s1.57.05,2,.05c.13,0,.32,0,.32-.32,0-.17-.14-.17-.44-.17-.59,0-1,0-1-.29,0-.09,0-.17.05-.27l1.05-4.21h1.89c1.45,0,1.73.89,1.73,1.45a5.66,5.66,0,0,1-.22,1.09,7.56,7.56,0,0,0-.25,1.35c0,1.72,1.9,1.72,2.11,1.72,1.35,0,1.91-1.61,1.91-1.83a.18.18,0,0,0-.19-.19c-.15,0-.18.11-.21.22-.4,1.18-1.08,1.45-1.45,1.45s-.63-.35-.63-1a16.2,16.2,0,0,1,.16-1.81,6.49,6.49,0,0,0,.06-.75,2.06,2.06,0,0,0-1.49-1.88m-2.29-4.35c.09-.38.14-.54.44-.59h1c1.13,0,2.9,0,2.9,1.57a3.65,3.65,0,0,1-.88,2.26,3.69,3.69,0,0,1-2.68.92H297.4Z"/><path d="M310.89,235.46a2.21,2.21,0,0,1-1,1.86,2.7,2.7,0,0,0-1.05-.15c-.39,0-.94,0-.94.43s.34.32.91.32a3.73,3.73,0,0,0,1.06-.16,1.45,1.45,0,0,1,.51,1.19,2.62,2.62,0,0,1-2.46,2.82,1.35,1.35,0,0,1-1.47-1.41,1.66,1.66,0,0,1,0-.32l.73-3c.27-1.06,1.25-2.64,2.55-2.64a1,1,0,0,1,1.11,1m-1.47,2.08a2.05,2.05,0,0,1-.57.08,1.48,1.48,0,0,1-.52-.06,1.61,1.61,0,0,1,.52-.08A2.62,2.62,0,0,1,309.42,237.54Zm2.21-1.87a1.65,1.65,0,0,0-1.83-1.56c-1.53,0-2.65,1.74-2.93,2.87l-1.75,7c0,.08.08.13.15.13s.19,0,.21-.07l.75-3a1.75,1.75,0,0,0,1.67,1c1.57,0,3.33-1.13,3.33-2.83a2,2,0,0,0-.87-1.7A2.39,2.39,0,0,0,311.63,235.67Z"/><path d="M316.45,242h-.33c0,.15-.11.64-.23.72a4.69,4.69,0,0,1-.86.05h-1.55c.52-.39,1.11-.84,1.59-1.16.71-.49,1.38-.95,1.38-1.79,0-1-1-1.58-2.1-1.58s-1.86.62-1.86,1.4a.46.46,0,0,0,.46.48.45.45,0,0,0,.47-.47.47.47,0,0,0-.45-.47,1.4,1.4,0,0,1,1.21-.59,1.28,1.28,0,0,1,1.42,1.24,2.36,2.36,0,0,1-1.07,1.69l-1.94,1.64c-.08.08-.09.08-.1.13v.24h3.7l.26-1.53"/><circle class="cls-3" cx="149.66" cy="209.5" r="22.09"/><path d="M144.41,208.08c1.6-.34,3.5-1.46,3.5-3.06,0-1.37-1.43-2.39-3.52-2.39h-4.53c-.31,0-.46,0-.46.32s.15.18.45.18c0,0,.33,0,.6,0s.43.05.43.25a1.8,1.8,0,0,1-.06.3l-2.13,8.54c-.16.62-.19.75-1.45.75-.28,0-.43,0-.43.31s.19.18.22.18c.45,0,1.56-.05,2-.05s1.57.05,2,.05c.12,0,.31,0,.31-.32,0-.17-.14-.17-.44-.17-.59,0-1,0-1-.29,0-.09,0-.17.05-.27l1.05-4.21h1.89c1.45,0,1.74.89,1.74,1.45a5.78,5.78,0,0,1-.23,1.09,7.56,7.56,0,0,0-.25,1.35c0,1.72,1.91,1.72,2.11,1.72,1.35,0,1.91-1.61,1.91-1.83a.18.18,0,0,0-.19-.19c-.14,0-.18.11-.21.22-.4,1.18-1.08,1.45-1.44,1.45-.53,0-.64-.35-.64-1s.1-1.3.16-1.81a6.49,6.49,0,0,0,.06-.75,2.06,2.06,0,0,0-1.49-1.88m-2.29-4.35c.1-.38.14-.54.44-.59h1c1.13,0,2.9,0,2.9,1.57a3.65,3.65,0,0,1-.88,2.26,3.69,3.69,0,0,1-2.68.92h-1.78Z"/><path d="M154.58,209.37a2.18,2.18,0,0,1-1,1.86,2.68,2.68,0,0,0-1-.15c-.4,0-.95,0-.95.43s.34.32.91.32a3.73,3.73,0,0,0,1.06-.16,1.42,1.42,0,0,1,.51,1.19,2.62,2.62,0,0,1-2.46,2.82,1.35,1.35,0,0,1-1.47-1.41,1.66,1.66,0,0,1,0-.32l.74-3c.26-1.06,1.25-2.64,2.54-2.64a1,1,0,0,1,1.11,1m-1.47,2.08a2,2,0,0,1-.57.08,1.51,1.51,0,0,1-.52-.06,1.61,1.61,0,0,1,.52-.08A2.62,2.62,0,0,1,153.11,211.45Zm2.21-1.87a1.65,1.65,0,0,0-1.83-1.56c-1.53,0-2.65,1.74-2.93,2.87l-1.75,7c0,.08.09.13.15.13s.19,0,.21-.07l.75-3a1.75,1.75,0,0,0,1.68,1c1.56,0,3.32-1.13,3.32-2.83a2,2,0,0,0-.87-1.7A2.39,2.39,0,0,0,155.32,209.58Z"/><path d="M158.08,214.86a1.24,1.24,0,0,1,0,2.48,2.39,2.39,0,0,1-1.44-.41.49.49,0,1,0-.55-.47c0,.82.93,1.2,2,1.2,1.31,0,2.12-.78,2.12-1.55s-.58-1.21-1.49-1.42c1-.31,1.21-.91,1.21-1.36,0-.65-.81-1.13-1.81-1.13s-1.77.41-1.77,1.13a.44.44,0,0,0,.46.46.44.44,0,0,0,.45-.45.44.44,0,0,0-.38-.45,1.82,1.82,0,0,1,1.21-.39c.58,0,1,.29,1,.83a1.2,1.2,0,0,1-1.14,1.23l-.46,0c-.09,0-.18,0-.18.13s.08.14.23.14h.52"/><circle class="cls-3" cx="213.53" cy="122.38" r="22.09"/><path d="M204.22,122.32c.15-.16.15-.23.15-.26a.46.46,0,0,0-.11-.22l-3.26-4.7h3.67c2.69,0,3.48.57,3.81,3.08h.4l-.44-3.58h-8.83c-.38,0-.41,0-.41.37l4,5.75-3.78,4.31c-.16.17-.16.21-.16.25s.16.18.39.18h8.83l.44-3.75h-.4c-.28,2.65-1.36,3.08-3.86,3.08h-4.39l4-4.51"/><path d="M214.15,125.45a.51.51,0,0,0-.31.49.5.5,0,0,0,.52.52.51.51,0,0,0,.54-.54c0-1-1.55-1-1.87-1a2.62,2.62,0,0,0-2.71,2.57A2.59,2.59,0,0,0,213,130a2,2,0,0,0,2.05-1.45c0-.13-.14-.13-.19-.13s-.15,0-.21.19a1.54,1.54,0,0,1-1.52,1c-.77,0-1.77-.57-1.77-2.17,0-1.42.69-2.2,1.73-2.2a3,3,0,0,1,1.08.17"/><path d="M219.61,128.32a1.37,1.37,0,0,1-1.44,1.38,1,1,0,0,1-1.11-.93c0-.61.54-1.47,2.55-1.55v1.1m.88-1.41a1.51,1.51,0,0,0-.52-1.43,2.45,2.45,0,0,0-1.65-.56c-1.06,0-1.8.4-1.8,1.08a.53.53,0,1,0,1.06,0,.52.52,0,0,0-.4-.52,2.23,2.23,0,0,1,1.12-.28,1.27,1.27,0,0,1,1.31,1.35v.35a6.62,6.62,0,0,0-2.17.36c-1,.37-1.31,1-1.31,1.48,0,1,1.15,1.24,2,1.24a1.81,1.81,0,0,0,1.65-.94.88.88,0,0,0,.86.88,1.06,1.06,0,0,0,1.1-1.06v-.61h-.38v.6c0,.11,0,.65-.41.65s-.41-.52-.41-.67Z"/><path d="M226.8,126.18a1.08,1.08,0,0,1,1-.69v-.4c-.28,0-.57,0-.85,0s-.71,0-1,0v.4c.47,0,.47.39.47.43a.73.73,0,0,1-.09.32L225.1,129l-1.38-3a.71.71,0,0,1-.07-.21c0-.26.38-.26.57-.26v-.4s-.81,0-1.27,0-.77,0-1.09,0v.4c.61,0,.75,0,.91.4l1.76,3.88a.32.32,0,0,0,.32.24c.21,0,.25-.1.31-.22l1.64-3.61"/></svg>