<?xml version="1.0" encoding="utf-8"?>
<!-- Generator: Adobe Illustrator 18.0.0, SVG Export Plug-In . SVG Version: 6.00 Build 0)  -->
<!DOCTYPE svg PUBLIC "-//W3C//DTD SVG 1.1//EN" "http://www.w3.org/Graphics/SVG/1.1/DTD/svg11.dtd">
<svg version="1.1" id="Layer_1" xmlns="http://www.w3.org/2000/svg" xmlns:xlink="http://www.w3.org/1999/xlink" x="0px" y="0px"
	 viewBox="0 0 362.981 332.212" enable-background="new 0 0 362.981 332.212" xml:space="preserve">
<g>
	<line fill="none" stroke="#EC2327" stroke-miterlimit="10" x1="47.532" y1="177.322" x2="144.843" y2="130.372"/>
	<line fill="none" stroke="#EC2327" stroke-miterlimit="10" x1="172.891" y1="28.733" x2="144.843" y2="130.372"/>
	<line fill="none" stroke="#EC2327" stroke-miterlimit="10" x1="172.891" y1="28.733" x2="241.282" y2="147.894"/>
	<line fill="none" stroke="#EC2327" stroke-miterlimit="10" x1="144.843" y1="130.372" x2="166.935" y2="227.481"/>
	<line fill="none" stroke="#EC2327" stroke-miterlimit="10" x1="241.282" y1="147.894" x2="166.935" y2="227.481"/>
	<line fill="none" stroke="#EC2327" stroke-miterlimit="10" x1="241.282" y1="147.894" x2="311.911" y2="195.708"/>
	<line fill="none" stroke="#EC2327" stroke-miterlimit="10" x1="166.935" y1="227.481" x2="238.217" y2="302.16"/>
	<line fill="none" stroke="#EC2327" stroke-miterlimit="10" x1="241.282" y1="147.894" x2="293.25" y2="58.574"/>
	<line fill="none" stroke="#EC2327" stroke-miterlimit="10" x1="293.25" y1="58.574" x2="438.96" y2="-18.529"/>
	<line fill="none" stroke="#EC2327" stroke-miterlimit="10" x1="311.911" y1="195.708" x2="448.779" y2="166.059"/>
	<line fill="none" stroke="#EC2327" stroke-miterlimit="10" x1="238.217" y1="302.16" x2="410.814" y2="298.281"/>
	<line fill="none" stroke="#EC2327" stroke-miterlimit="10" x1="47.532" y1="177.322" x2="-120.692" y2="171.801"/>
	<line fill="none" stroke="#EC2327" stroke-miterlimit="10" x1="172.891" y1="28.733" x2="7.602" y2="-18.529"/>
	<line fill="none" stroke="#EC2327" stroke-miterlimit="10" x1="166.935" y1="227.481" x2="12.184" y2="313.99"/>
	<line fill="none" stroke="#EC2327" stroke-miterlimit="10" x1="144.843" y1="130.372" x2="241.282" y2="147.894"/>
</g>
<g>
	<circle fill="#FFFFFF" stroke="#000000" stroke-miterlimit="10" cx="144.843" cy="130.372" r="22.092"/>
	<circle fill="#FFFFFF" stroke="#000000" stroke-miterlimit="10" cx="241.282" cy="147.894" r="22.092"/>
	<circle fill="#FFFFFF" stroke="#000000" stroke-miterlimit="10" cx="47.532" cy="177.322" r="22.092"/>
	<circle fill="#FFFFFF" stroke="#000000" stroke-miterlimit="10" cx="166.935" cy="227.481" r="22.092"/>
	<circle fill="#FFFFFF" stroke="#000000" stroke-miterlimit="10" cx="172.891" cy="28.733" r="22.092"/>
	<circle fill="#FFFFFF" stroke="#000000" stroke-miterlimit="10" cx="293.25" cy="58.574" r="22.092"/>
	<circle fill="#FFFFFF" stroke="#000000" stroke-miterlimit="10" cx="311.911" cy="195.708" r="22.092"/>
	<circle fill="#FFFFFF" stroke="#000000" stroke-miterlimit="10" cx="238.217" cy="302.16" r="22.092"/>
</g>
<g>
	<path d="M162.208,27.023c1.344,0.155,1.616,1.051,1.616,1.791c0,0.585-0.146,1.626-1.616,1.801V27.023 M161.4,30.607
		c-1.384-0.185-1.558-1.18-1.558-1.783c0-0.505,0.097-1.596,1.558-1.791V30.607z M162.208,30.831c1.51-0.117,2.59-1.023,2.59-2.007
		c0-1.012-1.109-1.898-2.59-2.015v-0.545c0-0.331,0-0.467,0.925-0.467h0.322v-0.302c-0.351,0.029-1.247,0.029-1.647,0.029
		c-0.4,0-1.304,0-1.655-0.029v0.302h0.322c0.925,0,0.925,0.127,0.925,0.467v0.545c-1.49,0.147-2.532,1.043-2.532,2.006
		c0,1.004,1.081,1.87,2.532,2.016v0.545c0,0.332,0,0.467-0.925,0.467h-0.322v0.302c0.351-0.029,1.247-0.029,1.647-0.029
		c0.398,0,1.304,0,1.655,0.029v-0.302h-0.322c-0.925,0-0.925-0.127-0.925-0.467V30.831z"/>
	<path d="M167.648,29.249c0-0.186-0.014-0.193-0.205-0.193c-0.44,0.432-1.065,0.439-1.347,0.439v0.248c0.165,0,0.619,0,0.996-0.193
		v3.503c0,0.225,0,0.315-0.687,0.315h-0.26v0.248c0.124-0.007,0.969-0.028,1.223-0.028c0.212,0,1.077,0.021,1.228,0.028v-0.248
		h-0.26c-0.687,0-0.687-0.09-0.687-0.315V29.249"/>
	<path d="M172.982,34.482c0-0.029,0-0.048-0.165-0.215c-1.218-1.226-1.529-3.067-1.529-4.557c0-1.695,0.37-3.388,1.567-4.606
		c0.126-0.116,0.126-0.136,0.126-0.166c0-0.068-0.038-0.097-0.097-0.097c-0.097,0-0.974,0.663-1.548,1.899
		c-0.497,1.071-0.614,2.153-0.614,2.97c0,0.76,0.107,1.938,0.643,3.038c0.585,1.198,1.422,1.831,1.519,1.831
		C172.943,34.579,172.982,34.55,172.982,34.482"/>
	<path d="M177.102,26.146c0-0.263-0.225-0.515-0.517-0.515c-0.331,0-0.526,0.273-0.526,0.515c0,0.263,0.225,0.517,0.517,0.517
		C176.907,26.663,177.102,26.39,177.102,26.146"/>
	<path d="M176.769,29.204c0.059-0.252,0.282-1.149,0.964-1.149c0.05,0,0.283,0,0.488,0.126c-0.273,0.049-0.467,0.292-0.467,0.526
		c0,0.156,0.107,0.341,0.37,0.341c0.213,0,0.526-0.175,0.526-0.565c0-0.506-0.576-0.642-0.906-0.642
		c-0.564,0-0.905,0.515-1.022,0.74c-0.244-0.643-0.77-0.74-1.052-0.74c-1.012,0-1.567,1.256-1.567,1.5
		c0,0.097,0.097,0.097,0.116,0.097c0.078,0,0.107-0.02,0.126-0.107c0.332-1.032,0.974-1.275,1.306-1.275
		c0.185,0,0.526,0.087,0.526,0.652c0,0.301-0.166,0.955-0.526,2.318c-0.156,0.604-0.497,1.012-0.925,1.012
		c-0.059,0-0.282,0-0.486-0.127c0.243-0.048,0.457-0.252,0.457-0.526c0-0.263-0.214-0.341-0.36-0.341
		c-0.292,0-0.536,0.252-0.536,0.564c0,0.448,0.488,0.643,0.915,0.643c0.643,0,0.994-0.681,1.022-0.74
		c0.117,0.36,0.468,0.74,1.052,0.74c1.003,0,1.558-1.256,1.558-1.5c0-0.096-0.088-0.096-0.117-0.096
		c-0.087,0-0.106,0.038-0.126,0.107c-0.32,1.042-0.983,1.275-1.294,1.275c-0.38,0-0.536-0.312-0.536-0.642
		c0-0.215,0.059-0.429,0.166-0.858L176.769,29.204"/>
	<path d="M181.048,32.134c0-0.641-0.244-1.022-0.624-1.022c-0.32,0-0.516,0.243-0.516,0.517c0,0.263,0.195,0.515,0.516,0.515
		c0.117,0,0.244-0.039,0.341-0.127c0.029-0.019,0.04-0.029,0.05-0.029c0.009,0,0.019,0.011,0.019,0.145
		c0,0.721-0.341,1.306-0.662,1.626c-0.107,0.107-0.107,0.127-0.107,0.156c0,0.069,0.049,0.107,0.097,0.107
		C180.269,34.024,181.048,33.275,181.048,32.134"/>
	<path d="M186.653,29.204c0.059-0.252,0.282-1.149,0.964-1.149c0.05,0,0.283,0,0.488,0.126c-0.273,0.049-0.467,0.292-0.467,0.526
		c0,0.156,0.107,0.341,0.37,0.341c0.213,0,0.526-0.175,0.526-0.565c0-0.506-0.576-0.642-0.906-0.642
		c-0.564,0-0.905,0.515-1.022,0.74c-0.244-0.643-0.77-0.74-1.052-0.74c-1.012,0-1.567,1.256-1.567,1.5
		c0,0.097,0.097,0.097,0.116,0.097c0.078,0,0.107-0.02,0.126-0.107c0.332-1.032,0.974-1.275,1.306-1.275
		c0.185,0,0.526,0.087,0.526,0.652c0,0.301-0.166,0.955-0.526,2.318c-0.156,0.604-0.497,1.012-0.925,1.012
		c-0.059,0-0.282,0-0.486-0.127c0.243-0.048,0.457-0.252,0.457-0.526c0-0.263-0.214-0.341-0.36-0.341
		c-0.292,0-0.536,0.252-0.536,0.564c0,0.448,0.488,0.643,0.915,0.643c0.643,0,0.994-0.681,1.022-0.74
		c0.117,0.36,0.468,0.74,1.052,0.74c1.003,0,1.558-1.256,1.558-1.5c0-0.096-0.088-0.096-0.117-0.096
		c-0.087,0-0.106,0.038-0.126,0.107c-0.32,1.042-0.983,1.275-1.294,1.275c-0.38,0-0.536-0.312-0.536-0.642
		c0-0.215,0.059-0.429,0.166-0.858L186.653,29.204"/>
	<path d="M191.852,29.711c0-0.759-0.107-1.938-0.643-3.039c-0.583-1.198-1.422-1.831-1.519-1.831c-0.059,0-0.097,0.04-0.097,0.097
		c0,0.029,0,0.05,0.185,0.225c0.953,0.964,1.509,2.512,1.509,4.548c0,1.665-0.36,3.379-1.567,4.606
		c-0.126,0.118-0.126,0.136-0.126,0.166c0,0.059,0.038,0.097,0.097,0.097c0.097,0,0.974-0.663,1.548-1.898
		C191.735,31.609,191.852,30.529,191.852,29.711"/>
</g>
<g>
	<path d="M282.266,56.268c1.344,0.155,1.616,1.051,1.616,1.791c0,0.585-0.146,1.626-1.616,1.801V56.268 M281.458,59.852
		c-1.384-0.185-1.558-1.18-1.558-1.783c0-0.505,0.097-1.596,1.558-1.791V59.852z M282.266,60.076c1.51-0.117,2.59-1.023,2.59-2.007
		c0-1.012-1.109-1.898-2.59-2.015v-0.545c0-0.331,0-0.467,0.925-0.467h0.322v-0.302c-0.351,0.029-1.247,0.029-1.647,0.029
		c-0.4,0-1.305,0-1.656-0.029v0.302h0.322c0.925,0,0.925,0.127,0.925,0.467v0.545c-1.49,0.147-2.532,1.043-2.532,2.006
		c0,1.004,1.081,1.87,2.532,2.016v0.545c0,0.332,0,0.467-0.925,0.467h-0.322v0.302c0.351-0.029,1.247-0.029,1.647-0.029
		c0.398,0,1.304,0,1.655,0.029v-0.302h-0.322c-0.925,0-0.925-0.127-0.925-0.467V60.076z"/>
	<path d="M288.874,61.611h-0.234c-0.02,0.151-0.089,0.557-0.179,0.624c-0.055,0.042-0.583,0.042-0.68,0.042h-1.264
		c0.721-0.64,0.962-0.831,1.373-1.154c0.508-0.404,0.983-0.831,0.983-1.483c0-0.831-0.729-1.339-1.607-1.339
		c-0.851,0-1.428,0.597-1.428,1.229c0,0.35,0.295,0.385,0.364,0.385c0.165,0,0.364-0.116,0.364-0.364
		c0-0.123-0.048-0.364-0.405-0.364c0.213-0.488,0.679-0.638,1.002-0.638c0.687,0,1.044,0.535,1.044,1.091
		c0,0.597-0.426,1.071-0.646,1.318l-1.654,1.634c-0.069,0.062-0.069,0.075-0.069,0.268h2.829L288.874,61.611"/>
	<path d="M293.04,63.727c0-0.029,0-0.048-0.165-0.215c-1.218-1.226-1.529-3.067-1.529-4.557c0-1.695,0.37-3.388,1.567-4.606
		c0.126-0.116,0.126-0.136,0.126-0.166c0-0.068-0.038-0.097-0.097-0.097c-0.097,0-0.974,0.662-1.548,1.899
		c-0.497,1.071-0.614,2.153-0.614,2.97c0,0.76,0.107,1.938,0.643,3.038c0.585,1.198,1.422,1.831,1.519,1.831
		C293.002,63.824,293.04,63.795,293.04,63.727"/>
	<path d="M297.161,55.391c0-0.263-0.225-0.515-0.517-0.515c-0.331,0-0.526,0.273-0.526,0.515c0,0.263,0.225,0.517,0.517,0.517
		C296.965,55.908,297.161,55.635,297.161,55.391"/>
	<path d="M296.828,58.449c0.059-0.252,0.282-1.149,0.964-1.149c0.05,0,0.283,0,0.488,0.126c-0.273,0.049-0.467,0.292-0.467,0.526
		c0,0.156,0.107,0.341,0.37,0.341c0.213,0,0.526-0.175,0.526-0.565c0-0.506-0.576-0.642-0.906-0.642
		c-0.564,0-0.905,0.515-1.022,0.74c-0.244-0.643-0.77-0.74-1.052-0.74c-1.012,0-1.567,1.256-1.567,1.5
		c0,0.097,0.097,0.097,0.116,0.097c0.078,0,0.107-0.02,0.126-0.107c0.332-1.032,0.974-1.275,1.306-1.275
		c0.185,0,0.526,0.087,0.526,0.652c0,0.301-0.166,0.955-0.526,2.318c-0.156,0.604-0.497,1.012-0.925,1.012
		c-0.059,0-0.282,0-0.486-0.127c0.243-0.048,0.457-0.252,0.457-0.526c0-0.263-0.214-0.341-0.36-0.341
		c-0.292,0-0.536,0.252-0.536,0.564c0,0.448,0.488,0.643,0.915,0.643c0.643,0,0.994-0.681,1.022-0.74
		c0.117,0.36,0.468,0.74,1.052,0.74c1.003,0,1.558-1.256,1.558-1.5c0-0.096-0.088-0.096-0.117-0.096
		c-0.087,0-0.106,0.038-0.126,0.107c-0.32,1.042-0.983,1.275-1.294,1.275c-0.38,0-0.536-0.312-0.536-0.642
		c0-0.215,0.059-0.429,0.166-0.858L296.828,58.449"/>
	<path d="M301.107,61.379c0-0.641-0.244-1.022-0.624-1.022c-0.32,0-0.516,0.243-0.516,0.517c0,0.263,0.195,0.515,0.516,0.515
		c0.117,0,0.244-0.039,0.341-0.127c0.029-0.019,0.04-0.029,0.05-0.029c0.009,0,0.019,0.011,0.019,0.145
		c0,0.721-0.341,1.306-0.662,1.626c-0.107,0.107-0.107,0.127-0.107,0.156c0,0.069,0.049,0.107,0.097,0.107
		C300.327,63.269,301.107,62.52,301.107,61.379"/>
	<path d="M306.712,58.449c0.059-0.252,0.282-1.149,0.964-1.149c0.05,0,0.283,0,0.488,0.126c-0.273,0.049-0.467,0.292-0.467,0.526
		c0,0.156,0.107,0.341,0.37,0.341c0.213,0,0.526-0.175,0.526-0.565c0-0.506-0.576-0.642-0.906-0.642
		c-0.564,0-0.905,0.515-1.022,0.74c-0.244-0.643-0.77-0.74-1.052-0.74c-1.012,0-1.567,1.256-1.567,1.5
		c0,0.097,0.097,0.097,0.116,0.097c0.078,0,0.107-0.02,0.126-0.107c0.332-1.032,0.974-1.275,1.306-1.275
		c0.185,0,0.526,0.087,0.526,0.652c0,0.301-0.166,0.955-0.526,2.318c-0.156,0.604-0.497,1.012-0.925,1.012
		c-0.059,0-0.282,0-0.486-0.127c0.243-0.048,0.457-0.252,0.457-0.526c0-0.263-0.214-0.341-0.36-0.341
		c-0.292,0-0.536,0.252-0.536,0.564c0,0.448,0.488,0.643,0.915,0.643c0.643,0,0.994-0.681,1.022-0.74
		c0.117,0.36,0.468,0.74,1.052,0.74c1.003,0,1.558-1.256,1.558-1.5c0-0.096-0.088-0.096-0.117-0.096
		c-0.087,0-0.106,0.038-0.126,0.107c-0.32,1.042-0.983,1.275-1.294,1.275c-0.38,0-0.536-0.312-0.536-0.642
		c0-0.215,0.059-0.429,0.166-0.858L306.712,58.449"/>
	<path d="M311.911,58.956c0-0.759-0.107-1.938-0.643-3.039c-0.583-1.198-1.422-1.831-1.519-1.831c-0.059,0-0.097,0.04-0.097,0.097
		c0,0.029,0,0.05,0.185,0.225c0.953,0.964,1.509,2.512,1.509,4.548c0,1.665-0.36,3.379-1.567,4.606
		c-0.126,0.118-0.126,0.136-0.126,0.166c0,0.059,0.038,0.097,0.097,0.097c0.097,0,0.974-0.662,1.548-1.898
		C311.793,60.854,311.911,59.774,311.911,58.956"/>
</g>
<g>
	<path d="M298.759,193.021c1.344,0.156,1.616,1.052,1.616,1.792c0,0.585-0.146,1.626-1.616,1.801V193.021 M297.951,196.605
		c-1.384-0.185-1.558-1.179-1.558-1.783c0-0.505,0.097-1.597,1.558-1.791V196.605z M298.759,196.828
		c1.51-0.116,2.59-1.022,2.59-2.006c0-1.012-1.109-1.898-2.59-2.015v-0.545c0-0.331,0-0.467,0.925-0.467h0.322v-0.302
		c-0.351,0.029-1.247,0.029-1.647,0.029c-0.4,0-1.304,0-1.655-0.029v0.302h0.322c0.925,0,0.925,0.127,0.925,0.467v0.545
		c-1.49,0.147-2.532,1.043-2.532,2.006c0,1.003,1.081,1.87,2.532,2.015v0.545c0,0.332,0,0.467-0.925,0.467h-0.322v0.303
		c0.351-0.029,1.247-0.029,1.647-0.029c0.398,0,1.305,0,1.656,0.029v-0.303h-0.322c-0.925,0-0.925-0.126-0.925-0.467V196.828z"/>
	<path d="M303.774,197.32c0.535,0,0.919,0.371,0.919,1.105c0,0.851-0.494,1.105-0.892,1.105c-0.274,0-0.878-0.075-1.167-0.48
		c0.322-0.014,0.398-0.24,0.398-0.384c0-0.221-0.165-0.378-0.378-0.378c-0.193,0-0.385,0.116-0.385,0.398
		c0,0.645,0.715,1.064,1.546,1.064c0.955,0,1.613-0.639,1.613-1.326c0-0.535-0.439-1.071-1.195-1.229
		c0.721-0.26,0.982-0.775,0.982-1.195c0-0.542-0.624-0.947-1.386-0.947s-1.347,0.371-1.347,0.92c0,0.234,0.152,0.364,0.357,0.364
		c0.213,0,0.35-0.158,0.35-0.35c0-0.199-0.137-0.343-0.35-0.357c0.24-0.302,0.714-0.378,0.967-0.378c0.31,0,0.742,0.151,0.742,0.748
		c0,0.288-0.096,0.605-0.275,0.818c-0.226,0.26-0.419,0.274-0.762,0.295c-0.171,0.014-0.185,0.014-0.219,0.02
		c-0.014,0-0.069,0.014-0.069,0.089c0,0.096,0.062,0.096,0.179,0.096H303.774"/>
	<path d="M309.533,200.48c0-0.029,0-0.048-0.165-0.214c-1.218-1.227-1.529-3.067-1.529-4.557c0-1.695,0.37-3.389,1.567-4.607
		c0.126-0.116,0.126-0.136,0.126-0.166c0-0.068-0.038-0.097-0.097-0.097c-0.097,0-0.974,0.663-1.548,1.9
		c-0.497,1.071-0.614,2.152-0.614,2.97c0,0.759,0.107,1.938,0.643,3.038c0.585,1.197,1.422,1.83,1.519,1.83
		C309.494,200.577,309.533,200.548,309.533,200.48"/>
	<path d="M313.653,192.144c0-0.263-0.225-0.515-0.517-0.515c-0.331,0-0.526,0.273-0.526,0.515c0,0.263,0.225,0.517,0.517,0.517
		C313.458,192.661,313.653,192.388,313.653,192.144"/>
	<path d="M313.32,195.202c0.059-0.253,0.282-1.149,0.964-1.149c0.05,0,0.283,0,0.488,0.126c-0.273,0.049-0.467,0.292-0.467,0.526
		c0,0.156,0.107,0.341,0.37,0.341c0.213,0,0.526-0.175,0.526-0.565c0-0.505-0.576-0.642-0.906-0.642
		c-0.564,0-0.905,0.516-1.022,0.74c-0.244-0.643-0.77-0.74-1.052-0.74c-1.012,0-1.567,1.256-1.567,1.5
		c0,0.097,0.097,0.097,0.116,0.097c0.078,0,0.107-0.019,0.126-0.107c0.332-1.031,0.974-1.275,1.306-1.275
		c0.185,0,0.526,0.087,0.526,0.652c0,0.301-0.166,0.955-0.526,2.318c-0.156,0.604-0.497,1.012-0.925,1.012
		c-0.059,0-0.282,0-0.486-0.126c0.243-0.049,0.457-0.253,0.457-0.526c0-0.263-0.214-0.341-0.36-0.341
		c-0.292,0-0.536,0.253-0.536,0.564c0,0.448,0.488,0.643,0.915,0.643c0.643,0,0.994-0.682,1.022-0.74
		c0.117,0.36,0.468,0.74,1.052,0.74c1.003,0,1.558-1.256,1.558-1.5c0-0.097-0.088-0.097-0.117-0.097
		c-0.087,0-0.106,0.038-0.126,0.107c-0.32,1.042-0.983,1.275-1.294,1.275c-0.38,0-0.536-0.311-0.536-0.642
		c0-0.214,0.059-0.429,0.166-0.858L313.32,195.202"/>
	<path d="M317.6,198.133c0-0.642-0.244-1.022-0.624-1.022c-0.32,0-0.516,0.244-0.516,0.517c0,0.263,0.195,0.516,0.516,0.516
		c0.117,0,0.244-0.04,0.341-0.126c0.029-0.019,0.04-0.029,0.05-0.029c0.009,0,0.019,0.01,0.019,0.145
		c0,0.721-0.341,1.306-0.662,1.626c-0.107,0.107-0.107,0.128-0.107,0.156c0,0.069,0.049,0.107,0.097,0.107
		C316.82,200.022,317.6,199.273,317.6,198.133"/>
	<path d="M323.204,195.202c0.059-0.253,0.282-1.149,0.964-1.149c0.05,0,0.283,0,0.488,0.126c-0.273,0.049-0.467,0.292-0.467,0.526
		c0,0.156,0.107,0.341,0.37,0.341c0.213,0,0.526-0.175,0.526-0.565c0-0.505-0.576-0.642-0.906-0.642
		c-0.564,0-0.905,0.516-1.022,0.74c-0.244-0.643-0.77-0.74-1.052-0.74c-1.012,0-1.567,1.256-1.567,1.5
		c0,0.097,0.097,0.097,0.116,0.097c0.078,0,0.107-0.019,0.126-0.107c0.332-1.031,0.974-1.275,1.306-1.275
		c0.185,0,0.526,0.087,0.526,0.652c0,0.301-0.166,0.955-0.526,2.318c-0.156,0.604-0.496,1.012-0.925,1.012
		c-0.059,0-0.282,0-0.486-0.126c0.243-0.049,0.457-0.253,0.457-0.526c0-0.263-0.214-0.341-0.36-0.341
		c-0.292,0-0.536,0.253-0.536,0.564c0,0.448,0.488,0.643,0.915,0.643c0.643,0,0.994-0.682,1.022-0.74
		c0.117,0.36,0.468,0.74,1.052,0.74c1.003,0,1.558-1.256,1.558-1.5c0-0.097-0.088-0.097-0.117-0.097
		c-0.087,0-0.106,0.038-0.126,0.107c-0.32,1.042-0.983,1.275-1.294,1.275c-0.38,0-0.536-0.311-0.536-0.642
		c0-0.214,0.059-0.429,0.166-0.858L323.204,195.202"/>
	<path d="M328.403,195.709c0-0.759-0.107-1.938-0.643-3.039c-0.583-1.198-1.422-1.831-1.519-1.831c-0.059,0-0.097,0.04-0.097,0.097
		c0,0.029,0,0.05,0.185,0.225c0.953,0.964,1.509,2.512,1.509,4.548c0,1.664-0.36,3.379-1.567,4.605
		c-0.126,0.117-0.126,0.137-0.126,0.166c0,0.059,0.038,0.097,0.097,0.097c0.097,0,0.974-0.663,1.548-1.898
		C328.286,197.607,328.403,196.527,328.403,195.709"/>
</g>
<g>
	<path d="M226.154,299.134c1.344,0.156,1.616,1.052,1.616,1.792c0,0.585-0.146,1.626-1.616,1.801V299.134 M225.346,302.718
		c-1.384-0.185-1.558-1.179-1.558-1.783c0-0.505,0.097-1.597,1.558-1.791V302.718z M226.154,302.941
		c1.51-0.116,2.59-1.022,2.59-2.006c0-1.012-1.109-1.898-2.59-2.015v-0.545c0-0.331,0-0.467,0.925-0.467h0.322v-0.302
		c-0.351,0.029-1.247,0.029-1.647,0.029s-1.304,0-1.655-0.029v0.302h0.322c0.925,0,0.925,0.126,0.925,0.467v0.545
		c-1.49,0.147-2.532,1.043-2.532,2.006c0,1.003,1.081,1.87,2.532,2.015v0.545c0,0.332,0,0.467-0.925,0.467h-0.322v0.302
		c0.351-0.029,1.247-0.029,1.647-0.029c0.398,0,1.304,0,1.656,0.029v-0.302h-0.322c-0.925,0-0.925-0.126-0.925-0.467V302.941z"/>
	<path d="M231.628,301.84v2.513h-1.812L231.628,301.84z M232.926,304.601v-0.248h-0.762v-3.062c0-0.144,0-0.193-0.152-0.193
		c-0.082,0-0.11,0-0.179,0.097l-2.272,3.158v0.248h2.018v0.563c0,0.234,0,0.315-0.555,0.315h-0.186v0.248
		c0.343-0.014,0.784-0.028,1.03-0.028c0.254,0,0.694,0.014,1.038,0.028v-0.248h-0.186c-0.555,0-0.555-0.082-0.555-0.315v-0.563
		H232.926z"/>
	<path d="M236.928,306.593c0-0.029,0-0.048-0.165-0.214c-1.218-1.227-1.529-3.067-1.529-4.557c0-1.695,0.37-3.389,1.567-4.607
		c0.126-0.116,0.126-0.137,0.126-0.166c0-0.068-0.038-0.097-0.097-0.097c-0.097,0-0.974,0.662-1.548,1.899
		c-0.497,1.071-0.614,2.152-0.614,2.97c0,0.759,0.107,1.938,0.643,3.038c0.585,1.197,1.422,1.83,1.519,1.83
		C236.889,306.69,236.928,306.661,236.928,306.593"/>
	<path d="M241.048,298.257c0-0.263-0.225-0.516-0.517-0.516c-0.331,0-0.526,0.273-0.526,0.516c0,0.263,0.225,0.517,0.517,0.517
		C240.853,298.774,241.048,298.501,241.048,298.257"/>
	<path d="M240.715,301.315c0.059-0.253,0.282-1.149,0.964-1.149c0.05,0,0.283,0,0.488,0.126c-0.273,0.049-0.467,0.292-0.467,0.526
		c0,0.156,0.107,0.341,0.37,0.341c0.213,0,0.526-0.175,0.526-0.565c0-0.505-0.576-0.642-0.906-0.642
		c-0.564,0-0.905,0.516-1.022,0.74c-0.244-0.643-0.77-0.74-1.052-0.74c-1.012,0-1.567,1.256-1.567,1.5
		c0,0.097,0.097,0.097,0.116,0.097c0.078,0,0.107-0.019,0.126-0.107c0.332-1.031,0.974-1.275,1.306-1.275
		c0.185,0,0.526,0.087,0.526,0.652c0,0.301-0.166,0.955-0.526,2.318c-0.156,0.604-0.497,1.012-0.925,1.012
		c-0.059,0-0.282,0-0.486-0.126c0.243-0.049,0.457-0.253,0.457-0.526c0-0.263-0.214-0.341-0.36-0.341
		c-0.292,0-0.536,0.253-0.536,0.564c0,0.448,0.488,0.643,0.915,0.643c0.643,0,0.994-0.682,1.022-0.74
		c0.117,0.36,0.468,0.74,1.052,0.74c1.003,0,1.558-1.256,1.558-1.5c0-0.097-0.088-0.097-0.117-0.097
		c-0.087,0-0.106,0.038-0.126,0.107c-0.32,1.042-0.983,1.275-1.294,1.275c-0.38,0-0.536-0.311-0.536-0.642
		c0-0.214,0.059-0.429,0.166-0.858L240.715,301.315"/>
	<path d="M244.995,304.246c0-0.642-0.244-1.022-0.624-1.022c-0.32,0-0.516,0.244-0.516,0.517c0,0.263,0.195,0.516,0.516,0.516
		c0.117,0,0.244-0.04,0.341-0.126c0.029-0.019,0.04-0.029,0.05-0.029c0.009,0,0.019,0.01,0.019,0.145
		c0,0.721-0.341,1.306-0.662,1.626c-0.107,0.107-0.107,0.128-0.107,0.156c0,0.069,0.049,0.107,0.097,0.107
		C244.215,306.135,244.995,305.386,244.995,304.246"/>
	<path d="M250.599,301.315c0.059-0.253,0.282-1.149,0.964-1.149c0.05,0,0.283,0,0.488,0.126c-0.273,0.049-0.467,0.292-0.467,0.526
		c0,0.156,0.107,0.341,0.37,0.341c0.213,0,0.526-0.175,0.526-0.565c0-0.505-0.576-0.642-0.906-0.642
		c-0.564,0-0.905,0.516-1.022,0.74c-0.244-0.643-0.77-0.74-1.052-0.74c-1.012,0-1.567,1.256-1.567,1.5
		c0,0.097,0.097,0.097,0.116,0.097c0.078,0,0.107-0.019,0.126-0.107c0.332-1.031,0.974-1.275,1.306-1.275
		c0.185,0,0.526,0.087,0.526,0.652c0,0.301-0.166,0.955-0.526,2.318c-0.156,0.604-0.497,1.012-0.925,1.012
		c-0.059,0-0.282,0-0.486-0.126c0.243-0.049,0.457-0.253,0.457-0.526c0-0.263-0.214-0.341-0.36-0.341
		c-0.292,0-0.536,0.253-0.536,0.564c0,0.448,0.488,0.643,0.915,0.643c0.643,0,0.994-0.682,1.022-0.74
		c0.117,0.36,0.468,0.74,1.052,0.74c1.003,0,1.558-1.256,1.558-1.5c0-0.097-0.088-0.097-0.117-0.097
		c-0.087,0-0.106,0.038-0.126,0.107c-0.32,1.042-0.983,1.275-1.294,1.275c-0.38,0-0.536-0.311-0.536-0.642
		c0-0.214,0.059-0.429,0.166-0.858L250.599,301.315"/>
	<path d="M255.798,301.822c0-0.759-0.107-1.938-0.643-3.039c-0.583-1.197-1.422-1.83-1.519-1.83c-0.059,0-0.097,0.04-0.097,0.097
		c0,0.029,0,0.05,0.185,0.225c0.953,0.964,1.509,2.512,1.509,4.548c0,1.664-0.36,3.379-1.567,4.605
		c-0.126,0.117-0.126,0.137-0.126,0.166c0,0.059,0.038,0.097,0.097,0.097c0.097,0,0.974-0.663,1.548-1.898
		C255.681,303.72,255.798,302.64,255.798,301.822"/>
</g>
<g>
	<path d="M34.38,174.634c1.344,0.156,1.616,1.052,1.616,1.792c0,0.585-0.146,1.626-1.616,1.801V174.634 M33.572,178.218
		c-1.384-0.185-1.558-1.179-1.558-1.783c0-0.505,0.097-1.597,1.558-1.791V178.218z M34.38,178.442c1.51-0.116,2.59-1.022,2.59-2.006
		c0-1.012-1.109-1.898-2.59-2.015v-0.545c0-0.331,0-0.467,0.925-0.467h0.322v-0.302c-0.351,0.029-1.247,0.029-1.647,0.029
		c-0.4,0-1.304,0-1.655-0.029v0.302h0.322c0.925,0,0.925,0.126,0.925,0.467v0.545c-1.49,0.147-2.532,1.043-2.532,2.006
		c0,1.003,1.081,1.87,2.532,2.015v0.545c0,0.332,0,0.467-0.925,0.467h-0.322v0.302c0.351-0.029,1.247-0.029,1.647-0.029
		c0.398,0,1.304,0,1.655,0.029v-0.302h-0.322c-0.925,0-0.925-0.126-0.925-0.467V178.442z"/>
	<path d="M38.585,177.395c0.35,0.089,0.557,0.089,0.666,0.089c0.906,0,1.441-0.618,1.441-0.721c0-0.075-0.047-0.096-0.082-0.096
		c-0.014,0-0.028,0-0.055,0.02c-0.165,0.063-0.528,0.199-1.038,0.199c-0.191,0-0.555-0.014-1.002-0.185
		c-0.069-0.034-0.083-0.034-0.089-0.034c-0.089,0-0.089,0.075-0.089,0.185v2.026c0,0.117,0,0.199,0.11,0.199
		c0.063,0,0.069-0.014,0.138-0.096c0.295-0.378,0.714-0.433,0.955-0.433c0.411,0,0.597,0.329,0.631,0.384
		c0.124,0.227,0.166,0.488,0.166,0.886c0,0.207,0,0.611-0.207,0.914c-0.171,0.246-0.467,0.411-0.803,0.411
		c-0.447,0-0.906-0.246-1.079-0.699c0.262,0.02,0.392-0.152,0.392-0.337c0-0.295-0.254-0.35-0.343-0.35c-0.014,0-0.343,0-0.343,0.37
		c0,0.618,0.563,1.237,1.387,1.237c0.878,0,1.648-0.652,1.648-1.518c0-0.776-0.591-1.491-1.442-1.491
		c-0.302,0-0.659,0.077-0.961,0.337V177.395"/>
	<path d="M45.155,182.093c0-0.029,0-0.048-0.165-0.214c-1.218-1.227-1.529-3.067-1.529-4.557c0-1.695,0.37-3.389,1.567-4.607
		c0.126-0.116,0.126-0.137,0.126-0.166c0-0.068-0.038-0.097-0.097-0.097c-0.097,0-0.974,0.662-1.548,1.899
		c-0.497,1.071-0.614,2.152-0.614,2.97c0,0.759,0.107,1.938,0.643,3.038c0.585,1.197,1.422,1.83,1.519,1.83
		C45.116,182.19,45.155,182.161,45.155,182.093"/>
	<path d="M49.275,173.757c0-0.263-0.225-0.516-0.517-0.516c-0.331,0-0.526,0.273-0.526,0.516c0,0.263,0.225,0.517,0.517,0.517
		C49.079,174.274,49.275,174.001,49.275,173.757"/>
	<path d="M48.942,176.815c0.059-0.253,0.282-1.149,0.964-1.149c0.05,0,0.283,0,0.488,0.126c-0.273,0.049-0.467,0.292-0.467,0.526
		c0,0.156,0.107,0.341,0.37,0.341c0.213,0,0.526-0.175,0.526-0.565c0-0.506-0.576-0.642-0.906-0.642
		c-0.564,0-0.905,0.516-1.022,0.74c-0.244-0.643-0.77-0.74-1.052-0.74c-1.012,0-1.567,1.256-1.567,1.5
		c0,0.097,0.097,0.097,0.116,0.097c0.078,0,0.107-0.019,0.126-0.107c0.332-1.031,0.974-1.275,1.306-1.275
		c0.185,0,0.526,0.087,0.526,0.652c0,0.301-0.166,0.955-0.526,2.318c-0.156,0.604-0.497,1.012-0.925,1.012
		c-0.059,0-0.282,0-0.486-0.126c0.243-0.049,0.457-0.253,0.457-0.526c0-0.263-0.214-0.341-0.36-0.341
		c-0.292,0-0.536,0.253-0.536,0.564c0,0.448,0.488,0.643,0.915,0.643c0.643,0,0.994-0.682,1.022-0.74
		c0.117,0.36,0.468,0.74,1.052,0.74c1.003,0,1.558-1.256,1.558-1.5c0-0.097-0.088-0.097-0.117-0.097
		c-0.087,0-0.106,0.038-0.126,0.107c-0.32,1.042-0.983,1.275-1.294,1.275c-0.38,0-0.536-0.311-0.536-0.642
		c0-0.214,0.059-0.429,0.166-0.858L48.942,176.815"/>
	<path d="M53.221,179.746c0-0.642-0.244-1.022-0.624-1.022c-0.32,0-0.516,0.244-0.516,0.517c0,0.263,0.195,0.516,0.516,0.516
		c0.117,0,0.244-0.04,0.341-0.126c0.029-0.019,0.04-0.029,0.05-0.029c0.009,0,0.019,0.01,0.019,0.145
		c0,0.721-0.341,1.306-0.662,1.626c-0.107,0.107-0.107,0.128-0.107,0.156c0,0.069,0.049,0.107,0.097,0.107
		C52.442,181.635,53.221,180.886,53.221,179.746"/>
	<path d="M58.826,176.815c0.059-0.253,0.282-1.149,0.964-1.149c0.05,0,0.283,0,0.488,0.126c-0.273,0.049-0.467,0.292-0.467,0.526
		c0,0.156,0.107,0.341,0.37,0.341c0.213,0,0.526-0.175,0.526-0.565c0-0.506-0.576-0.642-0.906-0.642
		c-0.564,0-0.905,0.516-1.022,0.74c-0.244-0.643-0.77-0.74-1.052-0.74c-1.012,0-1.567,1.256-1.567,1.5
		c0,0.097,0.097,0.097,0.116,0.097c0.078,0,0.107-0.019,0.126-0.107c0.332-1.031,0.974-1.275,1.306-1.275
		c0.185,0,0.526,0.087,0.526,0.652c0,0.301-0.166,0.955-0.526,2.318c-0.156,0.604-0.497,1.012-0.925,1.012
		c-0.059,0-0.282,0-0.486-0.126c0.243-0.049,0.457-0.253,0.457-0.526c0-0.263-0.214-0.341-0.36-0.341
		c-0.292,0-0.536,0.253-0.536,0.564c0,0.448,0.488,0.643,0.915,0.643c0.643,0,0.994-0.682,1.022-0.74
		c0.117,0.36,0.468,0.74,1.052,0.74c1.003,0,1.558-1.256,1.558-1.5c0-0.097-0.088-0.097-0.117-0.097
		c-0.087,0-0.106,0.038-0.126,0.107c-0.32,1.042-0.983,1.275-1.294,1.275c-0.38,0-0.536-0.311-0.536-0.642
		c0-0.214,0.059-0.429,0.166-0.858L58.826,176.815"/>
	<path d="M64.025,177.322c0-0.759-0.107-1.938-0.643-3.039c-0.583-1.197-1.422-1.83-1.519-1.83c-0.059,0-0.097,0.04-0.097,0.097
		c0,0.029,0,0.05,0.185,0.225c0.953,0.964,1.509,2.512,1.509,4.548c0,1.664-0.36,3.379-1.567,4.605
		c-0.126,0.117-0.126,0.137-0.126,0.166c0,0.059,0.038,0.097,0.097,0.097c0.097,0,0.974-0.663,1.548-1.898
		C63.907,179.22,64.025,178.14,64.025,177.322"/>
</g>
<g>
	<path d="M133.291,127.684c1.344,0.156,1.616,1.052,1.616,1.792c0,0.585-0.146,1.626-1.616,1.801V127.684 M132.483,131.268
		c-1.384-0.185-1.558-1.179-1.558-1.783c0-0.505,0.097-1.597,1.558-1.791V131.268z M133.291,131.492
		c1.51-0.116,2.59-1.022,2.59-2.006c0-1.012-1.109-1.898-2.59-2.015v-0.545c0-0.331,0-0.467,0.925-0.467h0.322v-0.302
		c-0.351,0.029-1.247,0.029-1.647,0.029c-0.4,0-1.304,0-1.656-0.029v0.302h0.322c0.925,0,0.925,0.126,0.925,0.467v0.545
		c-1.49,0.147-2.532,1.043-2.532,2.006c0,1.003,1.081,1.87,2.532,2.015v0.545c0,0.332,0,0.467-0.925,0.467h-0.322v0.303
		c0.351-0.029,1.247-0.029,1.647-0.029c0.398,0,1.304,0,1.655,0.029v-0.303h-0.322c-0.925,0-0.925-0.126-0.925-0.467V131.492z"/>
	<path d="M138.395,134.194c-0.343,0-0.611-0.199-0.756-0.5c-0.103-0.207-0.158-0.55-0.158-0.961c0-0.666,0.398-1.182,0.947-1.182
		c0.317,0,0.53,0.124,0.701,0.378c0.165,0.262,0.172,0.55,0.172,0.948c0,0.391,0,0.679-0.186,0.947
		C138.95,134.064,138.731,134.194,138.395,134.194 M137.461,132.032c0-0.563,0.049-1.071,0.309-1.49
		c0.234-0.371,0.604-0.625,1.044-0.625c0.206,0,0.48,0.055,0.618,0.24c-0.172,0.014-0.317,0.132-0.317,0.331
		c0,0.171,0.117,0.322,0.323,0.322c0.207,0,0.329-0.137,0.329-0.336c0-0.398-0.288-0.756-0.968-0.756
		c-0.989,0-1.999,0.906-1.999,2.383c0,1.778,0.839,2.314,1.594,2.314c0.837,0,1.565-0.639,1.565-1.538
		c0-0.873-0.693-1.518-1.497-1.518C137.914,131.359,137.611,131.723,137.461,132.032z"/>
	<path d="M144.065,135.143c0-0.029,0-0.048-0.165-0.214c-1.218-1.227-1.529-3.067-1.529-4.557c0-1.695,0.37-3.389,1.567-4.607
		c0.126-0.116,0.126-0.137,0.126-0.166c0-0.068-0.038-0.097-0.097-0.097c-0.097,0-0.974,0.662-1.548,1.899
		c-0.497,1.071-0.614,2.152-0.614,2.97c0,0.759,0.107,1.938,0.643,3.038c0.585,1.197,1.422,1.83,1.519,1.83
		C144.026,135.241,144.065,135.211,144.065,135.143"/>
	<path d="M148.185,126.807c0-0.263-0.225-0.516-0.517-0.516c-0.331,0-0.526,0.273-0.526,0.516c0,0.263,0.225,0.517,0.517,0.517
		C147.99,127.324,148.185,127.051,148.185,126.807"/>
	<path d="M147.852,129.866c0.059-0.253,0.282-1.149,0.964-1.149c0.05,0,0.283,0,0.488,0.126c-0.273,0.049-0.467,0.292-0.467,0.526
		c0,0.156,0.107,0.341,0.37,0.341c0.213,0,0.526-0.175,0.526-0.565c0-0.505-0.576-0.642-0.906-0.642
		c-0.564,0-0.905,0.516-1.022,0.74c-0.244-0.643-0.77-0.74-1.052-0.74c-1.012,0-1.567,1.256-1.567,1.5
		c0,0.097,0.097,0.097,0.116,0.097c0.078,0,0.107-0.019,0.126-0.107c0.332-1.031,0.974-1.275,1.306-1.275
		c0.185,0,0.526,0.087,0.526,0.652c0,0.301-0.166,0.955-0.526,2.318c-0.156,0.604-0.497,1.012-0.925,1.012
		c-0.059,0-0.282,0-0.486-0.126c0.243-0.049,0.457-0.253,0.457-0.526c0-0.263-0.214-0.341-0.36-0.341
		c-0.292,0-0.536,0.253-0.536,0.564c0,0.448,0.488,0.643,0.915,0.643c0.643,0,0.994-0.682,1.022-0.74
		c0.117,0.36,0.468,0.74,1.052,0.74c1.003,0,1.558-1.256,1.558-1.5c0-0.097-0.088-0.097-0.117-0.097
		c-0.087,0-0.106,0.038-0.126,0.107c-0.32,1.042-0.983,1.275-1.294,1.275c-0.38,0-0.536-0.311-0.536-0.642
		c0-0.214,0.059-0.429,0.166-0.858L147.852,129.866"/>
	<path d="M152.132,132.796c0-0.642-0.244-1.022-0.624-1.022c-0.32,0-0.516,0.244-0.516,0.517c0,0.263,0.195,0.516,0.516,0.516
		c0.117,0,0.244-0.04,0.341-0.126c0.029-0.019,0.04-0.029,0.05-0.029c0.009,0,0.019,0.01,0.019,0.145
		c0,0.721-0.341,1.306-0.662,1.626c-0.107,0.107-0.107,0.128-0.107,0.156c0,0.069,0.049,0.107,0.097,0.107
		C151.352,134.685,152.132,133.936,152.132,132.796"/>
	<path d="M157.736,129.866c0.059-0.253,0.282-1.149,0.964-1.149c0.05,0,0.283,0,0.488,0.126c-0.273,0.049-0.467,0.292-0.467,0.526
		c0,0.156,0.107,0.341,0.37,0.341c0.213,0,0.526-0.175,0.526-0.565c0-0.505-0.576-0.642-0.906-0.642
		c-0.564,0-0.905,0.516-1.022,0.74c-0.244-0.643-0.77-0.74-1.052-0.74c-1.012,0-1.567,1.256-1.567,1.5
		c0,0.097,0.097,0.097,0.116,0.097c0.078,0,0.107-0.019,0.126-0.107c0.332-1.031,0.974-1.275,1.306-1.275
		c0.185,0,0.526,0.087,0.526,0.652c0,0.301-0.166,0.955-0.526,2.318c-0.156,0.604-0.497,1.012-0.925,1.012
		c-0.059,0-0.282,0-0.486-0.126c0.243-0.049,0.457-0.253,0.457-0.526c0-0.263-0.214-0.341-0.36-0.341
		c-0.292,0-0.536,0.253-0.536,0.564c0,0.448,0.488,0.643,0.915,0.643c0.643,0,0.994-0.682,1.022-0.74
		c0.117,0.36,0.468,0.74,1.052,0.74c1.003,0,1.558-1.256,1.558-1.5c0-0.097-0.088-0.097-0.117-0.097
		c-0.087,0-0.106,0.038-0.126,0.107c-0.32,1.042-0.983,1.275-1.294,1.275c-0.38,0-0.536-0.311-0.536-0.642
		c0-0.214,0.059-0.429,0.166-0.858L157.736,129.866"/>
	<path d="M162.935,130.372c0-0.759-0.107-1.938-0.643-3.039c-0.583-1.197-1.422-1.83-1.519-1.83c-0.059,0-0.097,0.04-0.097,0.097
		c0,0.029,0,0.05,0.185,0.225c0.953,0.964,1.509,2.512,1.509,4.548c0,1.664-0.36,3.379-1.567,4.605
		c-0.126,0.117-0.126,0.137-0.126,0.166c0,0.059,0.038,0.097,0.097,0.097c0.097,0,0.974-0.663,1.548-1.898
		C162.818,132.27,162.935,131.191,162.935,130.372"/>
</g>
<g>
	<path d="M228.354,145.207c1.344,0.156,1.616,1.052,1.616,1.792c0,0.585-0.146,1.626-1.616,1.801V145.207 M227.546,148.791
		c-1.384-0.185-1.558-1.179-1.558-1.783c0-0.505,0.097-1.597,1.558-1.791V148.791z M228.354,149.014
		c1.51-0.116,2.59-1.022,2.59-2.006c0-1.012-1.109-1.898-2.59-2.015v-0.545c0-0.331,0-0.467,0.925-0.467h0.322v-0.302
		c-0.351,0.029-1.247,0.029-1.647,0.029c-0.4,0-1.304,0-1.656-0.029v0.302h0.322c0.925,0,0.925,0.126,0.925,0.467v0.545
		c-1.49,0.147-2.532,1.043-2.532,2.006c0,1.003,1.081,1.87,2.532,2.015v0.545c0,0.332,0,0.467-0.925,0.467h-0.322v0.303
		c0.351-0.029,1.247-0.029,1.647-0.029c0.398,0,1.304,0,1.655,0.029v-0.303h-0.322c-0.925,0-0.925-0.126-0.925-0.467V149.014z"/>
	<path d="M235.167,147.652c0.069-0.083,0.069-0.097,0.069-0.274h-1.8c-0.274,0-0.35-0.008-0.597-0.028
		c-0.356-0.027-0.37-0.075-0.391-0.193h-0.234l-0.24,1.47h0.232c0.014-0.103,0.083-0.557,0.193-0.625
		c0.055-0.041,0.611-0.041,0.715-0.041h1.496c-0.219,0.288-0.569,0.713-0.713,0.906c-0.9,1.181-0.982,2.273-0.982,2.678
		c0,0.075,0,0.392,0.322,0.392c0.331,0,0.331-0.309,0.331-0.398v-0.276c0-1.331,0.274-1.943,0.569-2.313L235.167,147.652"/>
	<path d="M239.128,152.666c0-0.029,0-0.048-0.165-0.214c-1.218-1.227-1.529-3.067-1.529-4.557c0-1.695,0.37-3.389,1.567-4.607
		c0.126-0.116,0.126-0.137,0.126-0.166c0-0.068-0.038-0.097-0.097-0.097c-0.097,0-0.974,0.662-1.548,1.899
		c-0.497,1.071-0.614,2.152-0.614,2.97c0,0.759,0.107,1.938,0.643,3.038c0.585,1.197,1.422,1.83,1.519,1.83
		C239.09,152.763,239.128,152.734,239.128,152.666"/>
	<path d="M243.248,144.33c0-0.263-0.225-0.516-0.517-0.516c-0.331,0-0.526,0.273-0.526,0.516c0,0.263,0.225,0.517,0.517,0.517
		C243.053,144.847,243.248,144.574,243.248,144.33"/>
	<path d="M242.915,147.388c0.059-0.253,0.282-1.149,0.964-1.149c0.05,0,0.283,0,0.488,0.126c-0.273,0.049-0.467,0.292-0.467,0.526
		c0,0.156,0.107,0.341,0.37,0.341c0.213,0,0.526-0.175,0.526-0.565c0-0.505-0.576-0.642-0.906-0.642
		c-0.564,0-0.905,0.516-1.022,0.74c-0.244-0.643-0.77-0.74-1.052-0.74c-1.012,0-1.567,1.256-1.567,1.5
		c0,0.097,0.097,0.097,0.116,0.097c0.078,0,0.107-0.019,0.126-0.107c0.332-1.031,0.974-1.275,1.306-1.275
		c0.185,0,0.526,0.087,0.526,0.652c0,0.301-0.166,0.955-0.526,2.318c-0.156,0.604-0.497,1.012-0.925,1.012
		c-0.059,0-0.282,0-0.486-0.126c0.243-0.049,0.457-0.253,0.457-0.526c0-0.263-0.214-0.341-0.36-0.341
		c-0.292,0-0.536,0.253-0.536,0.564c0,0.448,0.488,0.643,0.915,0.643c0.643,0,0.994-0.682,1.022-0.74
		c0.117,0.36,0.468,0.74,1.052,0.74c1.003,0,1.558-1.256,1.558-1.5c0-0.097-0.088-0.097-0.117-0.097
		c-0.087,0-0.106,0.038-0.126,0.107c-0.32,1.042-0.983,1.275-1.294,1.275c-0.38,0-0.536-0.311-0.536-0.642
		c0-0.214,0.059-0.429,0.166-0.858L242.915,147.388"/>
	<path d="M247.195,150.319c0-0.642-0.244-1.022-0.624-1.022c-0.32,0-0.516,0.244-0.516,0.517c0,0.263,0.195,0.516,0.516,0.516
		c0.117,0,0.244-0.04,0.341-0.126c0.029-0.019,0.04-0.029,0.05-0.029c0.009,0,0.019,0.01,0.019,0.145
		c0,0.721-0.341,1.306-0.662,1.626c-0.107,0.107-0.107,0.128-0.107,0.156c0,0.069,0.049,0.107,0.097,0.107
		C246.415,152.208,247.195,151.459,247.195,150.319"/>
	<path d="M252.799,147.388c0.059-0.253,0.282-1.149,0.964-1.149c0.05,0,0.283,0,0.488,0.126c-0.273,0.049-0.467,0.292-0.467,0.526
		c0,0.156,0.107,0.341,0.37,0.341c0.213,0,0.526-0.175,0.526-0.565c0-0.505-0.576-0.642-0.906-0.642
		c-0.564,0-0.905,0.516-1.022,0.74c-0.244-0.643-0.77-0.74-1.052-0.74c-1.012,0-1.567,1.256-1.567,1.5
		c0,0.097,0.097,0.097,0.116,0.097c0.078,0,0.107-0.019,0.126-0.107c0.332-1.031,0.974-1.275,1.306-1.275
		c0.185,0,0.526,0.087,0.526,0.652c0,0.301-0.166,0.955-0.526,2.318c-0.156,0.604-0.497,1.012-0.925,1.012
		c-0.059,0-0.282,0-0.486-0.126c0.243-0.049,0.457-0.253,0.457-0.526c0-0.263-0.214-0.341-0.36-0.341
		c-0.292,0-0.536,0.253-0.536,0.564c0,0.448,0.488,0.643,0.915,0.643c0.643,0,0.994-0.682,1.022-0.74
		c0.117,0.36,0.468,0.74,1.052,0.74c1.003,0,1.558-1.256,1.558-1.5c0-0.097-0.088-0.097-0.117-0.097
		c-0.087,0-0.106,0.038-0.126,0.107c-0.32,1.042-0.983,1.275-1.294,1.275c-0.38,0-0.536-0.311-0.536-0.642
		c0-0.214,0.059-0.429,0.166-0.858L252.799,147.388"/>
	<path d="M257.998,147.895c0-0.759-0.107-1.938-0.643-3.039c-0.583-1.197-1.422-1.83-1.519-1.83c-0.059,0-0.097,0.04-0.097,0.097
		c0,0.029,0,0.05,0.185,0.225c0.953,0.964,1.509,2.512,1.509,4.548c0,1.664-0.36,3.379-1.567,4.605
		c-0.126,0.117-0.126,0.137-0.126,0.166c0,0.059,0.038,0.097,0.097,0.097c0.097,0,0.974-0.662,1.548-1.898
		C257.881,149.793,257.998,148.713,257.998,147.895"/>
</g>
<g>
	<path d="M155.443,224.793c1.344,0.156,1.616,1.052,1.616,1.792c0,0.585-0.146,1.626-1.616,1.801V224.793 M154.635,228.377
		c-1.384-0.185-1.558-1.179-1.558-1.783c0-0.505,0.097-1.597,1.558-1.791V228.377z M155.443,228.601
		c1.51-0.116,2.59-1.022,2.59-2.007c0-1.012-1.109-1.898-2.59-2.015v-0.545c0-0.331,0-0.467,0.925-0.467h0.322v-0.302
		c-0.351,0.029-1.247,0.029-1.647,0.029c-0.4,0-1.304,0-1.655-0.029v0.302h0.322c0.925,0,0.925,0.126,0.925,0.467v0.545
		c-1.49,0.147-2.532,1.043-2.532,2.007c0,1.003,1.081,1.87,2.532,2.015v0.545c0,0.332,0,0.467-0.925,0.467h-0.322v0.303
		c0.351-0.029,1.247-0.029,1.647-0.029c0.398,0,1.304,0,1.655,0.029v-0.303h-0.322c-0.925,0-0.925-0.126-0.925-0.467V228.601z"/>
	<path d="M160.237,229.209l0.941,0.542c0.179,0.102,0.522,0.309,0.522,0.714c0,0.516-0.569,0.837-1.16,0.837
		c-0.632,0-1.174-0.405-1.174-0.968C159.365,229.827,159.743,229.435,160.237,229.209 M159.901,228.255
		c-0.179-0.103-0.371-0.288-0.371-0.542c0-0.433,0.502-0.687,0.996-0.687c0.536,0,1.01,0.337,1.01,0.825
		c0,0.61-0.714,0.919-0.728,0.919c-0.014,0-0.028-0.006-0.075-0.033L159.901,228.255z M161.02,228.907
		c0.535-0.26,0.878-0.583,0.878-1.057c0-0.666-0.693-1.024-1.359-1.024c-0.756,0-1.373,0.494-1.373,1.146
		c0,0.323,0.152,0.557,0.274,0.694c0.124,0.144,0.172,0.171,0.577,0.411c-0.384,0.166-1.065,0.536-1.065,1.257
		c0,0.762,0.79,1.188,1.572,1.188c0.873,0,1.587-0.557,1.587-1.298c0-0.453-0.268-0.837-0.666-1.071
		C161.356,229.1,161.116,228.962,161.02,228.907z"/>
	<path d="M166.217,232.252c0-0.029,0-0.048-0.165-0.214c-1.218-1.227-1.529-3.067-1.529-4.557c0-1.695,0.37-3.389,1.567-4.607
		c0.126-0.116,0.126-0.137,0.126-0.166c0-0.068-0.038-0.097-0.097-0.097c-0.097,0-0.974,0.662-1.548,1.899
		c-0.497,1.071-0.614,2.152-0.614,2.97c0,0.759,0.107,1.938,0.643,3.038c0.585,1.197,1.422,1.83,1.519,1.83
		C166.178,232.349,166.217,232.32,166.217,232.252"/>
	<path d="M170.337,223.916c0-0.263-0.225-0.516-0.517-0.516c-0.331,0-0.526,0.273-0.526,0.516c0,0.263,0.225,0.517,0.517,0.517
		C170.142,224.433,170.337,224.16,170.337,223.916"/>
	<path d="M170.004,226.974c0.059-0.253,0.282-1.149,0.964-1.149c0.05,0,0.283,0,0.488,0.126c-0.273,0.049-0.467,0.292-0.467,0.526
		c0,0.156,0.107,0.341,0.37,0.341c0.213,0,0.526-0.175,0.526-0.565c0-0.505-0.576-0.642-0.906-0.642
		c-0.564,0-0.905,0.516-1.022,0.74c-0.244-0.643-0.77-0.74-1.052-0.74c-1.012,0-1.567,1.256-1.567,1.5
		c0,0.097,0.097,0.097,0.116,0.097c0.078,0,0.107-0.019,0.126-0.107c0.332-1.031,0.974-1.275,1.306-1.275
		c0.185,0,0.526,0.087,0.526,0.652c0,0.301-0.166,0.955-0.526,2.318c-0.156,0.604-0.497,1.012-0.925,1.012
		c-0.059,0-0.282,0-0.486-0.126c0.243-0.049,0.457-0.253,0.457-0.526c0-0.263-0.214-0.341-0.36-0.341
		c-0.292,0-0.536,0.253-0.536,0.564c0,0.448,0.488,0.643,0.915,0.643c0.643,0,0.994-0.682,1.022-0.74
		c0.117,0.36,0.468,0.74,1.052,0.74c1.003,0,1.558-1.256,1.558-1.5c0-0.097-0.088-0.097-0.117-0.097
		c-0.087,0-0.106,0.038-0.126,0.107c-0.32,1.042-0.983,1.275-1.294,1.275c-0.38,0-0.536-0.311-0.536-0.642
		c0-0.214,0.059-0.429,0.166-0.858L170.004,226.974"/>
	<path d="M174.284,229.905c0-0.642-0.244-1.022-0.624-1.022c-0.32,0-0.516,0.244-0.516,0.517c0,0.263,0.195,0.516,0.516,0.516
		c0.117,0,0.244-0.04,0.341-0.126c0.029-0.019,0.04-0.029,0.05-0.029c0.009,0,0.019,0.01,0.019,0.146
		c0,0.721-0.341,1.306-0.662,1.626c-0.107,0.107-0.107,0.128-0.107,0.156c0,0.069,0.049,0.107,0.097,0.107
		C173.504,231.794,174.284,231.045,174.284,229.905"/>
	<path d="M179.888,226.974c0.059-0.253,0.282-1.149,0.964-1.149c0.05,0,0.283,0,0.488,0.126c-0.273,0.049-0.467,0.292-0.467,0.526
		c0,0.156,0.107,0.341,0.37,0.341c0.213,0,0.526-0.175,0.526-0.565c0-0.505-0.576-0.642-0.906-0.642
		c-0.564,0-0.905,0.516-1.022,0.74c-0.244-0.643-0.77-0.74-1.052-0.74c-1.012,0-1.567,1.256-1.567,1.5
		c0,0.097,0.097,0.097,0.116,0.097c0.078,0,0.107-0.019,0.126-0.107c0.332-1.031,0.974-1.275,1.306-1.275
		c0.185,0,0.526,0.087,0.526,0.652c0,0.301-0.166,0.955-0.526,2.318c-0.156,0.604-0.497,1.012-0.925,1.012
		c-0.059,0-0.282,0-0.486-0.126c0.243-0.049,0.457-0.253,0.457-0.526c0-0.263-0.214-0.341-0.36-0.341
		c-0.292,0-0.536,0.253-0.536,0.564c0,0.448,0.488,0.643,0.915,0.643c0.643,0,0.994-0.682,1.022-0.74
		c0.117,0.36,0.468,0.74,1.052,0.74c1.003,0,1.558-1.256,1.558-1.5c0-0.097-0.088-0.097-0.117-0.097
		c-0.087,0-0.106,0.038-0.126,0.107c-0.32,1.042-0.983,1.275-1.294,1.275c-0.38,0-0.536-0.311-0.536-0.642
		c0-0.214,0.059-0.429,0.166-0.858L179.888,226.974"/>
	<path d="M185.087,227.481c0-0.759-0.107-1.938-0.643-3.039c-0.583-1.197-1.422-1.83-1.519-1.83c-0.059,0-0.097,0.04-0.097,0.097
		c0,0.029,0,0.05,0.185,0.225c0.953,0.964,1.509,2.512,1.509,4.548c0,1.664-0.36,3.379-1.567,4.605
		c-0.126,0.117-0.126,0.137-0.126,0.166c0,0.059,0.038,0.097,0.097,0.097c0.097,0,0.974-0.662,1.548-1.898
		C184.97,229.379,185.087,228.299,185.087,227.481"/>
</g>
<circle opacity="0.5" fill="#FFFFFF" stroke="#000000" stroke-miterlimit="10" cx="183.683" cy="167.703" r="93.037"/>
<circle fill="none" stroke="#000000" stroke-miterlimit="10" cx="183.443" cy="167.703" r="93.037"/>
<g>
	<defs>
		<rect id="SVGID_1_" x="167.533" y="161.203" width="42" height="13"/>
	</defs>
	<clipPath id="SVGID_2_">
		<use xlink:href="#SVGID_1_"  overflow="visible"/>
	</clipPath>
	<path clip-path="url(#SVGID_2_)" d="M172.29,164.132c1.645,0.191,1.978,1.287,1.978,2.194c0,0.716-0.178,1.991-1.978,2.205V164.132
		 M171.3,168.52c-1.694-0.227-1.908-1.444-1.908-2.183c0-0.619,0.119-1.955,1.908-2.192V168.52z M172.29,168.793
		c1.848-0.142,3.17-1.252,3.17-2.456c0-1.239-1.358-2.323-3.17-2.467v-0.667c0-0.405,0-0.572,1.133-0.572h0.394v-0.37
		c-0.43,0.036-1.527,0.036-2.016,0.036c-0.489,0-1.597,0-2.027-0.036v0.37h0.394c1.133,0,1.133,0.155,1.133,0.572v0.667
		c-1.823,0.18-3.1,1.277-3.1,2.456c0,1.228,1.323,2.289,3.1,2.467v0.667c0,0.406,0,0.572-1.133,0.572h-0.394v0.37
		c0.43-0.036,1.527-0.036,2.016-0.036c0.487,0,1.597,0,2.027,0.036v-0.37h-0.394c-1.133,0-1.133-0.155-1.133-0.572V168.793z"/>
	<path clip-path="url(#SVGID_2_)" d="M178.521,172.136c-0.387,0-0.9-0.227-1.067-0.916c-0.119-0.497-0.119-1.186-0.119-1.808
		c0-0.614,0-1.253,0.127-1.714c0.177-0.664,0.714-0.841,1.059-0.841c0.453,0,0.891,0.277,1.042,0.764
		c0.134,0.455,0.142,1.059,0.142,1.791c0,0.622,0,1.244-0.109,1.773C179.429,171.951,178.857,172.136,178.521,172.136
		 M180.471,169.521c0-0.925-0.109-1.589-0.497-2.177c-0.259-0.387-0.781-0.723-1.453-0.723c-1.95,0-1.95,2.295-1.95,2.9
		s0,2.85,1.95,2.85S180.471,170.126,180.471,169.521z"/>
	<path clip-path="url(#SVGID_2_)" d="M185.479,173.264c0-0.036,0-0.059-0.201-0.262c-1.491-1.502-1.872-3.755-1.872-5.578
		c0-2.075,0.453-4.148,1.919-5.639c0.155-0.142,0.155-0.167,0.155-0.203c0-0.083-0.047-0.119-0.119-0.119
		c-0.119,0-1.192,0.811-1.895,2.325c-0.608,1.311-0.752,2.634-0.752,3.636c0,0.93,0.131,2.372,0.787,3.719
		c0.716,1.466,1.741,2.241,1.859,2.241C185.432,173.382,185.479,173.346,185.479,173.264"/>
	<path clip-path="url(#SVGID_2_)" d="M190.522,163.059c0-0.322-0.275-0.631-0.633-0.631c-0.405,0-0.644,0.334-0.644,0.631
		c0,0.322,0.275,0.633,0.633,0.633C190.283,163.692,190.522,163.357,190.522,163.059"/>
	<path clip-path="url(#SVGID_2_)" d="M190.115,166.803c0.072-0.309,0.345-1.406,1.18-1.406c0.061,0,0.347,0,0.597,0.155
		c-0.334,0.059-0.572,0.358-0.572,0.644c0,0.191,0.131,0.417,0.453,0.417c0.261,0,0.644-0.214,0.644-0.692
		c0-0.619-0.705-0.786-1.109-0.786c-0.691,0-1.108,0.631-1.252,0.906c-0.298-0.788-0.942-0.906-1.287-0.906
		c-1.239,0-1.919,1.538-1.919,1.836c0,0.119,0.119,0.119,0.142,0.119c0.095,0,0.131-0.023,0.155-0.131
		c0.406-1.262,1.192-1.561,1.598-1.561c0.227,0,0.644,0.106,0.644,0.798c0,0.369-0.203,1.169-0.644,2.837
		c-0.191,0.739-0.608,1.239-1.133,1.239c-0.072,0-0.345,0-0.595-0.155c0.297-0.059,0.559-0.309,0.559-0.644
		c0-0.322-0.263-0.417-0.441-0.417c-0.358,0-0.656,0.309-0.656,0.691c0,0.548,0.597,0.787,1.12,0.787
		c0.788,0,1.217-0.834,1.252-0.906c0.144,0.441,0.573,0.906,1.288,0.906c1.228,0,1.908-1.537,1.908-1.836
		c0-0.119-0.108-0.119-0.144-0.119c-0.106,0-0.13,0.047-0.155,0.131c-0.392,1.275-1.203,1.561-1.584,1.561
		c-0.466,0-0.656-0.381-0.656-0.786c0-0.262,0.072-0.525,0.203-1.05L190.115,166.803"/>
	<path clip-path="url(#SVGID_2_)" d="M195.354,170.39c0-0.786-0.298-1.252-0.764-1.252c-0.392,0-0.631,0.298-0.631,0.633
		c0,0.322,0.239,0.631,0.631,0.631c0.144,0,0.298-0.048,0.417-0.155c0.036-0.023,0.048-0.036,0.061-0.036
		c0.011,0,0.023,0.012,0.023,0.178c0,0.883-0.417,1.598-0.811,1.991c-0.131,0.131-0.131,0.156-0.131,0.191
		c0,0.084,0.059,0.131,0.119,0.131C194.399,172.703,195.354,171.786,195.354,170.39"/>
	<path clip-path="url(#SVGID_2_)" d="M202.215,166.803c0.072-0.309,0.345-1.406,1.18-1.406c0.061,0,0.347,0,0.597,0.155
		c-0.334,0.059-0.572,0.358-0.572,0.644c0,0.191,0.131,0.417,0.453,0.417c0.261,0,0.644-0.214,0.644-0.692
		c0-0.619-0.705-0.786-1.109-0.786c-0.691,0-1.108,0.631-1.251,0.906c-0.299-0.788-0.942-0.906-1.288-0.906
		c-1.239,0-1.919,1.538-1.919,1.836c0,0.119,0.119,0.119,0.142,0.119c0.095,0,0.131-0.023,0.155-0.131
		c0.406-1.262,1.192-1.561,1.598-1.561c0.227,0,0.644,0.106,0.644,0.798c0,0.369-0.203,1.169-0.644,2.837
		c-0.191,0.739-0.608,1.239-1.133,1.239c-0.072,0-0.345,0-0.595-0.155c0.297-0.059,0.559-0.309,0.559-0.644
		c0-0.322-0.262-0.417-0.441-0.417c-0.358,0-0.656,0.309-0.656,0.691c0,0.548,0.597,0.787,1.12,0.787
		c0.787,0,1.217-0.834,1.252-0.906c0.144,0.441,0.573,0.906,1.287,0.906c1.228,0,1.908-1.537,1.908-1.836
		c0-0.119-0.108-0.119-0.144-0.119c-0.106,0-0.13,0.047-0.155,0.131c-0.392,1.275-1.203,1.561-1.584,1.561
		c-0.466,0-0.656-0.381-0.656-0.786c0-0.262,0.072-0.525,0.203-1.05L202.215,166.803"/>
	<path clip-path="url(#SVGID_2_)" d="M208.579,167.423c0-0.93-0.131-2.372-0.788-3.72c-0.714-1.466-1.741-2.241-1.859-2.241
		c-0.072,0-0.119,0.048-0.119,0.119c0,0.036,0,0.061,0.227,0.275c1.167,1.18,1.847,3.075,1.847,5.567
		c0,2.037-0.441,4.136-1.919,5.637c-0.155,0.144-0.155,0.167-0.155,0.203c0,0.072,0.047,0.119,0.119,0.119
		c0.119,0,1.192-0.811,1.895-2.323C208.435,169.746,208.579,168.425,208.579,167.423"/>
</g>
</svg>
