<?xml version="1.0" encoding="utf-8"?>
<!-- Generator: Adobe Illustrator 18.0.0, SVG Export Plug-In . SVG Version: 6.00 Build 0)  -->
<!DOCTYPE svg PUBLIC "-//W3C//DTD SVG 1.1//EN" "http://www.w3.org/Graphics/SVG/1.1/DTD/svg11.dtd">
<svg version="1.1" id="Layer_1" xmlns="http://www.w3.org/2000/svg" xmlns:xlink="http://www.w3.org/1999/xlink" x="0px" y="0px"
	 viewBox="0 0 218.25 122.25" enable-background="new 0 0 218.25 122.25" xml:space="preserve">
<g>
	<g>
		<line fill="none" stroke="#EC1C24" stroke-miterlimit="10" x1="119.75" y1="48" x2="119.75" y2="42"/>
		<line fill="none" stroke="#EC1C24" stroke-miterlimit="10" stroke-dasharray="8,8" x1="119.75" y1="34" x2="119.75" y2="22"/>
		<line fill="none" stroke="#EC1C24" stroke-miterlimit="10" x1="119.75" y1="18" x2="119.75" y2="12"/>
	</g>
</g>
<g>
	<line x1="83.75" y1="48" x2="119.75" y2="48"/>
	<g>
		<line fill="none" stroke="#EC1C24" stroke-miterlimit="10" x1="83.75" y1="48" x2="89.75" y2="48"/>
		<line fill="none" stroke="#EC1C24" stroke-miterlimit="10" stroke-dasharray="8,8" x1="97.75" y1="48" x2="109.75" y2="48"/>
		<line fill="none" stroke="#EC1C24" stroke-miterlimit="10" x1="113.75" y1="48" x2="119.75" y2="48"/>
	</g>
</g>
<g>
	<g>
		<line fill="none" stroke="#EC1C24" stroke-miterlimit="10" x1="83.75" y1="75" x2="89.75" y2="75"/>
		<line fill="none" stroke="#EC1C24" stroke-miterlimit="10" stroke-dasharray="12,12" x1="101.75" y1="75" x2="143.75" y2="75"/>
		<line fill="none" stroke="#EC1C24" stroke-miterlimit="10" x1="149.75" y1="75" x2="155.75" y2="75"/>
	</g>
</g>
<g>
	<g>
		<line fill="none" stroke="#EC1C24" stroke-miterlimit="10" x1="83.75" y1="102" x2="89.75" y2="102"/>
		<line fill="none" stroke="#EC1C24" stroke-miterlimit="10" stroke-dasharray="12,12" x1="101.75" y1="102" x2="143.75" y2="102"/>
		<line fill="none" stroke="#EC1C24" stroke-miterlimit="10" x1="149.75" y1="102" x2="155.75" y2="102"/>
	</g>
</g>
<g>
	<path d="M199.831,68.872c1.645,0.191,1.978,1.287,1.978,2.194c0,0.716-0.178,1.991-1.978,2.205V68.872 M198.842,73.259
		c-1.694-0.227-1.908-1.444-1.908-2.183c0-0.619,0.119-1.955,1.908-2.192V73.259z M199.831,73.533
		c1.848-0.142,3.17-1.252,3.17-2.456c0-1.239-1.358-2.324-3.17-2.467v-0.667c0-0.405,0-0.572,1.133-0.572h0.394V67
		c-0.43,0.036-1.527,0.036-2.016,0.036c-0.489,0-1.597,0-2.027-0.036v0.37h0.394c1.133,0,1.133,0.155,1.133,0.572v0.667
		c-1.823,0.18-3.1,1.277-3.1,2.456c0,1.228,1.323,2.289,3.1,2.467V74.2c0,0.406,0,0.572-1.133,0.572h-0.394v0.37
		c0.43-0.036,1.527-0.036,2.016-0.036c0.488,0,1.597,0,2.027,0.036v-0.37h-0.394c-1.133,0-1.133-0.155-1.133-0.572V73.533z"/>
	<path d="M206.591,71.597c0-0.228-0.017-0.236-0.252-0.236c-0.539,0.53-1.303,0.537-1.648,0.537v0.303c0.202,0,0.758,0,1.219-0.236
		v4.287c0,0.277,0,0.386-0.841,0.386h-0.319v0.303c0.152-0.008,1.186-0.034,1.497-0.034c0.259,0,1.319,0.027,1.503,0.034v-0.303
		h-0.319c-0.841,0-0.841-0.109-0.841-0.386V71.597"/>
</g>
<g>
	<path d="M20.292,68.306c1.645,0.191,1.978,1.287,1.978,2.194c0,0.716-0.178,1.991-1.978,2.205V68.306 M19.303,72.694
		c-1.694-0.227-1.908-1.444-1.908-2.183c0-0.619,0.119-1.955,1.908-2.192V72.694z M20.292,72.967c1.848-0.142,3.17-1.252,3.17-2.456
		c0-1.239-1.358-2.324-3.17-2.467v-0.667c0-0.405,0-0.572,1.133-0.572h0.394v-0.37c-0.43,0.036-1.527,0.036-2.016,0.036
		s-1.597,0-2.027-0.036v0.37h0.394c1.133,0,1.133,0.155,1.133,0.572v0.667c-1.823,0.18-3.1,1.276-3.1,2.456
		c0,1.228,1.323,2.289,3.1,2.467v0.667c0,0.406,0,0.572-1.133,0.572h-0.394v0.37c0.43-0.036,1.527-0.036,2.016-0.036
		c0.488,0,1.597,0,2.027,0.036v-0.37h-0.394c-1.133,0-1.133-0.155-1.133-0.572V72.967z"/>
	<path d="M26.531,73.569c0.655,0,1.125,0.455,1.125,1.353c0,1.042-0.605,1.353-1.092,1.353c-0.336,0-1.075-0.092-1.428-0.588
		c0.394-0.017,0.487-0.294,0.487-0.47c0-0.27-0.202-0.463-0.462-0.463c-0.236,0-0.472,0.142-0.472,0.487
		c0,0.789,0.875,1.303,1.892,1.303c1.169,0,1.975-0.783,1.975-1.623c0-0.655-0.538-1.311-1.462-1.505
		c0.883-0.319,1.202-0.948,1.202-1.463c0-0.664-0.764-1.159-1.697-1.159s-1.648,0.455-1.648,1.127c0,0.286,0.186,0.445,0.438,0.445
		c0.261,0,0.428-0.194,0.428-0.428c0-0.244-0.167-0.42-0.428-0.438c0.294-0.37,0.873-0.462,1.184-0.462
		c0.38,0,0.908,0.184,0.908,0.916c0,0.353-0.117,0.741-0.336,1.002c-0.276,0.319-0.512,0.336-0.933,0.361
		c-0.209,0.017-0.227,0.017-0.269,0.025c-0.017,0-0.084,0.017-0.084,0.109c0,0.117,0.077,0.117,0.219,0.117H26.531"/>
</g>
<g>
	<path d="M58.824,52.911c0-0.027,0-0.044-0.151-0.197c-1.118-1.126-1.404-2.816-1.404-4.184c0-1.556,0.34-3.111,1.439-4.229
		c0.116-0.107,0.116-0.125,0.116-0.152c0-0.062-0.035-0.089-0.089-0.089c-0.089,0-0.894,0.608-1.421,1.744
		c-0.456,0.983-0.564,1.976-0.564,2.727c0,0.697,0.098,1.779,0.591,2.789c0.537,1.099,1.305,1.68,1.395,1.68
		C58.789,53,58.824,52.973,58.824,52.911"/>
	<path d="M60.567,48.504c0.349-1.359,1.269-1.493,1.502-1.493c0.42,0,0.661,0.259,0.661,0.562c0,0.931-1.43,0.931-1.796,0.931
		H60.567 M60.988,48.7c0.259,0,0.92-0.019,1.368-0.206c0.626-0.268,0.67-0.796,0.67-0.921c0-0.393-0.34-0.759-0.956-0.759
		c-0.993,0-2.343,0.867-2.343,2.432c0,0.912,0.527,1.618,1.404,1.618c1.279,0,2.03-0.948,2.03-1.055
		c0-0.054-0.054-0.116-0.108-0.116c-0.045,0-0.062,0.018-0.116,0.089c-0.707,0.885-1.68,0.885-1.788,0.885
		c-0.697,0-0.778-0.751-0.778-1.037c0-0.107,0.009-0.384,0.143-0.929H60.988z"/>
	<path d="M65.33,50.756c0-0.589-0.224-0.939-0.573-0.939c-0.294,0-0.473,0.224-0.473,0.475c0,0.241,0.179,0.473,0.473,0.473
		c0.108,0,0.224-0.036,0.313-0.116c0.027-0.018,0.036-0.027,0.046-0.027c0.008,0,0.018,0.009,0.018,0.134
		c0,0.662-0.313,1.199-0.608,1.493c-0.098,0.098-0.098,0.117-0.098,0.143c0,0.063,0.045,0.098,0.089,0.098
		C64.614,52.49,65.33,51.802,65.33,50.756"/>
	<path d="M70.771,47.189h0.769c0.179,0,0.268,0,0.268-0.178c0-0.098-0.089-0.098-0.241-0.098h-0.742l0.188-1.02
		c0.035-0.188,0.16-0.823,0.214-0.929c0.081-0.17,0.232-0.305,0.421-0.305c0.035,0,0.267,0,0.437,0.162
		c-0.393,0.035-0.483,0.348-0.483,0.483c0,0.205,0.162,0.313,0.332,0.313c0.232,0,0.491-0.197,0.491-0.537
		c0-0.411-0.411-0.618-0.777-0.618c-0.305,0-0.867,0.162-1.136,1.046c-0.054,0.188-0.081,0.278-0.295,1.404H69.6
		c-0.169,0-0.267,0-0.267,0.17c0,0.107,0.08,0.107,0.25,0.107h0.591l-0.67,3.532c-0.162,0.867-0.313,1.68-0.778,1.68
		c-0.036,0-0.259,0-0.429-0.16c0.411-0.027,0.491-0.349,0.491-0.483c0-0.206-0.16-0.313-0.33-0.313
		c-0.232,0-0.492,0.197-0.492,0.537c0,0.402,0.394,0.616,0.76,0.616c0.491,0,0.85-0.527,1.01-0.867
		c0.286-0.564,0.492-1.645,0.5-1.707L70.771,47.189"/>
	<path d="M75.399,48.53c0-0.697-0.098-1.779-0.591-2.79c-0.535-1.099-1.305-1.68-1.395-1.68c-0.054,0-0.089,0.036-0.089,0.089
		c0,0.027,0,0.046,0.17,0.206c0.875,0.885,1.385,2.306,1.385,4.175c0,1.528-0.33,3.102-1.439,4.228
		c-0.116,0.108-0.116,0.125-0.116,0.152c0,0.054,0.035,0.089,0.089,0.089c0.089,0,0.894-0.608,1.422-1.743
		C75.291,50.273,75.399,49.282,75.399,48.53"/>
	<path d="M78.452,48.106c0-0.171-0.013-0.177-0.189-0.177c-0.404,0.397-0.977,0.403-1.236,0.403v0.227c0.151,0,0.568,0,0.914-0.177
		v3.216c0,0.207,0,0.289-0.63,0.289h-0.239v0.227c0.114-0.006,0.889-0.026,1.123-0.026c0.195,0,0.989,0.02,1.127,0.026v-0.227
		h-0.239c-0.631,0-0.631-0.082-0.631-0.289V48.106"/>
</g>
<g>
	<path d="M58.824,79.776c0-0.027,0-0.044-0.151-0.197c-1.118-1.126-1.404-2.816-1.404-4.184c0-1.556,0.34-3.111,1.439-4.229
		c0.116-0.107,0.116-0.125,0.116-0.152c0-0.062-0.035-0.089-0.089-0.089c-0.089,0-0.894,0.608-1.421,1.744
		c-0.456,0.983-0.564,1.976-0.564,2.727c0,0.697,0.098,1.779,0.591,2.789c0.537,1.099,1.305,1.68,1.395,1.68
		C58.789,79.865,58.824,79.838,58.824,79.776"/>
	<path d="M60.567,75.369c0.349-1.359,1.269-1.493,1.502-1.493c0.42,0,0.661,0.259,0.661,0.562c0,0.931-1.43,0.931-1.796,0.931
		H60.567 M60.988,75.566c0.259,0,0.92-0.019,1.368-0.206c0.626-0.268,0.67-0.796,0.67-0.921c0-0.393-0.34-0.759-0.956-0.759
		c-0.993,0-2.343,0.867-2.343,2.432c0,0.912,0.527,1.618,1.404,1.618c1.279,0,2.03-0.948,2.03-1.055
		c0-0.054-0.054-0.116-0.108-0.116c-0.045,0-0.062,0.018-0.116,0.089c-0.707,0.885-1.68,0.885-1.788,0.885
		c-0.697,0-0.778-0.751-0.778-1.037c0-0.107,0.009-0.384,0.143-0.929H60.988z"/>
	<path d="M65.33,77.621c0-0.589-0.224-0.939-0.573-0.939c-0.294,0-0.473,0.224-0.473,0.475c0,0.241,0.179,0.473,0.473,0.473
		c0.108,0,0.224-0.036,0.313-0.116c0.027-0.018,0.036-0.027,0.046-0.027c0.008,0,0.018,0.009,0.018,0.134
		c0,0.662-0.313,1.199-0.608,1.493c-0.098,0.098-0.098,0.117-0.098,0.143c0,0.063,0.045,0.098,0.089,0.098
		C64.614,79.356,65.33,78.668,65.33,77.621"/>
	<path d="M70.771,74.054h0.769c0.179,0,0.268,0,0.268-0.178c0-0.098-0.089-0.098-0.241-0.098h-0.742l0.188-1.02
		c0.035-0.188,0.16-0.823,0.214-0.929c0.081-0.17,0.232-0.305,0.421-0.305c0.035,0,0.267,0,0.437,0.162
		c-0.393,0.035-0.483,0.348-0.483,0.483c0,0.205,0.162,0.313,0.332,0.313c0.232,0,0.491-0.197,0.491-0.537
		c0-0.411-0.411-0.618-0.777-0.618c-0.305,0-0.867,0.162-1.136,1.046c-0.054,0.188-0.081,0.278-0.295,1.404H69.6
		c-0.169,0-0.267,0-0.267,0.17c0,0.107,0.08,0.107,0.25,0.107h0.591l-0.67,3.532c-0.162,0.867-0.313,1.68-0.778,1.68
		c-0.036,0-0.259,0-0.429-0.16c0.411-0.027,0.491-0.349,0.491-0.483c0-0.206-0.16-0.313-0.33-0.313
		c-0.232,0-0.492,0.197-0.492,0.537c0,0.402,0.394,0.616,0.76,0.616c0.491,0,0.85-0.527,1.01-0.867
		c0.286-0.564,0.492-1.645,0.5-1.707L70.771,74.054"/>
	<path d="M75.399,75.396c0-0.697-0.098-1.779-0.591-2.79c-0.535-1.099-1.305-1.68-1.395-1.68c-0.054,0-0.089,0.036-0.089,0.089
		c0,0.027,0,0.046,0.17,0.206c0.875,0.885,1.385,2.306,1.385,4.175c0,1.528-0.33,3.102-1.439,4.228
		c-0.116,0.108-0.116,0.125-0.116,0.152c0,0.054,0.035,0.089,0.089,0.089c0.089,0,0.894-0.608,1.422-1.743
		C75.291,77.138,75.399,76.147,75.399,75.396"/>
	<path d="M79.524,77.833H79.31c-0.019,0.138-0.082,0.511-0.164,0.573c-0.05,0.039-0.535,0.039-0.625,0.039h-1.16
		c0.662-0.587,0.884-0.763,1.261-1.059c0.466-0.371,0.902-0.763,0.902-1.362c0-0.763-0.669-1.229-1.475-1.229
		c-0.782,0-1.311,0.548-1.311,1.129c0,0.321,0.271,0.353,0.334,0.353c0.151,0,0.334-0.107,0.334-0.334
		c0-0.114-0.045-0.334-0.371-0.334c0.196-0.448,0.623-0.586,0.92-0.586c0.63,0,0.959,0.491,0.959,1.002
		c0,0.548-0.391,0.983-0.593,1.211l-1.519,1.5c-0.063,0.057-0.063,0.069-0.063,0.246h2.597L79.524,77.833"/>
</g>
<g>
	<path d="M58.824,107.001c0-0.027,0-0.045-0.151-0.197c-1.118-1.126-1.404-2.816-1.404-4.184c0-1.556,0.34-3.111,1.439-4.229
		c0.116-0.107,0.116-0.125,0.116-0.152c0-0.062-0.035-0.089-0.089-0.089c-0.089,0-0.894,0.608-1.421,1.744
		c-0.456,0.983-0.564,1.976-0.564,2.727c0,0.697,0.098,1.779,0.591,2.789c0.537,1.099,1.305,1.68,1.395,1.68
		C58.789,107.09,58.824,107.063,58.824,107.001"/>
	<path d="M60.567,102.594c0.349-1.359,1.269-1.493,1.502-1.493c0.42,0,0.661,0.259,0.661,0.562c0,0.93-1.43,0.93-1.796,0.93H60.567
		 M60.988,102.791c0.259,0,0.92-0.019,1.368-0.206c0.626-0.268,0.67-0.796,0.67-0.921c0-0.393-0.34-0.759-0.956-0.759
		c-0.993,0-2.343,0.867-2.343,2.432c0,0.912,0.527,1.618,1.404,1.618c1.279,0,2.03-0.948,2.03-1.055
		c0-0.054-0.054-0.116-0.108-0.116c-0.045,0-0.062,0.018-0.116,0.089c-0.707,0.885-1.68,0.885-1.788,0.885
		c-0.697,0-0.778-0.751-0.778-1.037c0-0.107,0.009-0.384,0.143-0.929H60.988z"/>
	<path d="M65.33,104.846c0-0.589-0.224-0.939-0.573-0.939c-0.294,0-0.473,0.224-0.473,0.475c0,0.241,0.179,0.473,0.473,0.473
		c0.108,0,0.224-0.036,0.313-0.116c0.027-0.018,0.036-0.027,0.046-0.027c0.008,0,0.018,0.009,0.018,0.134
		c0,0.662-0.313,1.199-0.608,1.493c-0.098,0.098-0.098,0.117-0.098,0.143c0,0.063,0.045,0.098,0.089,0.098
		C64.614,106.58,65.33,105.892,65.33,104.846"/>
	<path d="M70.771,101.279h0.769c0.179,0,0.268,0,0.268-0.178c0-0.098-0.089-0.098-0.241-0.098h-0.742l0.188-1.02
		c0.035-0.188,0.16-0.823,0.214-0.929c0.081-0.17,0.232-0.305,0.421-0.305c0.035,0,0.267,0,0.437,0.162
		c-0.393,0.035-0.483,0.348-0.483,0.483c0,0.205,0.162,0.313,0.332,0.313c0.232,0,0.491-0.197,0.491-0.537
		c0-0.411-0.411-0.618-0.777-0.618c-0.305,0-0.867,0.162-1.136,1.046c-0.054,0.188-0.081,0.278-0.295,1.404H69.6
		c-0.169,0-0.267,0-0.267,0.17c0,0.107,0.08,0.107,0.25,0.107h0.591l-0.67,3.532c-0.162,0.867-0.313,1.68-0.778,1.68
		c-0.036,0-0.259,0-0.429-0.161c0.411-0.027,0.491-0.349,0.491-0.483c0-0.206-0.16-0.313-0.33-0.313
		c-0.232,0-0.492,0.197-0.492,0.537c0,0.402,0.394,0.616,0.76,0.616c0.491,0,0.85-0.527,1.01-0.867
		c0.286-0.564,0.492-1.645,0.5-1.707L70.771,101.279"/>
	<path d="M75.399,102.621c0-0.697-0.098-1.779-0.591-2.79c-0.535-1.099-1.305-1.68-1.395-1.68c-0.054,0-0.089,0.036-0.089,0.089
		c0,0.027,0,0.046,0.17,0.206c0.875,0.885,1.385,2.306,1.385,4.175c0,1.528-0.33,3.102-1.439,4.228
		c-0.116,0.108-0.116,0.125-0.116,0.152c0,0.054,0.035,0.089,0.089,0.089c0.089,0,0.894-0.608,1.422-1.743
		C75.291,104.363,75.399,103.372,75.399,102.621"/>
	<path d="M78.062,104.1c0.491,0,0.844,0.341,0.844,1.015c0,0.782-0.454,1.015-0.819,1.015c-0.252,0-0.806-0.069-1.071-0.441
		c0.295-0.013,0.366-0.22,0.366-0.353c0-0.203-0.151-0.347-0.347-0.347c-0.177,0-0.354,0.107-0.354,0.366
		c0,0.592,0.656,0.977,1.419,0.977c0.877,0,1.481-0.587,1.481-1.218c0-0.491-0.403-0.983-1.097-1.129
		c0.662-0.239,0.901-0.711,0.901-1.097c0-0.498-0.573-0.87-1.273-0.87s-1.236,0.341-1.236,0.845c0,0.214,0.139,0.334,0.328,0.334
		c0.196,0,0.321-0.145,0.321-0.321c0-0.183-0.125-0.315-0.321-0.328c0.22-0.278,0.655-0.347,0.888-0.347
		c0.285,0,0.681,0.138,0.681,0.687c0,0.265-0.088,0.555-0.252,0.751c-0.207,0.239-0.384,0.252-0.7,0.271
		c-0.157,0.013-0.17,0.013-0.202,0.019c-0.013,0-0.063,0.013-0.063,0.082c0,0.088,0.057,0.088,0.164,0.088H78.062"/>
</g>
<rect x="11.626" y="35.435" fill="none" stroke="#000000" stroke-miterlimit="10" width="71.993" height="75.629"/>
<g>
	<line fill="none" stroke="#000000" stroke-miterlimit="10" x1="92.75" y1="39" x2="83.75" y2="48"/>
	<line fill="none" stroke="#000000" stroke-miterlimit="10" x1="83.75" y1="48" x2="92.75" y2="57"/>
</g>
<g>
	<line fill="none" stroke="#000000" stroke-miterlimit="10" x1="92.75" y1="66" x2="83.75" y2="75"/>
	<line fill="none" stroke="#000000" stroke-miterlimit="10" x1="83.75" y1="75" x2="92.75" y2="84"/>
</g>
<g>
	<line fill="none" stroke="#000000" stroke-miterlimit="10" x1="92.75" y1="93" x2="83.75" y2="102"/>
	<line fill="none" stroke="#000000" stroke-miterlimit="10" x1="83.75" y1="102" x2="92.75" y2="111"/>
</g>
<rect x="155.213" y="92.405" fill="none" stroke="#000000" stroke-miterlimit="10" width="54.656" height="18.659"/>
<g>
	<line fill="none" stroke="#000000" stroke-miterlimit="10" x1="146.213" y1="111.019" x2="155.213" y2="102.019"/>
	<line fill="none" stroke="#000000" stroke-miterlimit="10" x1="155.213" y1="102.019" x2="146.213" y2="93.019"/>
</g>
<g>
	<path d="M162.043,106.4c0-0.027,0-0.044-0.151-0.197c-1.118-1.126-1.404-2.816-1.404-4.184c0-1.556,0.34-3.111,1.439-4.229
		c0.116-0.107,0.116-0.125,0.116-0.152c0-0.062-0.035-0.089-0.089-0.089c-0.089,0-0.894,0.608-1.421,1.744
		c-0.456,0.983-0.564,1.976-0.564,2.727c0,0.697,0.098,1.779,0.591,2.789c0.537,1.099,1.305,1.68,1.395,1.68
		C162.008,106.49,162.043,106.463,162.043,106.4"/>
	<path d="M163.786,101.993c0.349-1.359,1.269-1.493,1.502-1.493c0.42,0,0.661,0.259,0.661,0.562c0,0.931-1.43,0.931-1.796,0.931
		H163.786 M164.207,102.19c0.259,0,0.92-0.019,1.368-0.206c0.626-0.268,0.67-0.796,0.67-0.921c0-0.393-0.34-0.759-0.956-0.759
		c-0.993,0-2.343,0.867-2.343,2.432c0,0.912,0.527,1.618,1.404,1.618c1.279,0,2.03-0.948,2.03-1.055
		c0-0.054-0.054-0.116-0.108-0.116c-0.045,0-0.062,0.018-0.116,0.089c-0.707,0.885-1.68,0.885-1.788,0.885
		c-0.697,0-0.778-0.751-0.778-1.037c0-0.107,0.009-0.384,0.143-0.929H164.207z"/>
	<path d="M168.55,104.245c0-0.589-0.224-0.939-0.573-0.939c-0.294,0-0.473,0.224-0.473,0.475c0,0.241,0.179,0.473,0.473,0.473
		c0.108,0,0.224-0.036,0.313-0.116c0.027-0.018,0.036-0.027,0.046-0.027c0.008,0,0.018,0.009,0.018,0.134
		c0,0.662-0.313,1.199-0.608,1.493c-0.098,0.098-0.098,0.117-0.098,0.143c0,0.063,0.045,0.098,0.089,0.098
		C167.834,105.98,168.55,105.292,168.55,104.245"/>
	<path d="M173.991,100.678h0.769c0.179,0,0.268,0,0.268-0.178c0-0.098-0.089-0.098-0.241-0.098h-0.742l0.188-1.02
		c0.035-0.188,0.16-0.823,0.214-0.929c0.081-0.17,0.232-0.305,0.421-0.305c0.035,0,0.267,0,0.437,0.162
		c-0.393,0.035-0.483,0.348-0.483,0.483c0,0.205,0.162,0.313,0.332,0.313c0.232,0,0.491-0.197,0.491-0.537
		c0-0.411-0.411-0.618-0.777-0.618c-0.305,0-0.867,0.162-1.136,1.046c-0.054,0.188-0.081,0.278-0.295,1.404h-0.618
		c-0.169,0-0.267,0-0.267,0.17c0,0.107,0.08,0.107,0.25,0.107h0.591l-0.67,3.532c-0.162,0.867-0.313,1.68-0.778,1.68
		c-0.036,0-0.259,0-0.429-0.16c0.411-0.027,0.491-0.349,0.491-0.483c0-0.206-0.16-0.313-0.33-0.313
		c-0.232,0-0.492,0.197-0.492,0.537c0,0.402,0.394,0.616,0.76,0.616c0.491,0,0.85-0.527,1.01-0.867
		c0.286-0.564,0.492-1.645,0.5-1.707L173.991,100.678"/>
	<path d="M178.618,102.02c0-0.697-0.098-1.779-0.591-2.79c-0.535-1.099-1.305-1.68-1.395-1.68c-0.054,0-0.089,0.036-0.089,0.089
		c0,0.027,0,0.046,0.17,0.206c0.875,0.885,1.385,2.306,1.385,4.175c0,1.528-0.33,3.102-1.439,4.228
		c-0.116,0.108-0.116,0.125-0.116,0.152c0,0.054,0.035,0.089,0.089,0.089c0.089,0,0.894-0.608,1.422-1.743
		C178.511,103.763,178.618,102.771,178.618,102.02"/>
	<path d="M181.671,101.596c0-0.171-0.013-0.177-0.189-0.177c-0.404,0.397-0.977,0.403-1.236,0.403v0.227
		c0.151,0,0.568,0,0.914-0.177v3.216c0,0.207,0,0.289-0.63,0.289h-0.239v0.227c0.114-0.006,0.889-0.026,1.123-0.026
		c0.195,0,0.989,0.02,1.127,0.026v-0.227h-0.239c-0.631,0-0.631-0.082-0.631-0.289V101.596"/>
</g>
<g>
	<path d="M199.561,95.872c1.645,0.191,1.978,1.288,1.978,2.194c0,0.716-0.178,1.991-1.978,2.205V95.872 M198.572,100.259
		c-1.694-0.227-1.908-1.444-1.908-2.183c0-0.619,0.119-1.955,1.908-2.192V100.259z M199.561,100.533
		c1.848-0.142,3.17-1.252,3.17-2.456c0-1.239-1.358-2.324-3.17-2.467v-0.667c0-0.405,0-0.572,1.133-0.572h0.394V94
		c-0.43,0.036-1.526,0.036-2.016,0.036s-1.597,0-2.027-0.036v0.37h0.394c1.133,0,1.133,0.155,1.133,0.572v0.667
		c-1.823,0.18-3.1,1.276-3.1,2.456c0,1.228,1.323,2.289,3.1,2.467v0.667c0,0.406,0,0.572-1.133,0.572h-0.394v0.37
		c0.43-0.036,1.527-0.036,2.016-0.036c0.487,0,1.597,0,2.026,0.036v-0.37h-0.394c-1.133,0-1.133-0.155-1.133-0.572V100.533z"/>
	<path d="M207.75,102.412h-0.286c-0.025,0.184-0.109,0.681-0.219,0.764c-0.067,0.051-0.714,0.051-0.833,0.051h-1.547
		c0.883-0.783,1.178-1.017,1.681-1.412c0.622-0.495,1.203-1.017,1.203-1.816c0-1.017-0.892-1.639-1.967-1.639
		c-1.042,0-1.748,0.731-1.748,1.505c0,0.428,0.361,0.47,0.445,0.47c0.202,0,0.445-0.142,0.445-0.445
		c0-0.151-0.059-0.445-0.495-0.445c0.261-0.597,0.831-0.781,1.227-0.781c0.841,0,1.278,0.655,1.278,1.336
		c0,0.731-0.522,1.311-0.791,1.614l-2.025,2c-0.084,0.076-0.084,0.092-0.084,0.328h3.463L207.75,102.412"/>
</g>
<rect x="155.791" y="65.465" fill="none" stroke="#000000" stroke-miterlimit="10" width="54.656" height="18.659"/>
<g>
	<line fill="none" stroke="#000000" stroke-miterlimit="10" x1="146.791" y1="84.08" x2="155.791" y2="75.08"/>
	<line fill="none" stroke="#000000" stroke-miterlimit="10" x1="155.791" y1="75.08" x2="146.791" y2="66.08"/>
</g>
<g>
	<path d="M162.621,79.461c0-0.027,0-0.044-0.151-0.197c-1.118-1.126-1.404-2.816-1.404-4.184c0-1.556,0.34-3.111,1.439-4.229
		c0.116-0.107,0.116-0.125,0.116-0.152c0-0.062-0.035-0.089-0.089-0.089c-0.089,0-0.894,0.608-1.421,1.744
		c-0.456,0.983-0.564,1.976-0.564,2.727c0,0.697,0.098,1.779,0.591,2.789c0.537,1.099,1.305,1.68,1.395,1.68
		C162.586,79.55,162.621,79.523,162.621,79.461"/>
	<path d="M164.364,75.054c0.349-1.359,1.269-1.493,1.502-1.493c0.42,0,0.661,0.259,0.661,0.562c0,0.931-1.43,0.931-1.796,0.931
		H164.364 M164.784,75.25c0.259,0,0.92-0.019,1.368-0.206c0.626-0.268,0.67-0.796,0.67-0.921c0-0.393-0.34-0.759-0.956-0.759
		c-0.993,0-2.343,0.867-2.343,2.432c0,0.912,0.527,1.618,1.404,1.618c1.279,0,2.03-0.948,2.03-1.055
		c0-0.054-0.054-0.116-0.108-0.116c-0.045,0-0.062,0.018-0.116,0.089c-0.707,0.885-1.68,0.885-1.788,0.885
		c-0.697,0-0.778-0.751-0.778-1.037c0-0.107,0.009-0.384,0.143-0.929H164.784z"/>
	<path d="M169.127,77.306c0-0.589-0.224-0.939-0.573-0.939c-0.294,0-0.473,0.224-0.473,0.475c0,0.241,0.179,0.473,0.473,0.473
		c0.108,0,0.224-0.036,0.313-0.116c0.027-0.018,0.036-0.027,0.046-0.027c0.008,0,0.018,0.009,0.018,0.134
		c0,0.662-0.313,1.199-0.608,1.493c-0.098,0.098-0.098,0.117-0.098,0.143c0,0.063,0.045,0.098,0.089,0.098
		C168.411,79.04,169.127,78.352,169.127,77.306"/>
	<path d="M174.568,73.739h0.769c0.179,0,0.268,0,0.268-0.178c0-0.098-0.089-0.098-0.241-0.098h-0.742l0.188-1.02
		c0.035-0.188,0.161-0.823,0.214-0.929c0.081-0.17,0.232-0.305,0.421-0.305c0.035,0,0.267,0,0.437,0.162
		c-0.393,0.035-0.483,0.348-0.483,0.483c0,0.205,0.162,0.313,0.332,0.313c0.232,0,0.491-0.197,0.491-0.537
		c0-0.411-0.411-0.618-0.777-0.618c-0.305,0-0.867,0.162-1.136,1.046c-0.054,0.188-0.081,0.278-0.295,1.404h-0.618
		c-0.169,0-0.267,0-0.267,0.17c0,0.107,0.08,0.107,0.25,0.107h0.591l-0.67,3.532c-0.162,0.867-0.313,1.68-0.778,1.68
		c-0.036,0-0.259,0-0.429-0.16c0.411-0.027,0.491-0.349,0.491-0.483c0-0.206-0.161-0.313-0.33-0.313
		c-0.232,0-0.492,0.197-0.492,0.537c0,0.402,0.394,0.616,0.76,0.616c0.491,0,0.85-0.527,1.01-0.867
		c0.286-0.564,0.492-1.645,0.5-1.707L174.568,73.739"/>
	<path d="M179.196,75.08c0-0.697-0.098-1.779-0.591-2.79c-0.536-1.099-1.305-1.68-1.395-1.68c-0.054,0-0.089,0.036-0.089,0.089
		c0,0.027,0,0.046,0.17,0.206c0.875,0.885,1.385,2.306,1.385,4.175c0,1.528-0.33,3.102-1.439,4.228
		c-0.116,0.108-0.116,0.125-0.116,0.152c0,0.054,0.035,0.089,0.089,0.089c0.089,0,0.894-0.608,1.422-1.743
		C179.088,76.823,179.196,75.832,179.196,75.08"/>
	<path d="M182.249,74.656c0-0.171-0.013-0.177-0.189-0.177c-0.404,0.397-0.977,0.403-1.236,0.403v0.227c0.151,0,0.568,0,0.914-0.177
		v3.216c0,0.207,0,0.289-0.63,0.289h-0.239v0.227c0.114-0.006,0.889-0.026,1.123-0.026c0.195,0,0.989,0.02,1.127,0.026v-0.227
		h-0.239c-0.631,0-0.631-0.082-0.631-0.289V74.656"/>
</g>
<rect x="3.209" y="13.135" fill="none" stroke="#000000" stroke-miterlimit="10" width="212.041" height="106.865"/>
<g>
	<line fill="none" stroke="#000000" stroke-miterlimit="10" x1="110.75" y1="3" x2="119.75" y2="12"/>
	<line fill="none" stroke="#000000" stroke-miterlimit="10" x1="119.75" y1="12" x2="128.75" y2="3"/>
</g>
<g>
	<path d="M110.824,24.851c0-0.027,0-0.044-0.151-0.197c-1.118-1.126-1.404-2.816-1.404-4.184c0-1.556,0.34-3.111,1.439-4.229
		c0.116-0.107,0.116-0.125,0.116-0.152c0-0.062-0.035-0.089-0.089-0.089c-0.089,0-0.894,0.608-1.421,1.744
		c-0.456,0.983-0.564,1.976-0.564,2.727c0,0.697,0.098,1.779,0.591,2.789c0.537,1.099,1.305,1.68,1.395,1.68
		C110.789,24.94,110.824,24.913,110.824,24.851"/>
	<path d="M112.567,20.444c0.349-1.359,1.269-1.493,1.502-1.493c0.42,0,0.661,0.259,0.661,0.562c0,0.931-1.43,0.931-1.796,0.931
		H112.567 M112.988,20.641c0.259,0,0.92-0.019,1.368-0.206c0.626-0.268,0.67-0.796,0.67-0.921c0-0.393-0.34-0.759-0.956-0.759
		c-0.993,0-2.343,0.867-2.343,2.432c0,0.912,0.527,1.618,1.404,1.618c1.279,0,2.03-0.948,2.03-1.055
		c0-0.054-0.054-0.116-0.108-0.116c-0.045,0-0.062,0.018-0.116,0.089c-0.707,0.885-1.68,0.885-1.788,0.885
		c-0.697,0-0.778-0.751-0.778-1.037c0-0.107,0.009-0.384,0.143-0.929H112.988z"/>
	<path d="M117.33,22.696c0-0.589-0.224-0.939-0.573-0.939c-0.294,0-0.473,0.224-0.473,0.475c0,0.241,0.179,0.473,0.473,0.473
		c0.108,0,0.224-0.036,0.313-0.116c0.027-0.018,0.036-0.027,0.046-0.027c0.008,0,0.018,0.009,0.018,0.134
		c0,0.662-0.313,1.199-0.608,1.493c-0.098,0.098-0.098,0.117-0.098,0.143c0,0.063,0.045,0.098,0.089,0.098
		C116.614,24.43,117.33,23.743,117.33,22.696"/>
	<path d="M122.771,19.129h0.769c0.179,0,0.268,0,0.268-0.178c0-0.098-0.089-0.098-0.241-0.098h-0.742l0.188-1.02
		c0.035-0.188,0.16-0.823,0.214-0.929c0.081-0.17,0.232-0.305,0.421-0.305c0.035,0,0.267,0,0.437,0.162
		c-0.393,0.035-0.483,0.348-0.483,0.483c0,0.205,0.162,0.313,0.332,0.313c0.232,0,0.491-0.197,0.491-0.537
		c0-0.411-0.411-0.618-0.777-0.618c-0.305,0-0.867,0.162-1.136,1.046c-0.054,0.188-0.081,0.278-0.295,1.404H121.6
		c-0.169,0-0.267,0-0.267,0.17c0,0.107,0.08,0.107,0.25,0.107h0.591l-0.67,3.532c-0.162,0.867-0.313,1.68-0.778,1.68
		c-0.036,0-0.259,0-0.429-0.16c0.411-0.027,0.491-0.349,0.491-0.483c0-0.206-0.16-0.313-0.33-0.313
		c-0.232,0-0.492,0.197-0.492,0.537c0,0.402,0.394,0.616,0.76,0.616c0.491,0,0.85-0.527,1.01-0.867
		c0.286-0.564,0.492-1.645,0.5-1.707L122.771,19.129"/>
	<path d="M127.399,20.471c0-0.697-0.098-1.779-0.591-2.79c-0.535-1.099-1.305-1.68-1.395-1.68c-0.054,0-0.089,0.036-0.089,0.089
		c0,0.027,0,0.046,0.17,0.206c0.875,0.885,1.385,2.306,1.385,4.175c0,1.528-0.33,3.102-1.439,4.228
		c-0.116,0.108-0.116,0.125-0.116,0.152c0,0.054,0.035,0.089,0.089,0.089c0.089,0,0.894-0.608,1.422-1.743
		C127.291,22.213,127.399,21.222,127.399,20.471"/>
	<path d="M130.452,20.046c0-0.171-0.013-0.177-0.189-0.177c-0.404,0.397-0.977,0.403-1.236,0.403V20.5c0.151,0,0.568,0,0.914-0.177
		v3.216c0,0.207,0,0.289-0.63,0.289h-0.239v0.227c0.114-0.006,0.889-0.026,1.123-0.026c0.195,0,0.989,0.02,1.127,0.026v-0.227
		h-0.239c-0.631,0-0.631-0.082-0.631-0.289V20.046"/>
</g>
<g>
	<defs>
		<rect id="SVGID_1_" x="196.75" y="19" width="13" height="11"/>
	</defs>
	<clipPath id="SVGID_2_">
		<use xlink:href="#SVGID_1_"  overflow="visible"/>
	</clipPath>
	<path clip-path="url(#SVGID_2_)" d="M201.206,20.93c1.645,0.191,1.978,1.287,1.978,2.194c0,0.716-0.178,1.991-1.978,2.205V20.93
		 M200.217,25.317c-1.694-0.227-1.908-1.444-1.908-2.183c0-0.619,0.119-1.955,1.908-2.192V25.317z M201.206,25.591
		c1.848-0.142,3.17-1.252,3.17-2.456c0-1.239-1.358-2.323-3.17-2.467V20c0-0.405,0-0.572,1.133-0.572h0.394v-0.37
		c-0.43,0.036-1.527,0.036-2.016,0.036s-1.597,0-2.027-0.036v0.37h0.394c1.133,0,1.133,0.155,1.133,0.572v0.667
		c-1.823,0.18-3.1,1.277-3.1,2.456c0,1.228,1.323,2.289,3.1,2.467v0.667c0,0.406,0,0.572-1.133,0.572h-0.394v0.37
		c0.43-0.036,1.527-0.036,2.016-0.036c0.488,0,1.597,0,2.027,0.036v-0.37h-0.394c-1.133,0-1.133-0.155-1.133-0.572V25.591z"/>
	<path clip-path="url(#SVGID_2_)" d="M207.438,28.933c-0.387,0-0.9-0.227-1.067-0.916c-0.119-0.497-0.119-1.186-0.119-1.808
		c0-0.614,0-1.253,0.127-1.714c0.177-0.664,0.714-0.841,1.059-0.841c0.453,0,0.891,0.277,1.042,0.764
		c0.134,0.455,0.142,1.059,0.142,1.791c0,0.622,0,1.244-0.109,1.773C208.345,28.748,207.773,28.933,207.438,28.933 M209.387,26.319
		c0-0.925-0.109-1.589-0.497-2.177c-0.259-0.387-0.781-0.723-1.453-0.723c-1.95,0-1.95,2.295-1.95,2.9c0,0.605,0,2.85,1.95,2.85
		S209.387,26.923,209.387,26.319z"/>
</g>
</svg>
