<?xml version="1.0" encoding="utf-8"?>
<!-- Generator: Adobe Illustrator 18.0.0, SVG Export Plug-In . SVG Version: 6.00 Build 0)  -->
<!DOCTYPE svg PUBLIC "-//W3C//DTD SVG 1.1//EN" "http://www.w3.org/Graphics/SVG/1.1/DTD/svg11.dtd">
<svg version="1.1" id="Layer_1" xmlns="http://www.w3.org/2000/svg" xmlns:xlink="http://www.w3.org/1999/xlink" x="0px" y="0px"
	 viewBox="0 0 383.654 334.615" enable-background="new 0 0 383.654 334.615" xml:space="preserve">
<g>
	<line fill="none" stroke="#EC2327" stroke-miterlimit="10" x1="57.552" y1="179.014" x2="154.863" y2="132.064"/>
	<line fill="none" stroke="#EC2327" stroke-miterlimit="10" x1="182.91" y1="30.425" x2="154.863" y2="132.064"/>
	<line fill="none" stroke="#EC2327" stroke-miterlimit="10" x1="182.91" y1="30.425" x2="251.301" y2="149.587"/>
	<line fill="none" stroke="#EC2327" stroke-miterlimit="10" x1="154.863" y1="132.064" x2="176.954" y2="229.173"/>
	<line fill="none" stroke="#EC2327" stroke-miterlimit="10" x1="251.301" y1="149.587" x2="176.954" y2="229.173"/>
	<line fill="none" stroke="#EC2327" stroke-miterlimit="10" x1="251.301" y1="149.587" x2="321.93" y2="197.401"/>
	<line fill="none" stroke="#EC2327" stroke-miterlimit="10" x1="176.954" y1="229.173" x2="248.236" y2="303.852"/>
	<line fill="none" stroke="#EC2327" stroke-miterlimit="10" x1="251.301" y1="149.587" x2="303.27" y2="60.267"/>
	<line fill="none" stroke="#EC2327" stroke-miterlimit="10" x1="303.27" y1="60.267" x2="448.98" y2="-16.836"/>
	<line fill="none" stroke="#EC2327" stroke-miterlimit="10" x1="321.93" y1="197.401" x2="458.798" y2="167.751"/>
	<line fill="none" stroke="#EC2327" stroke-miterlimit="10" x1="248.236" y1="303.852" x2="420.833" y2="299.973"/>
	<line fill="none" stroke="#EC2327" stroke-miterlimit="10" x1="57.552" y1="179.014" x2="-110.673" y2="173.494"/>
	<line fill="none" stroke="#EC2327" stroke-miterlimit="10" x1="182.91" y1="30.425" x2="17.622" y2="-16.836"/>
	<line fill="none" stroke="#EC2327" stroke-miterlimit="10" x1="176.954" y1="229.173" x2="22.204" y2="315.682"/>
	<line fill="none" stroke="#EC2327" stroke-miterlimit="10" x1="154.863" y1="132.064" x2="251.301" y2="149.587"/>
</g>
<g>
	<circle fill="#FFFFFF" stroke="#000000" stroke-miterlimit="10" cx="154.863" cy="132.064" r="22.092"/>
	<circle fill="#FFFFFF" stroke="#000000" stroke-miterlimit="10" cx="251.301" cy="149.587" r="22.092"/>
	<circle fill="#FFFFFF" stroke="#000000" stroke-miterlimit="10" cx="57.552" cy="179.014" r="22.092"/>
	<circle fill="#FFFFFF" stroke="#000000" stroke-miterlimit="10" cx="176.954" cy="229.173" r="22.092"/>
	<circle fill="#FFFFFF" stroke="#000000" stroke-miterlimit="10" cx="182.91" cy="30.425" r="22.092"/>
	<circle fill="#FFFFFF" stroke="#000000" stroke-miterlimit="10" cx="303.27" cy="60.267" r="22.092"/>
	<circle fill="#FFFFFF" stroke="#000000" stroke-miterlimit="10" cx="321.93" cy="197.401" r="22.092"/>
	<circle fill="#FFFFFF" stroke="#000000" stroke-miterlimit="10" cx="248.236" cy="303.852" r="22.092"/>
</g>
<g>
	<path d="M172.227,28.715c1.344,0.155,1.616,1.051,1.616,1.791c0,0.585-0.146,1.626-1.616,1.801V28.715 M171.419,32.299
		c-1.384-0.185-1.558-1.18-1.558-1.783c0-0.505,0.097-1.596,1.558-1.791V32.299z M172.227,32.523c1.51-0.117,2.59-1.023,2.59-2.007
		c0-1.012-1.109-1.898-2.59-2.015v-0.545c0-0.331,0-0.467,0.925-0.467h0.322v-0.302c-0.351,0.029-1.247,0.029-1.647,0.029
		s-1.304,0-1.655-0.029v0.302h0.322c0.925,0,0.925,0.127,0.925,0.467v0.545c-1.49,0.147-2.532,1.043-2.532,2.006
		c0,1.004,1.081,1.87,2.532,2.016v0.545c0,0.332,0,0.467-0.925,0.467h-0.322v0.302c0.351-0.029,1.247-0.029,1.647-0.029
		c0.398,0,1.304,0,1.656,0.029v-0.302h-0.322c-0.925,0-0.925-0.127-0.925-0.467V32.523z"/>
	<path d="M177.667,30.941c0-0.186-0.014-0.193-0.205-0.193c-0.44,0.432-1.065,0.439-1.347,0.439v0.248c0.165,0,0.619,0,0.996-0.193
		v3.503c0,0.225,0,0.315-0.687,0.315h-0.26v0.248c0.124-0.007,0.969-0.028,1.223-0.028c0.212,0,1.077,0.021,1.228,0.028V35.06h-0.26
		c-0.687,0-0.687-0.09-0.687-0.315V30.941"/>
	<path d="M183.001,36.174c0-0.029,0-0.048-0.165-0.215c-1.218-1.226-1.529-3.067-1.529-4.557c0-1.695,0.37-3.388,1.567-4.606
		c0.126-0.116,0.126-0.136,0.126-0.166c0-0.068-0.038-0.097-0.097-0.097c-0.097,0-0.974,0.663-1.548,1.899
		c-0.497,1.071-0.614,2.153-0.614,2.97c0,0.76,0.107,1.938,0.643,3.038c0.585,1.198,1.422,1.831,1.519,1.831
		C182.963,36.272,183.001,36.242,183.001,36.174"/>
	<path d="M187.121,27.838c0-0.263-0.225-0.515-0.517-0.515c-0.331,0-0.526,0.273-0.526,0.515c0,0.263,0.225,0.517,0.517,0.517
		C186.926,28.355,187.121,28.082,187.121,27.838"/>
	<path d="M186.788,30.897c0.059-0.252,0.282-1.149,0.964-1.149c0.05,0,0.283,0,0.488,0.126c-0.273,0.049-0.467,0.292-0.467,0.526
		c0,0.156,0.107,0.341,0.37,0.341c0.213,0,0.526-0.175,0.526-0.565c0-0.506-0.576-0.642-0.906-0.642
		c-0.564,0-0.905,0.515-1.022,0.74c-0.244-0.643-0.77-0.74-1.052-0.74c-1.012,0-1.567,1.256-1.567,1.5
		c0,0.097,0.097,0.097,0.116,0.097c0.078,0,0.107-0.02,0.126-0.107c0.332-1.032,0.974-1.275,1.306-1.275
		c0.185,0,0.526,0.087,0.526,0.652c0,0.301-0.166,0.955-0.526,2.318c-0.156,0.604-0.497,1.012-0.925,1.012
		c-0.059,0-0.282,0-0.486-0.127c0.243-0.048,0.457-0.252,0.457-0.526c0-0.263-0.214-0.341-0.36-0.341
		c-0.292,0-0.536,0.252-0.536,0.564c0,0.448,0.488,0.643,0.915,0.643c0.643,0,0.994-0.681,1.022-0.74
		c0.117,0.36,0.468,0.74,1.052,0.74c1.003,0,1.558-1.256,1.558-1.5c0-0.096-0.088-0.096-0.117-0.096
		c-0.087,0-0.106,0.038-0.126,0.107c-0.32,1.042-0.983,1.275-1.294,1.275c-0.38,0-0.536-0.312-0.536-0.642
		c0-0.215,0.059-0.429,0.166-0.858L186.788,30.897"/>
	<path d="M191.068,33.827c0-0.641-0.244-1.022-0.624-1.022c-0.32,0-0.516,0.243-0.516,0.517c0,0.263,0.195,0.515,0.516,0.515
		c0.117,0,0.244-0.039,0.341-0.127c0.029-0.019,0.04-0.029,0.05-0.029c0.009,0,0.019,0.011,0.019,0.145
		c0,0.721-0.341,1.306-0.662,1.626c-0.107,0.107-0.107,0.127-0.107,0.156c0,0.069,0.049,0.107,0.097,0.107
		C190.288,35.716,191.068,34.967,191.068,33.827"/>
	<path d="M196.672,30.897c0.059-0.252,0.282-1.149,0.964-1.149c0.05,0,0.283,0,0.488,0.126c-0.273,0.049-0.467,0.292-0.467,0.526
		c0,0.156,0.107,0.341,0.37,0.341c0.213,0,0.526-0.175,0.526-0.565c0-0.506-0.576-0.642-0.906-0.642
		c-0.564,0-0.905,0.515-1.022,0.74c-0.244-0.643-0.77-0.74-1.052-0.74c-1.012,0-1.567,1.256-1.567,1.5
		c0,0.097,0.097,0.097,0.116,0.097c0.078,0,0.107-0.02,0.126-0.107c0.332-1.032,0.974-1.275,1.306-1.275
		c0.185,0,0.526,0.087,0.526,0.652c0,0.301-0.166,0.955-0.526,2.318c-0.156,0.604-0.497,1.012-0.925,1.012
		c-0.059,0-0.282,0-0.486-0.127c0.243-0.048,0.457-0.252,0.457-0.526c0-0.263-0.214-0.341-0.36-0.341
		c-0.292,0-0.536,0.252-0.536,0.564c0,0.448,0.488,0.643,0.915,0.643c0.643,0,0.994-0.681,1.022-0.74
		c0.117,0.36,0.468,0.74,1.052,0.74c1.003,0,1.558-1.256,1.558-1.5c0-0.096-0.088-0.096-0.117-0.096
		c-0.087,0-0.106,0.038-0.126,0.107c-0.32,1.042-0.983,1.275-1.294,1.275c-0.38,0-0.536-0.312-0.536-0.642
		c0-0.215,0.059-0.429,0.166-0.858L196.672,30.897"/>
	<path d="M201.871,31.403c0-0.759-0.107-1.938-0.643-3.039c-0.583-1.198-1.422-1.831-1.519-1.831c-0.059,0-0.097,0.04-0.097,0.097
		c0,0.029,0,0.05,0.185,0.225c0.953,0.964,1.509,2.512,1.509,4.548c0,1.665-0.36,3.379-1.567,4.606
		c-0.126,0.118-0.126,0.136-0.126,0.166c0,0.059,0.038,0.097,0.097,0.097c0.097,0,0.974-0.662,1.548-1.898
		C201.754,33.301,201.871,32.222,201.871,31.403"/>
</g>
<g>
	<path d="M292.286,57.96c1.344,0.155,1.616,1.051,1.616,1.791c0,0.585-0.146,1.626-1.616,1.801V57.96 M291.478,61.544
		c-1.384-0.185-1.559-1.18-1.559-1.783c0-0.505,0.097-1.596,1.559-1.791V61.544z M292.286,61.768c1.51-0.117,2.59-1.023,2.59-2.007
		c0-1.012-1.109-1.898-2.59-2.015v-0.545c0-0.331,0-0.467,0.925-0.467h0.322v-0.302c-0.351,0.029-1.247,0.029-1.647,0.029
		c-0.4,0-1.305,0-1.655-0.029v0.302h0.322c0.925,0,0.925,0.127,0.925,0.467v0.545c-1.49,0.147-2.532,1.043-2.532,2.006
		c0,1.004,1.081,1.87,2.532,2.016v0.545c0,0.332,0,0.467-0.925,0.467h-0.322v0.302c0.351-0.029,1.247-0.029,1.647-0.029
		c0.398,0,1.304,0,1.655,0.029V62.78h-0.322c-0.925,0-0.925-0.127-0.925-0.467V61.768z"/>
	<path d="M298.893,63.303h-0.234c-0.02,0.151-0.089,0.557-0.179,0.624c-0.055,0.042-0.583,0.042-0.68,0.042h-1.264
		c0.721-0.64,0.962-0.831,1.373-1.154c0.508-0.404,0.983-0.831,0.983-1.483c0-0.831-0.729-1.339-1.607-1.339
		c-0.851,0-1.428,0.597-1.428,1.229c0,0.35,0.295,0.385,0.364,0.385c0.165,0,0.364-0.116,0.364-0.364
		c0-0.123-0.048-0.364-0.405-0.364c0.213-0.488,0.679-0.638,1.002-0.638c0.687,0,1.044,0.535,1.044,1.091
		c0,0.597-0.426,1.071-0.646,1.318l-1.654,1.634c-0.069,0.062-0.069,0.075-0.069,0.268h2.829L298.893,63.303"/>
	<path d="M303.06,65.419c0-0.029,0-0.048-0.165-0.215c-1.218-1.226-1.529-3.067-1.529-4.557c0-1.695,0.37-3.388,1.567-4.606
		c0.126-0.116,0.126-0.136,0.126-0.166c0-0.068-0.038-0.097-0.097-0.097c-0.097,0-0.974,0.663-1.548,1.899
		c-0.497,1.071-0.614,2.153-0.614,2.97c0,0.76,0.107,1.938,0.643,3.038c0.585,1.198,1.422,1.831,1.519,1.831
		C303.021,65.517,303.06,65.487,303.06,65.419"/>
	<path d="M307.18,57.083c0-0.263-0.225-0.515-0.517-0.515c-0.331,0-0.526,0.273-0.526,0.515c0,0.263,0.225,0.517,0.517,0.517
		C306.985,57.6,307.18,57.327,307.18,57.083"/>
	<path d="M306.847,60.141c0.059-0.252,0.282-1.149,0.964-1.149c0.05,0,0.283,0,0.488,0.126c-0.273,0.049-0.467,0.292-0.467,0.526
		c0,0.156,0.107,0.341,0.37,0.341c0.213,0,0.526-0.175,0.526-0.565c0-0.506-0.576-0.642-0.906-0.642
		c-0.564,0-0.905,0.515-1.022,0.74c-0.244-0.643-0.77-0.74-1.052-0.74c-1.012,0-1.567,1.256-1.567,1.5
		c0,0.097,0.097,0.097,0.116,0.097c0.078,0,0.107-0.02,0.126-0.107c0.332-1.032,0.974-1.275,1.306-1.275
		c0.185,0,0.526,0.087,0.526,0.652c0,0.301-0.166,0.955-0.526,2.318c-0.156,0.604-0.497,1.012-0.925,1.012
		c-0.059,0-0.282,0-0.486-0.127c0.243-0.048,0.457-0.252,0.457-0.526c0-0.263-0.214-0.341-0.36-0.341
		c-0.292,0-0.536,0.252-0.536,0.564c0,0.448,0.488,0.643,0.915,0.643c0.643,0,0.994-0.681,1.022-0.74
		c0.117,0.36,0.468,0.74,1.052,0.74c1.003,0,1.558-1.256,1.558-1.5c0-0.096-0.088-0.096-0.117-0.096
		c-0.087,0-0.106,0.038-0.126,0.107c-0.32,1.042-0.983,1.275-1.294,1.275c-0.38,0-0.536-0.312-0.536-0.642
		c0-0.215,0.059-0.429,0.166-0.858L306.847,60.141"/>
	<path d="M311.126,63.072c0-0.641-0.244-1.022-0.624-1.022c-0.32,0-0.516,0.243-0.516,0.517c0,0.263,0.195,0.515,0.516,0.515
		c0.117,0,0.244-0.039,0.341-0.127c0.029-0.019,0.04-0.029,0.05-0.029c0.009,0,0.019,0.011,0.019,0.145
		c0,0.721-0.341,1.306-0.662,1.626c-0.107,0.107-0.107,0.127-0.107,0.156c0,0.069,0.049,0.107,0.097,0.107
		C310.347,64.961,311.126,64.212,311.126,63.072"/>
	<path d="M316.731,60.141c0.059-0.252,0.282-1.149,0.964-1.149c0.05,0,0.283,0,0.488,0.126c-0.273,0.049-0.467,0.292-0.467,0.526
		c0,0.156,0.107,0.341,0.37,0.341c0.213,0,0.526-0.175,0.526-0.565c0-0.506-0.576-0.642-0.906-0.642
		c-0.564,0-0.905,0.515-1.022,0.74c-0.244-0.643-0.77-0.74-1.052-0.74c-1.012,0-1.567,1.256-1.567,1.5
		c0,0.097,0.097,0.097,0.116,0.097c0.078,0,0.107-0.02,0.126-0.107c0.332-1.032,0.974-1.275,1.306-1.275
		c0.185,0,0.526,0.087,0.526,0.652c0,0.301-0.166,0.955-0.526,2.318c-0.156,0.604-0.497,1.012-0.925,1.012
		c-0.059,0-0.282,0-0.486-0.127c0.243-0.048,0.457-0.252,0.457-0.526c0-0.263-0.214-0.341-0.36-0.341
		c-0.292,0-0.536,0.252-0.536,0.564c0,0.448,0.488,0.643,0.915,0.643c0.643,0,0.994-0.681,1.022-0.74
		c0.117,0.36,0.468,0.74,1.052,0.74c1.003,0,1.558-1.256,1.558-1.5c0-0.096-0.088-0.096-0.117-0.096
		c-0.087,0-0.106,0.038-0.126,0.107c-0.32,1.042-0.983,1.275-1.294,1.275c-0.38,0-0.536-0.312-0.536-0.642
		c0-0.215,0.059-0.429,0.166-0.858L316.731,60.141"/>
	<path d="M321.93,60.648c0-0.759-0.107-1.938-0.643-3.039c-0.583-1.198-1.422-1.831-1.519-1.831c-0.059,0-0.097,0.04-0.097,0.097
		c0,0.029,0,0.05,0.185,0.225c0.953,0.964,1.509,2.512,1.509,4.548c0,1.665-0.36,3.379-1.567,4.606
		c-0.126,0.118-0.126,0.136-0.126,0.166c0,0.059,0.038,0.097,0.097,0.097c0.097,0,0.974-0.662,1.548-1.898
		C321.813,62.546,321.93,61.466,321.93,60.648"/>
</g>
<g>
	<path d="M308.778,194.713c1.344,0.156,1.616,1.052,1.616,1.792c0,0.585-0.146,1.626-1.616,1.801V194.713 M307.97,198.297
		c-1.384-0.185-1.558-1.179-1.558-1.783c0-0.505,0.097-1.597,1.558-1.791V198.297z M308.778,198.521
		c1.51-0.116,2.59-1.022,2.59-2.006c0-1.012-1.109-1.898-2.59-2.015v-0.545c0-0.331,0-0.467,0.925-0.467h0.322v-0.302
		c-0.351,0.029-1.247,0.029-1.647,0.029c-0.4,0-1.304,0-1.655-0.029v0.302h0.322c0.925,0,0.925,0.127,0.925,0.467v0.545
		c-1.49,0.147-2.532,1.043-2.532,2.006c0,1.003,1.081,1.87,2.532,2.015v0.545c0,0.332,0,0.467-0.925,0.467h-0.322v0.303
		c0.351-0.029,1.247-0.029,1.647-0.029c0.398,0,1.304,0,1.655,0.029v-0.303h-0.322c-0.925,0-0.925-0.126-0.925-0.467V198.521z"/>
	<path d="M313.793,199.012c0.535,0,0.919,0.371,0.919,1.105c0,0.851-0.494,1.105-0.892,1.105c-0.274,0-0.878-0.075-1.167-0.48
		c0.322-0.014,0.398-0.24,0.398-0.384c0-0.221-0.165-0.378-0.378-0.378c-0.193,0-0.385,0.116-0.385,0.398
		c0,0.645,0.715,1.064,1.546,1.064c0.955,0,1.613-0.639,1.613-1.326c0-0.535-0.439-1.071-1.195-1.229
		c0.721-0.26,0.982-0.775,0.982-1.195c0-0.542-0.624-0.947-1.386-0.947s-1.347,0.371-1.347,0.92c0,0.234,0.152,0.364,0.357,0.364
		c0.213,0,0.35-0.158,0.35-0.35c0-0.199-0.137-0.343-0.35-0.357c0.24-0.302,0.714-0.378,0.967-0.378c0.31,0,0.742,0.151,0.742,0.748
		c0,0.288-0.096,0.605-0.274,0.818c-0.226,0.26-0.419,0.274-0.762,0.295c-0.171,0.014-0.185,0.014-0.219,0.02
		c-0.014,0-0.069,0.014-0.069,0.089c0,0.096,0.062,0.096,0.179,0.096H313.793"/>
	<path d="M319.552,202.172c0-0.029,0-0.048-0.165-0.214c-1.218-1.227-1.529-3.067-1.529-4.557c0-1.695,0.37-3.389,1.567-4.607
		c0.126-0.116,0.126-0.136,0.126-0.166c0-0.068-0.038-0.097-0.097-0.097c-0.097,0-0.974,0.663-1.548,1.9
		c-0.497,1.071-0.614,2.152-0.614,2.97c0,0.759,0.107,1.938,0.643,3.038c0.585,1.197,1.422,1.83,1.519,1.83
		C319.514,202.27,319.552,202.24,319.552,202.172"/>
	<path d="M323.672,193.836c0-0.263-0.225-0.515-0.517-0.515c-0.331,0-0.526,0.273-0.526,0.515c0,0.263,0.225,0.517,0.517,0.517
		C323.477,194.353,323.672,194.08,323.672,193.836"/>
	<path d="M323.339,196.895c0.059-0.253,0.282-1.149,0.964-1.149c0.05,0,0.283,0,0.488,0.126c-0.273,0.049-0.467,0.292-0.467,0.526
		c0,0.156,0.107,0.341,0.37,0.341c0.213,0,0.526-0.175,0.526-0.565c0-0.505-0.576-0.642-0.906-0.642
		c-0.564,0-0.905,0.516-1.022,0.74c-0.244-0.643-0.77-0.74-1.052-0.74c-1.012,0-1.567,1.256-1.567,1.5
		c0,0.097,0.097,0.097,0.116,0.097c0.078,0,0.107-0.019,0.126-0.107c0.332-1.031,0.974-1.275,1.306-1.275
		c0.185,0,0.526,0.087,0.526,0.652c0,0.301-0.166,0.955-0.526,2.318c-0.156,0.604-0.497,1.012-0.925,1.012
		c-0.059,0-0.282,0-0.486-0.126c0.243-0.049,0.457-0.253,0.457-0.526c0-0.263-0.214-0.341-0.36-0.341
		c-0.292,0-0.536,0.253-0.536,0.564c0,0.448,0.488,0.643,0.915,0.643c0.643,0,0.994-0.682,1.022-0.74
		c0.117,0.36,0.468,0.74,1.052,0.74c1.003,0,1.558-1.256,1.558-1.5c0-0.097-0.088-0.097-0.117-0.097
		c-0.087,0-0.106,0.038-0.126,0.107c-0.32,1.042-0.983,1.275-1.294,1.275c-0.38,0-0.536-0.311-0.536-0.642
		c0-0.214,0.059-0.429,0.166-0.858L323.339,196.895"/>
	<path d="M327.619,199.825c0-0.642-0.244-1.022-0.624-1.022c-0.32,0-0.516,0.244-0.516,0.517c0,0.263,0.195,0.516,0.516,0.516
		c0.117,0,0.244-0.04,0.341-0.126c0.029-0.019,0.04-0.029,0.05-0.029c0.009,0,0.019,0.01,0.019,0.145
		c0,0.721-0.341,1.306-0.662,1.626c-0.107,0.107-0.107,0.128-0.107,0.156c0,0.069,0.049,0.107,0.097,0.107
		C326.839,201.714,327.619,200.965,327.619,199.825"/>
	<path d="M333.224,196.895c0.059-0.253,0.282-1.149,0.964-1.149c0.05,0,0.283,0,0.488,0.126c-0.273,0.049-0.467,0.292-0.467,0.526
		c0,0.156,0.107,0.341,0.37,0.341c0.213,0,0.526-0.175,0.526-0.565c0-0.505-0.576-0.642-0.906-0.642
		c-0.564,0-0.905,0.516-1.022,0.74c-0.244-0.643-0.77-0.74-1.052-0.74c-1.012,0-1.567,1.256-1.567,1.5
		c0,0.097,0.097,0.097,0.116,0.097c0.078,0,0.107-0.019,0.126-0.107c0.332-1.031,0.974-1.275,1.306-1.275
		c0.185,0,0.526,0.087,0.526,0.652c0,0.301-0.166,0.955-0.526,2.318c-0.156,0.604-0.496,1.012-0.925,1.012
		c-0.059,0-0.282,0-0.486-0.126c0.243-0.049,0.457-0.253,0.457-0.526c0-0.263-0.214-0.341-0.36-0.341
		c-0.292,0-0.536,0.253-0.536,0.564c0,0.448,0.488,0.643,0.915,0.643c0.643,0,0.994-0.682,1.022-0.74
		c0.117,0.36,0.468,0.74,1.052,0.74c1.003,0,1.558-1.256,1.558-1.5c0-0.097-0.088-0.097-0.117-0.097
		c-0.087,0-0.106,0.038-0.126,0.107c-0.32,1.042-0.983,1.275-1.294,1.275c-0.38,0-0.536-0.311-0.536-0.642
		c0-0.214,0.059-0.429,0.166-0.858L333.224,196.895"/>
	<path d="M338.422,197.401c0-0.759-0.107-1.938-0.643-3.039c-0.583-1.198-1.422-1.831-1.519-1.831c-0.059,0-0.097,0.04-0.097,0.097
		c0,0.029,0,0.05,0.185,0.225c0.953,0.964,1.509,2.512,1.509,4.548c0,1.664-0.36,3.379-1.567,4.605
		c-0.126,0.117-0.126,0.137-0.126,0.166c0,0.059,0.038,0.097,0.097,0.097c0.097,0,0.974-0.663,1.548-1.898
		C338.305,199.299,338.422,198.22,338.422,197.401"/>
</g>
<g>
	<path d="M236.173,300.826c1.344,0.156,1.616,1.052,1.616,1.792c0,0.585-0.146,1.626-1.616,1.801V300.826 M235.365,304.41
		c-1.384-0.185-1.558-1.179-1.558-1.783c0-0.505,0.097-1.597,1.558-1.791V304.41z M236.173,304.634
		c1.51-0.116,2.59-1.022,2.59-2.006c0-1.012-1.109-1.898-2.59-2.015v-0.545c0-0.331,0-0.467,0.925-0.467h0.322v-0.303
		c-0.351,0.029-1.247,0.029-1.647,0.029c-0.4,0-1.304,0-1.655-0.029v0.303h0.322c0.925,0,0.925,0.126,0.925,0.467v0.545
		c-1.49,0.147-2.532,1.043-2.532,2.006c0,1.003,1.081,1.87,2.532,2.015v0.545c0,0.332,0,0.467-0.925,0.467h-0.322v0.302
		c0.351-0.029,1.247-0.029,1.647-0.029c0.398,0,1.304,0,1.655,0.029v-0.302h-0.322c-0.925,0-0.925-0.126-0.925-0.467V304.634z"/>
	<path d="M241.647,303.532v2.513h-1.812L241.647,303.532z M242.946,306.293v-0.248h-0.762v-3.062c0-0.144,0-0.193-0.152-0.193
		c-0.082,0-0.11,0-0.179,0.097l-2.272,3.158v0.248h2.018v0.563c0,0.234,0,0.315-0.555,0.315h-0.186v0.248
		c0.343-0.014,0.784-0.028,1.03-0.028c0.254,0,0.694,0.014,1.038,0.028v-0.248h-0.186c-0.555,0-0.555-0.082-0.555-0.315v-0.563
		H242.946z"/>
	<path d="M246.947,308.286c0-0.029,0-0.048-0.165-0.214c-1.218-1.227-1.529-3.067-1.529-4.557c0-1.695,0.37-3.389,1.567-4.607
		c0.126-0.116,0.126-0.137,0.126-0.166c0-0.068-0.038-0.097-0.097-0.097c-0.097,0-0.974,0.662-1.548,1.899
		c-0.497,1.071-0.614,2.152-0.614,2.97c0,0.759,0.107,1.938,0.643,3.038c0.585,1.197,1.422,1.83,1.519,1.83
		C246.909,308.383,246.947,308.353,246.947,308.286"/>
	<path d="M251.067,299.949c0-0.263-0.225-0.516-0.517-0.516c-0.331,0-0.526,0.273-0.526,0.516c0,0.263,0.225,0.517,0.517,0.517
		C250.872,300.466,251.067,300.193,251.067,299.949"/>
	<path d="M250.734,303.008c0.059-0.253,0.282-1.149,0.964-1.149c0.05,0,0.283,0,0.488,0.126c-0.273,0.049-0.467,0.292-0.467,0.526
		c0,0.156,0.107,0.341,0.37,0.341c0.213,0,0.526-0.175,0.526-0.565c0-0.506-0.576-0.642-0.906-0.642
		c-0.564,0-0.905,0.516-1.022,0.74c-0.244-0.643-0.77-0.74-1.052-0.74c-1.012,0-1.567,1.256-1.567,1.5
		c0,0.097,0.097,0.097,0.116,0.097c0.078,0,0.107-0.019,0.126-0.107c0.332-1.031,0.974-1.275,1.306-1.275
		c0.185,0,0.526,0.087,0.526,0.652c0,0.301-0.166,0.955-0.526,2.318c-0.156,0.604-0.497,1.012-0.925,1.012
		c-0.059,0-0.282,0-0.486-0.126c0.243-0.049,0.457-0.253,0.457-0.526c0-0.263-0.214-0.341-0.36-0.341
		c-0.292,0-0.536,0.253-0.536,0.564c0,0.448,0.488,0.643,0.915,0.643c0.643,0,0.994-0.682,1.022-0.74
		c0.117,0.36,0.468,0.74,1.052,0.74c1.003,0,1.558-1.256,1.558-1.5c0-0.097-0.088-0.097-0.117-0.097
		c-0.087,0-0.106,0.038-0.126,0.107c-0.32,1.042-0.983,1.275-1.294,1.275c-0.38,0-0.536-0.311-0.536-0.642
		c0-0.214,0.059-0.429,0.166-0.858L250.734,303.008"/>
	<path d="M255.014,305.938c0-0.642-0.244-1.022-0.624-1.022c-0.32,0-0.516,0.244-0.516,0.517c0,0.263,0.195,0.516,0.516,0.516
		c0.117,0,0.244-0.04,0.341-0.126c0.029-0.019,0.04-0.029,0.05-0.029c0.009,0,0.019,0.01,0.019,0.146
		c0,0.721-0.341,1.306-0.662,1.626c-0.107,0.107-0.107,0.128-0.107,0.156c0,0.069,0.049,0.107,0.097,0.107
		C254.234,307.827,255.014,307.078,255.014,305.938"/>
	<path d="M260.619,303.008c0.059-0.253,0.282-1.149,0.964-1.149c0.05,0,0.283,0,0.488,0.126c-0.273,0.049-0.467,0.292-0.467,0.526
		c0,0.156,0.107,0.341,0.37,0.341c0.213,0,0.526-0.175,0.526-0.565c0-0.506-0.576-0.642-0.906-0.642
		c-0.564,0-0.905,0.516-1.022,0.74c-0.244-0.643-0.77-0.74-1.052-0.74c-1.012,0-1.567,1.256-1.567,1.5
		c0,0.097,0.097,0.097,0.116,0.097c0.078,0,0.107-0.019,0.126-0.107c0.332-1.031,0.974-1.275,1.306-1.275
		c0.185,0,0.526,0.087,0.526,0.652c0,0.301-0.166,0.955-0.526,2.318c-0.156,0.604-0.497,1.012-0.925,1.012
		c-0.059,0-0.282,0-0.486-0.126c0.243-0.049,0.457-0.253,0.457-0.526c0-0.263-0.214-0.341-0.36-0.341
		c-0.292,0-0.536,0.253-0.536,0.564c0,0.448,0.488,0.643,0.915,0.643c0.643,0,0.994-0.682,1.022-0.74
		c0.117,0.36,0.468,0.74,1.052,0.74c1.003,0,1.558-1.256,1.558-1.5c0-0.097-0.088-0.097-0.117-0.097
		c-0.087,0-0.106,0.038-0.126,0.107c-0.32,1.042-0.983,1.275-1.294,1.275c-0.38,0-0.536-0.311-0.536-0.642
		c0-0.214,0.059-0.429,0.166-0.858L260.619,303.008"/>
	<path d="M265.817,303.514c0-0.759-0.107-1.938-0.643-3.039c-0.583-1.197-1.422-1.83-1.519-1.83c-0.059,0-0.097,0.04-0.097,0.097
		c0,0.029,0,0.05,0.185,0.225c0.953,0.964,1.509,2.512,1.509,4.548c0,1.664-0.36,3.379-1.567,4.605
		c-0.126,0.117-0.126,0.137-0.126,0.166c0,0.059,0.038,0.097,0.097,0.097c0.097,0,0.974-0.663,1.548-1.898
		C265.7,305.412,265.817,304.333,265.817,303.514"/>
</g>
<g>
	<path d="M44.4,176.326c1.344,0.156,1.616,1.052,1.616,1.792c0,0.585-0.146,1.626-1.616,1.801V176.326 M43.592,179.911
		c-1.384-0.185-1.558-1.179-1.558-1.783c0-0.505,0.097-1.597,1.558-1.791V179.911z M44.4,180.134c1.51-0.116,2.59-1.022,2.59-2.006
		c0-1.012-1.109-1.898-2.59-2.015v-0.545c0-0.331,0-0.467,0.925-0.467h0.322v-0.302c-0.351,0.029-1.247,0.029-1.647,0.029
		c-0.4,0-1.304,0-1.655-0.029v0.302h0.322c0.925,0,0.925,0.126,0.925,0.467v0.545c-1.49,0.147-2.532,1.043-2.532,2.006
		c0,1.003,1.081,1.87,2.532,2.015v0.545c0,0.332,0,0.467-0.925,0.467h-0.322v0.302c0.351-0.029,1.247-0.029,1.647-0.029
		c0.398,0,1.304,0,1.655,0.029v-0.302h-0.322c-0.925,0-0.925-0.126-0.925-0.467V180.134z"/>
	<path d="M48.604,179.087c0.35,0.089,0.557,0.089,0.666,0.089c0.906,0,1.441-0.618,1.441-0.721c0-0.075-0.047-0.096-0.082-0.096
		c-0.014,0-0.028,0-0.055,0.02c-0.165,0.063-0.528,0.199-1.038,0.199c-0.191,0-0.555-0.014-1.002-0.185
		c-0.069-0.034-0.083-0.034-0.089-0.034c-0.089,0-0.089,0.075-0.089,0.185v2.026c0,0.117,0,0.199,0.11,0.199
		c0.063,0,0.069-0.014,0.138-0.096c0.295-0.378,0.714-0.433,0.955-0.433c0.411,0,0.597,0.329,0.631,0.384
		c0.124,0.227,0.166,0.488,0.166,0.886c0,0.207,0,0.611-0.207,0.914c-0.171,0.246-0.467,0.411-0.803,0.411
		c-0.447,0-0.906-0.246-1.079-0.699c0.262,0.02,0.392-0.152,0.392-0.337c0-0.295-0.254-0.35-0.343-0.35c-0.014,0-0.343,0-0.343,0.37
		c0,0.618,0.563,1.237,1.387,1.237c0.878,0,1.648-0.652,1.648-1.518c0-0.776-0.591-1.491-1.442-1.491
		c-0.302,0-0.659,0.077-0.961,0.337V179.087"/>
	<path d="M55.174,183.786c0-0.029,0-0.048-0.165-0.214c-1.218-1.227-1.529-3.067-1.529-4.557c0-1.695,0.37-3.389,1.567-4.607
		c0.126-0.116,0.126-0.137,0.126-0.166c0-0.068-0.038-0.097-0.097-0.097c-0.097,0-0.974,0.662-1.548,1.899
		c-0.497,1.071-0.614,2.152-0.614,2.97c0,0.759,0.107,1.938,0.643,3.038c0.585,1.197,1.422,1.83,1.519,1.83
		C55.135,183.883,55.174,183.853,55.174,183.786"/>
	<path d="M59.294,175.449c0-0.263-0.225-0.516-0.517-0.516c-0.331,0-0.526,0.273-0.526,0.516c0,0.263,0.225,0.517,0.517,0.517
		C59.099,175.967,59.294,175.693,59.294,175.449"/>
	<path d="M58.961,178.508c0.059-0.253,0.282-1.149,0.964-1.149c0.05,0,0.283,0,0.488,0.126c-0.273,0.049-0.467,0.292-0.467,0.526
		c0,0.156,0.107,0.341,0.37,0.341c0.213,0,0.526-0.175,0.526-0.565c0-0.506-0.576-0.642-0.906-0.642
		c-0.564,0-0.905,0.516-1.022,0.74c-0.244-0.643-0.77-0.74-1.052-0.74c-1.012,0-1.567,1.256-1.567,1.5
		c0,0.097,0.097,0.097,0.116,0.097c0.078,0,0.107-0.019,0.126-0.107c0.332-1.031,0.974-1.275,1.306-1.275
		c0.185,0,0.526,0.087,0.526,0.652c0,0.301-0.166,0.955-0.526,2.318c-0.156,0.604-0.497,1.012-0.925,1.012
		c-0.059,0-0.282,0-0.486-0.126c0.243-0.049,0.457-0.253,0.457-0.526c0-0.263-0.214-0.341-0.36-0.341
		c-0.292,0-0.536,0.253-0.536,0.564c0,0.448,0.488,0.643,0.915,0.643c0.643,0,0.994-0.682,1.022-0.74
		c0.117,0.36,0.468,0.74,1.052,0.74c1.003,0,1.558-1.256,1.558-1.5c0-0.097-0.088-0.097-0.117-0.097
		c-0.087,0-0.106,0.038-0.126,0.107c-0.32,1.042-0.983,1.275-1.294,1.275c-0.38,0-0.536-0.311-0.536-0.642
		c0-0.214,0.059-0.429,0.166-0.858L58.961,178.508"/>
	<path d="M63.241,181.438c0-0.642-0.244-1.022-0.624-1.022c-0.32,0-0.516,0.244-0.516,0.517c0,0.263,0.195,0.516,0.516,0.516
		c0.117,0,0.244-0.04,0.341-0.126c0.029-0.019,0.04-0.029,0.05-0.029c0.009,0,0.019,0.01,0.019,0.145
		c0,0.721-0.341,1.306-0.662,1.626c-0.107,0.107-0.107,0.128-0.107,0.156c0,0.069,0.049,0.107,0.097,0.107
		C62.461,183.327,63.241,182.578,63.241,181.438"/>
	<path d="M68.845,178.508c0.059-0.253,0.282-1.149,0.964-1.149c0.05,0,0.283,0,0.488,0.126c-0.273,0.049-0.467,0.292-0.467,0.526
		c0,0.156,0.107,0.341,0.37,0.341c0.213,0,0.526-0.175,0.526-0.565c0-0.506-0.576-0.642-0.906-0.642
		c-0.564,0-0.905,0.516-1.022,0.74c-0.244-0.643-0.77-0.74-1.052-0.74c-1.012,0-1.567,1.256-1.567,1.5
		c0,0.097,0.097,0.097,0.116,0.097c0.078,0,0.107-0.019,0.126-0.107c0.332-1.031,0.974-1.275,1.306-1.275
		c0.185,0,0.526,0.087,0.526,0.652c0,0.301-0.166,0.955-0.526,2.318c-0.156,0.604-0.497,1.012-0.925,1.012
		c-0.059,0-0.282,0-0.486-0.126c0.243-0.049,0.457-0.253,0.457-0.526c0-0.263-0.214-0.341-0.36-0.341
		c-0.292,0-0.536,0.253-0.536,0.564c0,0.448,0.488,0.643,0.915,0.643c0.643,0,0.994-0.682,1.022-0.74
		c0.117,0.36,0.468,0.74,1.052,0.74c1.003,0,1.558-1.256,1.558-1.5c0-0.097-0.088-0.097-0.117-0.097
		c-0.087,0-0.106,0.038-0.126,0.107c-0.32,1.042-0.983,1.275-1.294,1.275c-0.38,0-0.536-0.311-0.536-0.642
		c0-0.214,0.059-0.429,0.166-0.858L68.845,178.508"/>
	<path d="M74.044,179.015c0-0.759-0.107-1.938-0.643-3.039c-0.583-1.197-1.422-1.83-1.519-1.83c-0.059,0-0.097,0.04-0.097,0.097
		c0,0.029,0,0.05,0.185,0.225c0.953,0.964,1.509,2.512,1.509,4.548c0,1.664-0.36,3.379-1.567,4.605
		c-0.126,0.117-0.126,0.137-0.126,0.166c0,0.059,0.038,0.097,0.097,0.097c0.097,0,0.974-0.663,1.548-1.898
		C73.927,180.912,74.044,179.833,74.044,179.015"/>
</g>
<g>
	<path d="M143.31,129.377c1.344,0.156,1.616,1.052,1.616,1.792c0,0.585-0.146,1.626-1.616,1.801V129.377 M142.502,132.961
		c-1.384-0.185-1.558-1.179-1.558-1.783c0-0.505,0.097-1.597,1.558-1.791V132.961z M143.31,133.184
		c1.51-0.116,2.59-1.022,2.59-2.006c0-1.012-1.109-1.898-2.59-2.015v-0.545c0-0.331,0-0.467,0.925-0.467h0.322v-0.302
		c-0.351,0.029-1.247,0.029-1.647,0.029s-1.304,0-1.655-0.029v0.302h0.322c0.925,0,0.925,0.126,0.925,0.467v0.545
		c-1.49,0.147-2.532,1.043-2.532,2.006c0,1.003,1.081,1.87,2.532,2.015v0.545c0,0.332,0,0.467-0.925,0.467h-0.322v0.303
		c0.351-0.029,1.247-0.029,1.647-0.029c0.398,0,1.304,0,1.655,0.029v-0.303h-0.322c-0.925,0-0.925-0.126-0.925-0.467V133.184z"/>
	<path d="M148.414,135.886c-0.343,0-0.611-0.199-0.756-0.5c-0.103-0.207-0.158-0.55-0.158-0.961c0-0.666,0.398-1.182,0.947-1.182
		c0.317,0,0.53,0.124,0.701,0.378c0.165,0.262,0.172,0.55,0.172,0.948c0,0.391,0,0.679-0.186,0.947
		C148.97,135.756,148.75,135.886,148.414,135.886 M147.48,133.724c0-0.563,0.048-1.071,0.309-1.49
		c0.234-0.371,0.604-0.625,1.044-0.625c0.206,0,0.48,0.055,0.618,0.24c-0.172,0.014-0.317,0.132-0.317,0.331
		c0,0.171,0.117,0.322,0.323,0.322c0.207,0,0.329-0.137,0.329-0.336c0-0.398-0.288-0.756-0.968-0.756
		c-0.989,0-1.999,0.906-1.999,2.383c0,1.778,0.839,2.314,1.594,2.314c0.837,0,1.565-0.639,1.565-1.538
		c0-0.873-0.693-1.518-1.497-1.518C147.933,133.051,147.631,133.415,147.48,133.724z"/>
	<path d="M154.084,136.836c0-0.029,0-0.048-0.165-0.214c-1.218-1.227-1.529-3.067-1.529-4.557c0-1.695,0.37-3.389,1.567-4.607
		c0.126-0.116,0.126-0.137,0.126-0.166c0-0.068-0.038-0.097-0.097-0.097c-0.097,0-0.974,0.662-1.548,1.899
		c-0.497,1.071-0.614,2.152-0.614,2.97c0,0.759,0.107,1.938,0.643,3.038c0.585,1.197,1.422,1.83,1.519,1.83
		C154.046,136.933,154.084,136.903,154.084,136.836"/>
	<path d="M158.204,128.5c0-0.263-0.225-0.516-0.517-0.516c-0.331,0-0.526,0.273-0.526,0.516c0,0.263,0.225,0.517,0.517,0.517
		C158.009,129.017,158.204,128.743,158.204,128.5"/>
	<path d="M157.871,131.558c0.059-0.253,0.282-1.149,0.964-1.149c0.05,0,0.283,0,0.488,0.126c-0.273,0.049-0.467,0.292-0.467,0.526
		c0,0.156,0.107,0.341,0.37,0.341c0.213,0,0.526-0.175,0.526-0.565c0-0.505-0.576-0.642-0.906-0.642
		c-0.564,0-0.905,0.516-1.022,0.74c-0.244-0.643-0.77-0.74-1.052-0.74c-1.012,0-1.567,1.256-1.567,1.5
		c0,0.097,0.097,0.097,0.116,0.097c0.078,0,0.107-0.019,0.126-0.107c0.332-1.031,0.974-1.275,1.306-1.275
		c0.185,0,0.526,0.087,0.526,0.652c0,0.301-0.166,0.955-0.526,2.318c-0.156,0.604-0.497,1.012-0.925,1.012
		c-0.059,0-0.282,0-0.486-0.126c0.243-0.049,0.457-0.253,0.457-0.526c0-0.263-0.214-0.341-0.36-0.341
		c-0.292,0-0.536,0.253-0.536,0.564c0,0.448,0.488,0.643,0.915,0.643c0.643,0,0.994-0.682,1.022-0.74
		c0.117,0.36,0.468,0.74,1.052,0.74c1.003,0,1.558-1.256,1.558-1.5c0-0.097-0.088-0.097-0.117-0.097
		c-0.087,0-0.106,0.038-0.126,0.107c-0.32,1.042-0.983,1.275-1.294,1.275c-0.38,0-0.536-0.311-0.536-0.642
		c0-0.214,0.059-0.429,0.166-0.858L157.871,131.558"/>
	<path d="M162.151,134.488c0-0.642-0.244-1.022-0.624-1.022c-0.32,0-0.516,0.244-0.516,0.517c0,0.263,0.195,0.516,0.516,0.516
		c0.117,0,0.244-0.04,0.341-0.126c0.029-0.019,0.04-0.029,0.05-0.029c0.009,0,0.019,0.01,0.019,0.145
		c0,0.721-0.341,1.306-0.662,1.626c-0.107,0.107-0.107,0.128-0.107,0.156c0,0.069,0.049,0.107,0.097,0.107
		C161.371,136.378,162.151,135.628,162.151,134.488"/>
	<path d="M167.756,131.558c0.059-0.253,0.282-1.149,0.964-1.149c0.05,0,0.283,0,0.488,0.126c-0.273,0.049-0.467,0.292-0.467,0.526
		c0,0.156,0.107,0.341,0.37,0.341c0.213,0,0.526-0.175,0.526-0.565c0-0.505-0.576-0.642-0.906-0.642
		c-0.564,0-0.905,0.516-1.022,0.74c-0.244-0.643-0.77-0.74-1.052-0.74c-1.012,0-1.567,1.256-1.567,1.5
		c0,0.097,0.097,0.097,0.116,0.097c0.078,0,0.107-0.019,0.126-0.107c0.332-1.031,0.974-1.275,1.306-1.275
		c0.185,0,0.526,0.087,0.526,0.652c0,0.301-0.166,0.955-0.526,2.318c-0.156,0.604-0.497,1.012-0.925,1.012
		c-0.059,0-0.282,0-0.486-0.126c0.243-0.049,0.457-0.253,0.457-0.526c0-0.263-0.214-0.341-0.36-0.341
		c-0.292,0-0.536,0.253-0.536,0.564c0,0.448,0.488,0.643,0.915,0.643c0.643,0,0.994-0.682,1.022-0.74
		c0.117,0.36,0.468,0.74,1.052,0.74c1.003,0,1.558-1.256,1.558-1.5c0-0.097-0.088-0.097-0.117-0.097
		c-0.087,0-0.106,0.038-0.126,0.107c-0.32,1.042-0.983,1.275-1.294,1.275c-0.38,0-0.536-0.311-0.536-0.642
		c0-0.214,0.059-0.429,0.166-0.858L167.756,131.558"/>
	<path d="M172.954,132.065c0-0.759-0.107-1.938-0.643-3.039c-0.583-1.197-1.422-1.83-1.519-1.83c-0.059,0-0.097,0.04-0.097,0.097
		c0,0.029,0,0.05,0.185,0.225c0.953,0.964,1.509,2.512,1.509,4.548c0,1.664-0.36,3.379-1.567,4.605
		c-0.126,0.117-0.126,0.137-0.126,0.166c0,0.059,0.038,0.097,0.097,0.097c0.097,0,0.974-0.662,1.548-1.898
		C172.837,133.963,172.954,132.883,172.954,132.065"/>
</g>
<g>
	<path d="M238.373,146.899c1.344,0.156,1.616,1.052,1.616,1.792c0,0.585-0.146,1.626-1.616,1.801V146.899 M237.565,150.483
		c-1.384-0.185-1.558-1.179-1.558-1.783c0-0.505,0.097-1.597,1.558-1.791V150.483z M238.373,150.707
		c1.51-0.116,2.59-1.022,2.59-2.006c0-1.012-1.109-1.898-2.59-2.015v-0.545c0-0.331,0-0.467,0.925-0.467h0.322v-0.302
		c-0.351,0.029-1.247,0.029-1.647,0.029c-0.4,0-1.304,0-1.655-0.029v0.302h0.322c0.925,0,0.925,0.126,0.925,0.467v0.545
		c-1.49,0.147-2.532,1.043-2.532,2.006c0,1.003,1.081,1.87,2.532,2.015v0.545c0,0.332,0,0.467-0.925,0.467h-0.322v0.303
		c0.351-0.029,1.247-0.029,1.647-0.029c0.398,0,1.304,0,1.655,0.029v-0.303h-0.322c-0.925,0-0.925-0.126-0.925-0.467V150.707z"/>
	<path d="M245.186,149.345c0.069-0.083,0.069-0.097,0.069-0.274h-1.8c-0.274,0-0.35-0.008-0.597-0.028
		c-0.356-0.027-0.37-0.075-0.391-0.193h-0.234l-0.24,1.47h0.232c0.014-0.103,0.083-0.557,0.193-0.625
		c0.055-0.041,0.611-0.041,0.715-0.041h1.496c-0.219,0.288-0.569,0.713-0.713,0.906c-0.9,1.181-0.982,2.273-0.982,2.678
		c0,0.075,0,0.392,0.322,0.392c0.331,0,0.331-0.309,0.331-0.398v-0.276c0-1.331,0.274-1.943,0.569-2.313L245.186,149.345"/>
	<path d="M249.147,154.359c0-0.029,0-0.048-0.165-0.214c-1.218-1.227-1.529-3.067-1.529-4.557c0-1.695,0.37-3.389,1.567-4.607
		c0.126-0.116,0.126-0.137,0.126-0.166c0-0.068-0.038-0.097-0.097-0.097c-0.097,0-0.974,0.662-1.548,1.899
		c-0.497,1.071-0.614,2.152-0.614,2.97c0,0.759,0.107,1.938,0.643,3.038c0.585,1.197,1.422,1.83,1.519,1.83
		C249.109,154.456,249.147,154.426,249.147,154.359"/>
	<path d="M253.267,146.022c0-0.263-0.225-0.516-0.517-0.516c-0.331,0-0.526,0.273-0.526,0.516c0,0.263,0.225,0.517,0.517,0.517
		C253.072,146.539,253.267,146.266,253.267,146.022"/>
	<path d="M252.934,149.081c0.059-0.253,0.282-1.149,0.964-1.149c0.05,0,0.283,0,0.488,0.126c-0.273,0.049-0.467,0.292-0.467,0.526
		c0,0.156,0.107,0.341,0.37,0.341c0.213,0,0.526-0.175,0.526-0.565c0-0.505-0.576-0.642-0.906-0.642
		c-0.564,0-0.905,0.516-1.022,0.74c-0.244-0.643-0.77-0.74-1.052-0.74c-1.012,0-1.567,1.256-1.567,1.5
		c0,0.097,0.097,0.097,0.116,0.097c0.078,0,0.107-0.019,0.126-0.107c0.332-1.031,0.974-1.275,1.306-1.275
		c0.185,0,0.526,0.087,0.526,0.652c0,0.301-0.166,0.955-0.526,2.318c-0.156,0.604-0.497,1.012-0.925,1.012
		c-0.059,0-0.282,0-0.486-0.126c0.243-0.049,0.457-0.253,0.457-0.526c0-0.263-0.214-0.341-0.36-0.341
		c-0.292,0-0.536,0.253-0.536,0.564c0,0.448,0.488,0.643,0.915,0.643c0.643,0,0.994-0.682,1.022-0.74
		c0.117,0.36,0.468,0.74,1.052,0.74c1.003,0,1.558-1.256,1.558-1.5c0-0.097-0.088-0.097-0.117-0.097
		c-0.087,0-0.106,0.038-0.126,0.107c-0.32,1.042-0.983,1.275-1.294,1.275c-0.38,0-0.536-0.311-0.536-0.642
		c0-0.214,0.059-0.429,0.166-0.858L252.934,149.081"/>
	<path d="M257.214,152.011c0-0.642-0.244-1.022-0.624-1.022c-0.32,0-0.516,0.244-0.516,0.517c0,0.263,0.195,0.516,0.516,0.516
		c0.117,0,0.244-0.04,0.341-0.126c0.029-0.019,0.04-0.029,0.05-0.029c0.009,0,0.019,0.01,0.019,0.145
		c0,0.721-0.341,1.306-0.662,1.626c-0.107,0.107-0.107,0.128-0.107,0.156c0,0.069,0.049,0.107,0.097,0.107
		C256.434,153.9,257.214,153.151,257.214,152.011"/>
	<path d="M262.819,149.081c0.059-0.253,0.282-1.149,0.964-1.149c0.05,0,0.283,0,0.488,0.126c-0.273,0.049-0.467,0.292-0.467,0.526
		c0,0.156,0.107,0.341,0.37,0.341c0.213,0,0.526-0.175,0.526-0.565c0-0.505-0.576-0.642-0.906-0.642
		c-0.564,0-0.905,0.516-1.022,0.74c-0.244-0.643-0.77-0.74-1.052-0.74c-1.012,0-1.567,1.256-1.567,1.5
		c0,0.097,0.097,0.097,0.116,0.097c0.078,0,0.107-0.019,0.126-0.107c0.332-1.031,0.974-1.275,1.306-1.275
		c0.185,0,0.526,0.087,0.526,0.652c0,0.301-0.166,0.955-0.526,2.318c-0.156,0.604-0.496,1.012-0.925,1.012
		c-0.059,0-0.282,0-0.486-0.126c0.243-0.049,0.457-0.253,0.457-0.526c0-0.263-0.214-0.341-0.36-0.341
		c-0.292,0-0.536,0.253-0.536,0.564c0,0.448,0.488,0.643,0.915,0.643c0.643,0,0.994-0.682,1.022-0.74
		c0.117,0.36,0.468,0.74,1.052,0.74c1.003,0,1.558-1.256,1.558-1.5c0-0.097-0.088-0.097-0.117-0.097
		c-0.087,0-0.106,0.038-0.126,0.107c-0.32,1.042-0.983,1.275-1.294,1.275c-0.38,0-0.536-0.311-0.536-0.642
		c0-0.214,0.059-0.429,0.166-0.858L262.819,149.081"/>
	<path d="M268.017,149.587c0-0.759-0.107-1.938-0.643-3.039c-0.583-1.197-1.422-1.83-1.519-1.83c-0.059,0-0.097,0.04-0.097,0.097
		c0,0.029,0,0.05,0.185,0.225c0.953,0.964,1.509,2.512,1.509,4.548c0,1.664-0.36,3.379-1.567,4.605
		c-0.126,0.117-0.126,0.137-0.126,0.166c0,0.059,0.038,0.097,0.097,0.097c0.097,0,0.974-0.663,1.548-1.898
		C267.9,151.485,268.017,150.406,268.017,149.587"/>
</g>
<g>
	<path d="M165.462,226.485c1.344,0.156,1.616,1.052,1.616,1.792c0,0.585-0.146,1.626-1.616,1.801V226.485 M164.654,230.07
		c-1.384-0.185-1.558-1.179-1.558-1.783c0-0.505,0.097-1.597,1.558-1.791V230.07z M165.462,230.293
		c1.51-0.116,2.59-1.022,2.59-2.007c0-1.012-1.109-1.898-2.59-2.015v-0.545c0-0.331,0-0.467,0.925-0.467h0.322v-0.303
		c-0.351,0.029-1.247,0.029-1.647,0.029s-1.304,0-1.655-0.029v0.303h0.322c0.925,0,0.925,0.126,0.925,0.467v0.545
		c-1.49,0.147-2.532,1.043-2.532,2.007c0,1.003,1.081,1.87,2.532,2.015v0.545c0,0.332,0,0.467-0.925,0.467h-0.322v0.303
		c0.351-0.029,1.247-0.029,1.647-0.029c0.398,0,1.304,0,1.656,0.029v-0.303h-0.322c-0.925,0-0.925-0.126-0.925-0.467V230.293z"/>
	<path d="M170.256,230.902l0.941,0.542c0.179,0.102,0.522,0.309,0.522,0.714c0,0.516-0.569,0.837-1.16,0.837
		c-0.632,0-1.174-0.405-1.174-0.968C169.384,231.52,169.762,231.128,170.256,230.902 M169.92,229.947
		c-0.179-0.103-0.371-0.288-0.371-0.542c0-0.433,0.502-0.687,0.996-0.687c0.536,0,1.01,0.337,1.01,0.825
		c0,0.61-0.714,0.919-0.728,0.919c-0.014,0-0.028-0.006-0.075-0.033L169.92,229.947z M171.04,230.599
		c0.535-0.26,0.878-0.583,0.878-1.057c0-0.666-0.693-1.024-1.359-1.024c-0.756,0-1.373,0.494-1.373,1.146
		c0,0.323,0.152,0.557,0.274,0.694c0.124,0.144,0.172,0.171,0.577,0.411c-0.384,0.166-1.065,0.536-1.065,1.257
		c0,0.762,0.79,1.188,1.572,1.188c0.873,0,1.587-0.557,1.587-1.298c0-0.453-0.268-0.837-0.666-1.071
		C171.375,230.792,171.135,230.654,171.04,230.599z"/>
	<path d="M176.236,233.945c0-0.029,0-0.048-0.165-0.214c-1.218-1.227-1.529-3.067-1.529-4.557c0-1.695,0.37-3.389,1.567-4.607
		c0.126-0.116,0.126-0.137,0.126-0.166c0-0.068-0.038-0.097-0.097-0.097c-0.097,0-0.974,0.662-1.548,1.899
		c-0.497,1.071-0.614,2.152-0.614,2.97c0,0.759,0.107,1.938,0.643,3.038c0.585,1.197,1.422,1.83,1.519,1.83
		C176.198,234.042,176.236,234.012,176.236,233.945"/>
	<path d="M180.356,225.608c0-0.263-0.225-0.516-0.517-0.516c-0.331,0-0.526,0.273-0.526,0.516c0,0.263,0.225,0.517,0.517,0.517
		C180.161,226.125,180.356,225.852,180.356,225.608"/>
	<path d="M180.023,228.667c0.059-0.253,0.282-1.149,0.964-1.149c0.05,0,0.283,0,0.488,0.126c-0.273,0.049-0.467,0.292-0.467,0.526
		c0,0.156,0.107,0.341,0.37,0.341c0.213,0,0.526-0.175,0.526-0.565c0-0.505-0.576-0.642-0.906-0.642
		c-0.564,0-0.905,0.516-1.022,0.74c-0.244-0.643-0.77-0.74-1.052-0.74c-1.012,0-1.567,1.256-1.567,1.5
		c0,0.097,0.097,0.097,0.116,0.097c0.078,0,0.107-0.019,0.126-0.107c0.332-1.031,0.974-1.275,1.306-1.275
		c0.185,0,0.526,0.087,0.526,0.652c0,0.301-0.166,0.955-0.526,2.318c-0.156,0.604-0.497,1.012-0.925,1.012
		c-0.059,0-0.282,0-0.486-0.126c0.243-0.049,0.457-0.253,0.457-0.526c0-0.263-0.214-0.341-0.36-0.341
		c-0.292,0-0.536,0.253-0.536,0.564c0,0.448,0.488,0.643,0.915,0.643c0.643,0,0.994-0.682,1.022-0.74
		c0.117,0.36,0.468,0.74,1.052,0.74c1.003,0,1.558-1.256,1.558-1.5c0-0.097-0.088-0.097-0.117-0.097
		c-0.087,0-0.106,0.038-0.126,0.107c-0.32,1.042-0.983,1.275-1.294,1.275c-0.38,0-0.536-0.311-0.536-0.642
		c0-0.214,0.059-0.429,0.166-0.858L180.023,228.667"/>
	<path d="M184.303,231.597c0-0.642-0.244-1.022-0.624-1.022c-0.32,0-0.516,0.244-0.516,0.517c0,0.263,0.195,0.516,0.516,0.516
		c0.117,0,0.244-0.04,0.341-0.126c0.029-0.019,0.04-0.029,0.05-0.029c0.009,0,0.019,0.01,0.019,0.146
		c0,0.721-0.341,1.306-0.662,1.626c-0.107,0.107-0.107,0.128-0.107,0.156c0,0.069,0.049,0.107,0.097,0.107
		C183.523,233.486,184.303,232.737,184.303,231.597"/>
	<path d="M189.908,228.667c0.059-0.253,0.282-1.149,0.964-1.149c0.05,0,0.283,0,0.488,0.126c-0.273,0.049-0.467,0.292-0.467,0.526
		c0,0.156,0.107,0.341,0.37,0.341c0.213,0,0.526-0.175,0.526-0.565c0-0.505-0.576-0.642-0.906-0.642
		c-0.564,0-0.905,0.516-1.022,0.74c-0.244-0.643-0.77-0.74-1.052-0.74c-1.012,0-1.567,1.256-1.567,1.5
		c0,0.097,0.097,0.097,0.116,0.097c0.078,0,0.107-0.019,0.126-0.107c0.332-1.031,0.974-1.275,1.306-1.275
		c0.185,0,0.526,0.087,0.526,0.652c0,0.301-0.166,0.955-0.526,2.318c-0.156,0.604-0.497,1.012-0.925,1.012
		c-0.059,0-0.282,0-0.486-0.126c0.243-0.049,0.457-0.253,0.457-0.526c0-0.263-0.214-0.341-0.36-0.341
		c-0.292,0-0.536,0.253-0.536,0.564c0,0.448,0.488,0.643,0.915,0.643c0.643,0,0.994-0.682,1.022-0.74
		c0.117,0.36,0.468,0.74,1.052,0.74c1.003,0,1.558-1.256,1.558-1.5c0-0.097-0.088-0.097-0.117-0.097
		c-0.087,0-0.106,0.038-0.126,0.107c-0.32,1.042-0.983,1.275-1.294,1.275c-0.38,0-0.536-0.311-0.536-0.642
		c0-0.214,0.059-0.429,0.166-0.858L189.908,228.667"/>
	<path d="M195.106,229.174c0-0.759-0.107-1.938-0.643-3.039c-0.583-1.197-1.422-1.83-1.519-1.83c-0.059,0-0.097,0.04-0.097,0.097
		c0,0.029,0,0.05,0.185,0.225c0.953,0.964,1.509,2.512,1.509,4.548c0,1.664-0.36,3.379-1.567,4.605
		c-0.126,0.117-0.126,0.137-0.126,0.166c0,0.059,0.038,0.097,0.097,0.097c0.097,0,0.974-0.662,1.548-1.898
		C194.989,231.072,195.106,229.992,195.106,229.174"/>
</g>
<circle fill="#FFFFFF" stroke="#000000" stroke-miterlimit="10" cx="193.702" cy="169.395" r="93.037"/>
<circle fill="none" stroke="#000000" stroke-miterlimit="10" cx="193.462" cy="169.395" r="93.037"/>
<g>
	<defs>
		<rect id="SVGID_1_" x="177.553" y="162.895" width="42" height="13"/>
	</defs>
	<clipPath id="SVGID_2_">
		<use xlink:href="#SVGID_1_"  overflow="visible"/>
	</clipPath>
	<path clip-path="url(#SVGID_2_)" d="M182.309,165.825c1.645,0.191,1.978,1.287,1.978,2.194c0,0.716-0.178,1.991-1.978,2.205
		V165.825 M181.32,170.212c-1.694-0.227-1.908-1.444-1.908-2.183c0-0.619,0.119-1.955,1.908-2.192V170.212z M182.309,170.486
		c1.848-0.142,3.17-1.252,3.17-2.456c0-1.239-1.358-2.323-3.17-2.467v-0.667c0-0.405,0-0.572,1.133-0.572h0.394v-0.37
		c-0.43,0.036-1.527,0.036-2.016,0.036s-1.597,0-2.027-0.036v0.37h0.394c1.133,0,1.133,0.155,1.133,0.572v0.667
		c-1.823,0.18-3.1,1.277-3.1,2.456c0,1.228,1.323,2.289,3.1,2.467v0.667c0,0.406,0,0.572-1.133,0.572h-0.394v0.37
		c0.43-0.036,1.527-0.036,2.016-0.036c0.488,0,1.597,0,2.027,0.036v-0.37h-0.394c-1.133,0-1.133-0.155-1.133-0.572V170.486z"/>
	<path clip-path="url(#SVGID_2_)" d="M188.54,173.828c-0.387,0-0.9-0.227-1.067-0.916c-0.119-0.497-0.119-1.186-0.119-1.808
		c0-0.614,0-1.253,0.127-1.714c0.177-0.664,0.714-0.841,1.059-0.841c0.453,0,0.891,0.277,1.042,0.764
		c0.134,0.455,0.142,1.059,0.142,1.791c0,0.622,0,1.244-0.109,1.773C189.448,173.643,188.876,173.828,188.54,173.828
		 M190.49,171.214c0-0.925-0.109-1.589-0.497-2.177c-0.259-0.387-0.781-0.723-1.453-0.723c-1.95,0-1.95,2.295-1.95,2.9
		s0,2.85,1.95,2.85S190.49,171.818,190.49,171.214z"/>
	<path clip-path="url(#SVGID_2_)" d="M195.498,174.956c0-0.036,0-0.059-0.201-0.262c-1.491-1.502-1.872-3.755-1.872-5.578
		c0-2.075,0.453-4.148,1.919-5.639c0.155-0.142,0.155-0.167,0.155-0.203c0-0.083-0.047-0.119-0.119-0.119
		c-0.119,0-1.192,0.811-1.895,2.325c-0.608,1.311-0.752,2.634-0.752,3.636c0,0.93,0.131,2.372,0.788,3.719
		c0.716,1.466,1.741,2.241,1.859,2.241C195.451,175.075,195.498,175.039,195.498,174.956"/>
	<path clip-path="url(#SVGID_2_)" d="M200.542,164.751c0-0.322-0.275-0.631-0.633-0.631c-0.405,0-0.644,0.334-0.644,0.631
		c0,0.322,0.275,0.633,0.633,0.633C200.302,165.384,200.542,165.05,200.542,164.751"/>
	<path clip-path="url(#SVGID_2_)" d="M200.134,168.495c0.072-0.309,0.345-1.406,1.18-1.406c0.061,0,0.347,0,0.597,0.155
		c-0.334,0.059-0.572,0.358-0.572,0.644c0,0.191,0.131,0.417,0.453,0.417c0.261,0,0.644-0.214,0.644-0.692
		c0-0.619-0.705-0.786-1.109-0.786c-0.691,0-1.108,0.631-1.252,0.906c-0.298-0.788-0.942-0.906-1.287-0.906
		c-1.239,0-1.919,1.538-1.919,1.836c0,0.119,0.119,0.119,0.142,0.119c0.095,0,0.131-0.023,0.155-0.131
		c0.406-1.262,1.192-1.561,1.598-1.561c0.227,0,0.644,0.106,0.644,0.798c0,0.369-0.203,1.169-0.644,2.837
		c-0.191,0.739-0.608,1.239-1.133,1.239c-0.072,0-0.345,0-0.595-0.155c0.297-0.059,0.559-0.309,0.559-0.644
		c0-0.322-0.262-0.417-0.441-0.417c-0.358,0-0.656,0.309-0.656,0.691c0,0.548,0.597,0.787,1.12,0.787
		c0.788,0,1.217-0.834,1.252-0.906c0.144,0.441,0.573,0.906,1.288,0.906c1.228,0,1.908-1.537,1.908-1.836
		c0-0.119-0.108-0.119-0.144-0.119c-0.106,0-0.13,0.047-0.155,0.131c-0.392,1.275-1.203,1.561-1.584,1.561
		c-0.466,0-0.656-0.381-0.656-0.786c0-0.262,0.072-0.525,0.203-1.05L200.134,168.495"/>
	<path clip-path="url(#SVGID_2_)" d="M205.373,172.083c0-0.786-0.298-1.252-0.764-1.252c-0.392,0-0.631,0.298-0.631,0.633
		c0,0.322,0.239,0.631,0.631,0.631c0.144,0,0.298-0.048,0.417-0.155c0.036-0.023,0.048-0.036,0.061-0.036
		c0.011,0,0.023,0.012,0.023,0.178c0,0.883-0.417,1.598-0.811,1.991c-0.131,0.131-0.131,0.156-0.131,0.191
		c0,0.084,0.059,0.131,0.119,0.131C204.418,174.395,205.373,173.478,205.373,172.083"/>
	<path clip-path="url(#SVGID_2_)" d="M212.234,168.495c0.072-0.309,0.345-1.406,1.18-1.406c0.061,0,0.347,0,0.597,0.155
		c-0.334,0.059-0.572,0.358-0.572,0.644c0,0.191,0.131,0.417,0.453,0.417c0.261,0,0.644-0.214,0.644-0.692
		c0-0.619-0.705-0.786-1.109-0.786c-0.691,0-1.108,0.631-1.251,0.906c-0.299-0.788-0.942-0.906-1.288-0.906
		c-1.239,0-1.919,1.538-1.919,1.836c0,0.119,0.119,0.119,0.142,0.119c0.095,0,0.131-0.023,0.155-0.131
		c0.406-1.262,1.192-1.561,1.598-1.561c0.227,0,0.644,0.106,0.644,0.798c0,0.369-0.203,1.169-0.644,2.837
		c-0.191,0.739-0.608,1.239-1.133,1.239c-0.072,0-0.345,0-0.595-0.155c0.297-0.059,0.559-0.309,0.559-0.644
		c0-0.322-0.262-0.417-0.441-0.417c-0.358,0-0.656,0.309-0.656,0.691c0,0.548,0.597,0.787,1.12,0.787
		c0.788,0,1.217-0.834,1.252-0.906c0.144,0.441,0.573,0.906,1.287,0.906c1.228,0,1.908-1.537,1.908-1.836
		c0-0.119-0.108-0.119-0.144-0.119c-0.106,0-0.13,0.047-0.155,0.131c-0.392,1.275-1.203,1.561-1.584,1.561
		c-0.466,0-0.656-0.381-0.656-0.786c0-0.262,0.072-0.525,0.203-1.05L212.234,168.495"/>
	<path clip-path="url(#SVGID_2_)" d="M218.598,169.115c0-0.93-0.131-2.372-0.788-3.72c-0.714-1.466-1.741-2.241-1.859-2.241
		c-0.072,0-0.119,0.048-0.119,0.119c0,0.036,0,0.061,0.227,0.275c1.167,1.18,1.847,3.075,1.847,5.567
		c0,2.037-0.441,4.136-1.919,5.637c-0.155,0.144-0.155,0.167-0.155,0.203c0,0.072,0.047,0.119,0.119,0.119
		c0.119,0,1.192-0.811,1.895-2.323C218.454,171.439,218.598,170.117,218.598,169.115"/>
</g>
</svg>
