<?xml version="1.0" encoding="utf-8"?>
<!-- Generator: Adobe Illustrator 18.0.0, SVG Export Plug-In . SVG Version: 6.00 Build 0)  -->
<!DOCTYPE svg PUBLIC "-//W3C//DTD SVG 1.1//EN" "http://www.w3.org/Graphics/SVG/1.1/DTD/svg11.dtd">
<svg version="1.1" id="Layer_1" xmlns="http://www.w3.org/2000/svg" xmlns:xlink="http://www.w3.org/1999/xlink" x="0px" y="0px"
	 viewBox="0 0 217 87.5" enable-background="new 0 0 217 87.5" xml:space="preserve">
<g>
	<path fill="none" stroke="#BC2025" stroke-miterlimit="10" d="M18.196,15.075c0,0,40.509,6.115,58.128,32.483"/>
	<path fill="none" stroke="#BC2025" stroke-miterlimit="10" d="M2.354,34.851c0,0,40.509,6.115,58.128,32.483"/>
	<path fill="none" stroke="#BC2025" stroke-miterlimit="10" d="M68.403,15.075c0,0-40.509,6.115-58.128,32.483"/>
	<path fill="none" stroke="#BC2025" stroke-miterlimit="10" d="M84.245,34.851c0,0-40.509,6.115-58.128,32.483"/>
</g>
<g>
	<g>
		<line fill="none" stroke="#000000" stroke-width="0.5" stroke-miterlimit="10" x1="42.236" y1="36.254" x2="12.628" y2="22.407"/>
		<g>
			<circle cx="42.151" cy="36.214" r="1.88"/>
		</g>
		<g>
			<polygon points="14.141,21.51 8.616,20.53 12.91,24.142 			"/>
		</g>
	</g>
</g>
<polyline fill="none" stroke="#000000" stroke-miterlimit="10" points="147.667,11.241 147.667,75.667 215,75.667 "/>
<path fill="none" stroke="#ED1F24" stroke-miterlimit="10" d="M156.646,14.707c0.976,54.117,0.976,54.117,50.827,54.117"/>
<ellipse cx="157.913" cy="45.312" rx="2.385" ry="2.346"/>
<path d="M49.333,35.979c0.072-0.309,0.345-1.406,1.18-1.406c0.061,0,0.347,0,0.597,0.155c-0.334,0.059-0.572,0.358-0.572,0.644
	c0,0.191,0.131,0.417,0.453,0.417c0.261,0,0.644-0.214,0.644-0.692c0-0.619-0.705-0.786-1.109-0.786
	c-0.691,0-1.108,0.631-1.251,0.906c-0.299-0.787-0.942-0.906-1.288-0.906c-1.239,0-1.919,1.538-1.919,1.836
	c0,0.119,0.119,0.119,0.142,0.119c0.095,0,0.131-0.023,0.155-0.131c0.406-1.263,1.192-1.561,1.598-1.561
	c0.227,0,0.644,0.106,0.644,0.799c0,0.369-0.203,1.169-0.644,2.837c-0.191,0.739-0.608,1.239-1.133,1.239
	c-0.072,0-0.345,0-0.595-0.155c0.297-0.059,0.559-0.309,0.559-0.644c0-0.322-0.263-0.417-0.441-0.417
	c-0.358,0-0.656,0.309-0.656,0.691c0,0.549,0.597,0.788,1.12,0.788c0.787,0,1.217-0.834,1.252-0.906
	c0.144,0.441,0.573,0.906,1.288,0.906c1.228,0,1.908-1.538,1.908-1.836c0-0.119-0.108-0.119-0.144-0.119
	c-0.106,0-0.13,0.047-0.155,0.131c-0.392,1.275-1.203,1.561-1.584,1.561c-0.466,0-0.656-0.381-0.656-0.786
	c0-0.263,0.072-0.525,0.203-1.05L49.333,35.979"/>
<g>
	<path d="M4.558,17.727c-0.059,0.214-0.059,0.239-0.239,0.441c-0.525,0.656-1.012,0.847-1.347,0.847
		c-0.595,0-0.762-0.656-0.762-1.12c0-0.597,0.381-2.062,0.655-2.611c0.37-0.703,0.906-1.144,1.383-1.144
		c0.775,0,0.942,0.977,0.942,1.048c0,0.072-0.023,0.144-0.036,0.203L4.558,17.727 M7.038,11.004c0-0.011,0-0.131-0.156-0.131
		c-0.178,0-1.311,0.108-1.513,0.131c-0.095,0.013-0.167,0.072-0.167,0.227c0,0.144,0.106,0.144,0.286,0.144
		c0.572,0,0.595,0.083,0.595,0.203l-0.036,0.237L5.333,14.64c-0.216-0.441-0.561-0.763-1.097-0.763
		c-1.395,0-2.873,1.752-2.873,3.492c0,1.12,0.656,1.908,1.586,1.908c0.237,0,0.834-0.048,1.55-0.894
		c0.095,0.5,0.512,0.894,1.084,0.894c0.417,0,0.691-0.275,0.881-0.656c0.203-0.428,0.358-1.156,0.358-1.18
		c0-0.119-0.106-0.119-0.142-0.119c-0.12,0-0.131,0.047-0.167,0.214c-0.203,0.775-0.417,1.478-0.906,1.478
		c-0.322,0-0.358-0.309-0.358-0.548c0-0.286,0.025-0.369,0.072-0.572L7.038,11.004z"/>
	<path d="M11.068,15.546c0.072-0.309,0.345-1.406,1.18-1.406c0.061,0,0.347,0,0.597,0.155c-0.334,0.059-0.572,0.358-0.572,0.644
		c0,0.191,0.131,0.417,0.453,0.417c0.261,0,0.644-0.214,0.644-0.692c0-0.619-0.705-0.786-1.109-0.786
		c-0.691,0-1.108,0.631-1.252,0.906c-0.299-0.788-0.942-0.906-1.288-0.906c-1.239,0-1.919,1.537-1.919,1.836
		c0,0.119,0.119,0.119,0.142,0.119c0.095,0,0.131-0.023,0.155-0.131c0.406-1.263,1.192-1.561,1.598-1.561
		c0.227,0,0.644,0.106,0.644,0.798c0,0.369-0.203,1.169-0.644,2.838c-0.191,0.739-0.608,1.239-1.133,1.239
		c-0.072,0-0.345,0-0.595-0.155c0.297-0.059,0.559-0.309,0.559-0.644c0-0.322-0.262-0.417-0.441-0.417
		c-0.358,0-0.656,0.309-0.656,0.691c0,0.549,0.597,0.787,1.12,0.787c0.788,0,1.217-0.834,1.252-0.906
		c0.144,0.441,0.573,0.906,1.288,0.906c1.228,0,1.908-1.537,1.908-1.836c0-0.119-0.108-0.119-0.144-0.119
		c-0.106,0-0.13,0.047-0.155,0.131c-0.392,1.275-1.203,1.561-1.584,1.561c-0.466,0-0.656-0.381-0.656-0.786
		c0-0.263,0.072-0.525,0.203-1.05L11.068,15.546"/>
</g>
<g>
	<defs>
		<rect id="SVGID_1_" x="169.852" y="40.978" width="32.067" height="8.667"/>
	</defs>
	<clipPath id="SVGID_2_">
		<use xlink:href="#SVGID_1_"  overflow="visible"/>
	</clipPath>
	<path clip-path="url(#SVGID_2_)" d="M170.97,45.474c0.336-1.309,1.223-1.438,1.446-1.438c0.405,0,0.638,0.249,0.638,0.542
		c0,0.896-1.379,0.896-1.731,0.896H170.97 M171.375,45.662c0.249,0,0.887-0.016,1.318-0.198c0.603-0.259,0.645-0.766,0.645-0.887
		c0-0.378-0.326-0.731-0.921-0.731c-0.956,0-2.256,0.836-2.256,2.341c0,0.879,0.509,1.559,1.353,1.559
		c1.231,0,1.954-0.913,1.954-1.016c0-0.051-0.051-0.112-0.104-0.112c-0.042,0-0.06,0.018-0.111,0.087
		c-0.68,0.852-1.618,0.852-1.723,0.852c-0.672,0-0.749-0.723-0.749-0.998c0-0.104,0.009-0.371,0.138-0.896H171.375z"/>
	<path clip-path="url(#SVGID_2_)" d="M176.911,44.208h0.741c0.172,0,0.259,0,0.259-0.172c0-0.095-0.087-0.095-0.233-0.095h-0.715
		l0.181-0.982c0.034-0.18,0.154-0.792,0.206-0.895c0.079-0.164,0.225-0.292,0.405-0.292c0.035,0,0.259,0,0.423,0.154
		c-0.379,0.035-0.466,0.336-0.466,0.466c0,0.198,0.156,0.301,0.32,0.301c0.223,0,0.473-0.19,0.473-0.516
		c0-0.397-0.395-0.594-0.749-0.594c-0.293,0-0.834,0.154-1.093,1.007c-0.051,0.18-0.077,0.267-0.284,1.351h-0.594
		c-0.163,0-0.257,0-0.257,0.164c0,0.103,0.077,0.103,0.241,0.103h0.567l-0.646,3.4c-0.154,0.836-0.301,1.618-0.749,1.618
		c-0.034,0-0.249,0-0.413-0.154c0.397-0.026,0.474-0.336,0.474-0.464c0-0.199-0.156-0.302-0.318-0.302
		c-0.225,0-0.474,0.19-0.474,0.517c0,0.387,0.379,0.593,0.731,0.593c0.474,0,0.818-0.508,0.974-0.834
		c0.275-0.543,0.473-1.584,0.482-1.645L176.911,44.208"/>
	<path clip-path="url(#SVGID_2_)" d="M187.215,46.506c0.12,0,0.284,0,0.284-0.172c0-0.172-0.164-0.172-0.293-0.172h-5.14
		c-0.129,0-0.292,0-0.292,0.172c0,0.172,0.164,0.172,0.284,0.172H187.215 M187.207,44.836c0.129,0,0.293,0,0.293-0.172
		c0-0.172-0.164-0.172-0.284-0.172h-5.157c-0.121,0-0.284,0-0.284,0.172c0,0.172,0.164,0.172,0.292,0.172H187.207z"/>
	<path clip-path="url(#SVGID_2_)" d="M193.62,42.365c0.077-0.301,0.095-0.326,0.464-0.326h0.827c0.714,0,1.17,0.233,1.17,0.826
		c0,0.336-0.172,1.077-0.508,1.387c-0.431,0.387-0.947,0.456-1.326,0.456h-1.213L193.62,42.365 M193,44.931h1.464
		c1.223,0,2.42-0.895,2.42-1.859c0-0.664-0.569-1.3-1.697-1.3h-2.79c-0.162,0-0.257,0-0.257,0.164c0,0.103,0.077,0.103,0.249,0.103
		c0.112,0,0.267,0.008,0.37,0.018c0.138,0.016,0.19,0.042,0.19,0.137c0,0.035-0.008,0.061-0.034,0.164l-1.154,4.623
		c-0.087,0.336-0.103,0.405-0.784,0.405c-0.146,0-0.241,0-0.241,0.164c0,0.103,0.104,0.103,0.13,0.103
		c0.241,0,0.852-0.026,1.093-0.026c0.181,0,0.37,0.008,0.551,0.008c0.19,0,0.379,0.018,0.559,0.018c0.061,0,0.172,0,0.172-0.172
		c0-0.095-0.077-0.095-0.241-0.095c-0.318,0-0.559,0-0.559-0.156c0-0.051,0.018-0.093,0.026-0.146L193,44.931z"/>
	<path clip-path="url(#SVGID_2_)" d="M196.297,46.331v0.219c0.385,0,0.439,0.037,0.439,0.336v1.584c0,0.261-0.061,0.261-0.456,0.261
		v0.219c0.012,0,0.439-0.024,0.682-0.024c0.213,0,0.432,0.007,0.646,0.024v-0.219c-0.353,0-0.414,0-0.414-0.256v-2.211
		L196.297,46.331 M197.224,45.193c0-0.176-0.146-0.347-0.353-0.347c-0.183,0-0.347,0.146-0.347,0.347
		c0,0.219,0.176,0.353,0.347,0.353C197.065,45.546,197.224,45.393,197.224,45.193z"/>
	<path clip-path="url(#SVGID_2_)" d="M201.069,47.106c0-0.531-0.261-0.841-0.914-0.841c-0.5,0-0.822,0.274-0.993,0.59h-0.007v-0.59
		l-0.895,0.066v0.219c0.408,0,0.456,0.043,0.456,0.341v1.579c0,0.261-0.061,0.261-0.456,0.261v0.219
		c0.012,0,0.439-0.024,0.695-0.024c0.225,0,0.646,0.019,0.7,0.024v-0.219c-0.395,0-0.456,0-0.456-0.261v-1.097
		c0-0.641,0.505-0.938,0.907-0.938c0.427,0,0.482,0.334,0.482,0.646v1.389c0,0.261-0.061,0.261-0.458,0.261v0.219
		c0.012,0,0.439-0.024,0.695-0.024c0.226,0,0.646,0.019,0.701,0.024v-0.219c-0.397,0-0.458,0-0.458-0.261V47.106"/>
</g>
<g>
	<defs>
		<rect id="SVGID_3_" x="40.197" y="2.168" width="11" height="8"/>
	</defs>
	<clipPath id="SVGID_4_">
		<use xlink:href="#SVGID_3_"  overflow="visible"/>
	</clipPath>
	<path clip-path="url(#SVGID_4_)" d="M49.596,3.747c0.089-0.358,0.109-0.456,0.855-0.456c0.228,0,0.317,0,0.317-0.198
		c0-0.109-0.098-0.109-0.267-0.109h-1.312c-0.258,0-0.267,0-0.386,0.189l-3.627,5.661L44.4,3.211
		c-0.03-0.228-0.05-0.228-0.308-0.228h-1.361c-0.189,0-0.298,0-0.298,0.189c0,0.119,0.091,0.119,0.289,0.119
		c0.128,0,0.308,0.009,0.427,0.02c0.159,0.019,0.219,0.048,0.219,0.158c0,0.041-0.009,0.07-0.041,0.189l-1.261,5.056
		c-0.1,0.397-0.269,0.716-1.073,0.745c-0.048,0-0.178,0.009-0.178,0.189c0,0.089,0.059,0.119,0.139,0.119
		c0.317,0,0.666-0.03,0.994-0.03c0.337,0,0.695,0.03,1.023,0.03c0.048,0,0.178,0,0.178-0.198c0-0.109-0.109-0.109-0.178-0.109
		c-0.567-0.009-0.677-0.209-0.677-0.437c0-0.069,0.011-0.119,0.041-0.228l1.35-5.414h0.011l0.853,6.159
		c0.02,0.119,0.031,0.228,0.15,0.228c0.109,0,0.169-0.109,0.219-0.178l4.013-6.289h0.011l-1.422,5.692
		C47.421,9.38,47.4,9.46,46.616,9.46c-0.169,0-0.278,0-0.278,0.189c0,0.119,0.119,0.119,0.148,0.119c0.278,0,0.955-0.03,1.233-0.03
		c0.406,0,0.834,0.03,1.241,0.03c0.059,0,0.189,0,0.189-0.198c0-0.109-0.089-0.109-0.278-0.109c-0.367,0-0.645,0-0.645-0.18
		c0-0.039,0-0.059,0.05-0.238L49.596,3.747"/>
</g>
<path d="M215,78.389c0-0.548-0.917-0.464-1.288-0.464h-4.494c-0.595,0-1.656,0.345-1.847,0.989c0.023,0.072,0.047,0.083,0.119,0.083
	c0.262,0,0.62-0.214,0.786-0.392c0.37,0,0.728-0.025,1.097-0.025h0.739c0,0-0.047,0.216-0.047,0.227
	c-0.466,2.181-1.169,4.03-1.694,5.199c-0.07,0.155-0.714,1.644-0.881,1.787c-0.525,0-0.919-0.286-1.133-0.752
	c-0.036-0.072-0.036-0.119-0.119-0.119c-0.275,0-0.93,0.381-0.93,0.584c0,0.024,0.011,0.047,0.023,0.072
	c0.214,0.559,0.752,0.881,1.334,0.881c0.608,0,1.312-0.441,1.694-0.881c0.394-0.453,1.18-2.408,1.489-3.123h2.302
	c-0.013,0.011-0.023,0.023-0.023,0.036c0,0.047,0.07,0.083,0.119,0.083c0.263,0,0.942-0.334,0.942-0.703
	c0-0.083-0.084-0.072-0.227-0.072h-2.861c0.309-1.072,0.714-2.122,0.93-3.219h1.573c0.297,0,1.131-0.059,1.347,0.203
	c0.023,0.072-0.012,0.191,0.023,0.25c0.023,0.023,0.059,0.036,0.095,0.036C214.356,79.069,215,78.711,215,78.389"/>
<path d="M139.62,16.322c-2.383,1.288-2.514,2.825-2.514,3.111c0,0.906,0.881,1.478,2.014,1.478c1.991,0,3.587-1.884,3.587-2.134
	c0-0.072-0.059-0.083-0.119-0.083c-0.144,0-0.595,0.155-0.87,0.525c-0.25,0.345-0.752,1.036-1.812,1.036
	c-0.845,0-1.788-0.441-1.788-1.334c0-0.584,0.667-2.348,2.552-2.42c0.559-0.024,0.977-0.441,0.977-0.572
	c0-0.072-0.059-0.084-0.119-0.084c-1.681-0.07-2.014-0.894-2.014-1.37c0-0.273,0.178-1.573,1.847-1.573
	c0.227,0,1.133,0.036,1.133,0.656c0,0.191-0.095,0.358-0.144,0.428c-0.023,0.036-0.059,0.095-0.059,0.131
	c0,0.084,0.084,0.084,0.12,0.084c0.356,0,1.095-0.466,1.095-1.145c0-0.703-0.822-0.811-1.358-0.811
	c-1.622,0-3.648,1.288-3.648,2.742C138.5,15.689,139.038,16.118,139.62,16.322"/>
<path d="M179.86,9.583c1.359-3.325,1.609-5.4,1.777-6.83c0.798,0,3.85,0,3.85,2.622c0,2.337-2.097,4.208-4.983,4.208H179.86
	 M179.801,10.239c2.778,0,6.7-2.122,6.7-5.377c0-1.061-0.502-1.728-1.084-2.097c-1.025-0.669-2.122-0.669-3.255-0.669
	c-1.025,0-1.728,0-2.73,0.43c-1.586,0.703-1.812,1.692-1.812,1.788c0,0.072,0.048,0.095,0.12,0.095c0.191,0,0.464-0.166,0.559-0.227
	c0.25-0.166,0.286-0.237,0.358-0.464c0.167-0.477,0.5-0.894,2.003-0.966c-0.191,2.491-0.8,4.769-1.634,6.855
	c-0.441,0.155-0.727,0.428-0.727,0.548c0,0.07,0.012,0.083,0.275,0.083H179.801z"/>
<g>
	<defs>
		<rect id="SVGID_5_" x="95.667" y="22.126" width="27.002" height="28.966"/>
	</defs>
	<clipPath id="SVGID_6_">
		<use xlink:href="#SVGID_5_"  overflow="visible"/>
	</clipPath>
	<path clip-path="url(#SVGID_6_)" d="M111.235,29.341c5.381,0.625,6.474,4.215,6.474,7.18c0,2.34-0.583,6.516-6.474,7.218V29.341
		 M107.994,43.701c-5.538-0.74-6.24-4.721-6.24-7.142c0-2.029,0.391-6.398,6.24-7.176V43.701z M111.235,44.599
		c6.045-0.468,10.375-4.096,10.375-8.039c0-4.058-4.445-7.606-10.375-8.074v-2.186c0-1.327,0-1.872,3.705-1.872h1.289v-1.212
		c-1.404,0.119-4.994,0.119-6.593,0.119c-1.599,0-5.228,0-6.635-0.119v1.212h1.289c3.705,0,3.705,0.506,3.705,1.872v2.186
		c-5.968,0.583-10.141,4.173-10.141,8.035c0,4.02,4.33,7.491,10.141,8.078v2.182c0,1.327,0,1.876-3.705,1.876H103v1.208
		c1.408-0.119,4.994-0.119,6.593-0.119c1.603,0,5.232,0,6.635,0.119v-1.208h-1.289c-3.705,0-3.705-0.51-3.705-1.876V44.599z"/>
</g>
<g>
	<g>
		<path fill="none" stroke="#000000" stroke-miterlimit="10" d="M88.333,19.277c18.539-5.745,20.449-6.356,34.267-1.891"/>
		<g>
			<path d="M128.333,19.277c-3.025,0.151-6.926,0.805-9.582,1.964l3.071-4.018l-0.21-5.052
				C123.122,14.644,125.942,17.419,128.333,19.277z"/>
		</g>
	</g>
</g>
<g>
	<g>
		<path fill="none" stroke="#000000" stroke-miterlimit="10" d="M128.5,54.111c-18.539,5.745-20.449,6.356-34.267,1.891"/>
		<g>
			<path d="M88.5,54.111c3.025-0.151,6.926-0.805,9.582-1.964l-3.071,4.018l0.21,5.052C93.711,58.744,90.892,55.969,88.5,54.111z"/>
		</g>
	</g>
</g>
</svg>
