<?xml version="1.0" encoding="utf-8"?>
<!-- Generator: Adobe Illustrator 23.0.2, SVG Export Plug-In . SVG Version: 6.00 Build 0)  -->
<svg version="1.1" id="Layer_1" xmlns="http://www.w3.org/2000/svg" xmlns:xlink="http://www.w3.org/1999/xlink" x="0px" y="0px"
	 viewBox="0 0 159.52 101.65" style="enable-background:new 0 0 159.52 101.65;" xml:space="preserve">
<style type="text/css">
	.st0{font-family:'MyriadPro-Regular';}
	.st1{font-size:12px;}
	.st2{fill:none;stroke:#000000;stroke-width:8;stroke-miterlimit:10;}
</style>
<text transform="matrix(1 0 0 1 7.5313 47.337)"><tspan x="0" y="0" class="st0 st1">Physical </tspan><tspan x="0" y="14.4" class="st0 st1">System</tspan></text>
<text transform="matrix(1 0 0 1 107.513 47.337)"><tspan x="0" y="0" class="st0 st1">Geometry</tspan><tspan x="0" y="14.4" class="st0 st1"> Topology</tspan></text>
<g>
	<g>
		<g>
			<path class="st2" d="M38.6,30.96C46.91,14.55,62.28,5.09,80.94,5.92c14.77,0.66,28.98,9.38,36.79,22.09"/>
			<g>
				<path d="M117.27,27.35c0.88-2.82,4.08-5.62,6.59-7.02c-2.08,4.32-3.33,9.18-2.92,14.04c-3.68-3.16-8.49-4.66-13.2-5.62
					C110.59,27.55,114.24,26.48,117.27,27.35z"/>
			</g>
		</g>
	</g>
	<g>
		<g>
			<path class="st2" d="M119.35,70.95c-8.31,16.41-23.68,25.87-42.34,25.03c-14.77-0.66-28.98-9.38-36.79-22.09"/>
			<g>
				<path d="M40.67,74.56c-0.88,2.82-4.08,5.62-6.59,7.02c2.08-4.32,3.33-9.18,2.92-14.04c3.68,3.16,8.49,4.66,13.2,5.62
					C47.36,74.36,43.71,75.42,40.67,74.56z"/>
			</g>
		</g>
	</g>
</g>
</svg>
